{"glyphs":{"0":{"ha":571,"x_min":52,"x_max":519,"o":"m 228 758 l 281 770 q 303 766 293 770 q 323 761 313 762 q 340 760 332 760 q 357 760 349 761 q 374 755 366 758 q 393 755 382 751 q 400 751 396 750 q 423 739 408 754 q 435 730 434 732 q 440 724 435 728 q 453 715 445 720 q 469 704 461 711 q 491 667 473 689 q 497 643 494 661 q 508 610 500 625 q 515 583 515 594 q 517 564 515 571 l 519 537 l 514 521 q 515 515 514 519 q 514 504 515 510 q 510 490 513 498 q 510 472 507 481 q 503 459 503 468 q 495 446 502 450 q 483 426 484 430 q 479 416 481 422 l 472 403 q 456 391 468 395 q 441 383 445 388 q 435 374 438 378 q 414 361 420 368 q 401 351 407 354 q 385 347 395 349 q 368 342 376 345 q 345 338 359 339 q 320 334 331 338 q 309 330 309 331 q 292 324 309 328 q 260 320 274 320 l 231 327 q 214 326 222 328 q 197 326 205 323 q 183 336 189 330 q 165 342 178 342 q 158 350 163 347 q 146 357 153 353 q 130 365 140 361 q 112 386 123 378 q 98 410 100 393 q 66 450 73 425 q 66 458 65 454 q 63 469 66 463 q 54 484 60 476 q 52 524 46 499 q 54 539 52 537 q 56 546 56 541 q 55 557 57 551 q 55 575 53 564 q 65 597 57 586 q 72 620 73 608 q 79 629 77 623 q 87 644 81 635 q 92 655 92 652 q 106 675 91 658 q 122 704 121 692 q 136 710 133 704 q 144 722 140 716 q 153 724 149 722 q 161 730 156 727 q 172 736 167 732 q 186 741 178 739 q 202 749 195 743 q 228 758 217 758 m 446 571 l 433 593 q 430 608 433 601 q 426 620 427 614 q 418 637 418 632 q 416 646 418 642 q 411 658 414 651 q 404 669 408 665 q 393 679 399 674 q 381 690 388 684 q 368 693 373 689 q 355 699 362 697 q 341 701 349 701 q 326 703 334 701 q 301 713 315 711 l 282 719 q 218 694 267 723 q 211 669 216 681 q 209 639 206 658 q 205 610 199 621 q 197 593 198 602 q 190 562 195 585 q 189 509 184 538 q 195 463 194 480 q 203 453 201 460 q 212 436 206 446 q 217 419 217 426 q 236 400 228 411 q 258 393 248 397 q 279 385 269 389 q 298 389 290 391 q 315 391 307 388 q 329 397 323 393 q 341 404 335 401 q 353 405 347 406 q 364 407 359 404 q 372 413 369 410 q 381 422 374 416 q 389 427 388 427 q 395 430 391 426 q 405 437 400 434 q 415 448 410 441 q 427 460 420 454 q 442 472 434 465 q 446 520 449 499 q 446 571 444 541 z "},"1":{"ha":468,"x_min":12,"x_max":381,"o":"m 376 659 l 372 635 q 372 623 372 628 q 372 610 373 618 q 368 589 370 601 q 369 563 365 578 q 370 528 374 557 q 381 456 366 498 q 377 414 374 437 q 379 377 380 392 q 374 341 378 362 q 372 290 369 320 q 374 232 374 260 q 370 194 374 203 q 363 176 366 184 q 359 157 361 168 q 355 128 358 146 q 351 91 351 110 q 328 71 343 77 q 300 56 313 65 q 280 57 288 58 q 262 58 273 56 q 255 68 259 61 q 246 81 251 76 q 240 93 241 87 q 240 104 239 99 q 242 121 241 110 q 240 152 243 133 q 244 182 237 171 q 241 197 240 189 q 243 214 243 206 l 237 237 q 235 263 239 248 l 237 282 q 228 340 237 327 q 231 351 231 345 q 235 361 231 358 q 231 370 236 368 q 235 397 227 373 q 228 465 228 438 l 233 483 q 231 492 233 487 q 234 515 229 496 q 238 557 239 533 q 237 604 237 582 l 243 621 l 240 640 q 233 673 240 662 q 218 666 224 673 q 202 652 210 652 q 189 635 193 637 q 184 631 186 633 q 95 609 119 624 q 79 611 88 613 q 62 609 71 609 q 32 616 41 616 q 12 618 23 616 q 12 647 8 631 q 24 653 19 652 q 40 658 30 654 q 55 660 50 662 q 77 661 60 658 q 120 673 95 665 q 155 685 145 682 q 182 701 171 690 q 199 705 197 707 q 210 717 203 712 q 216 735 217 722 q 229 746 222 742 q 235 761 236 750 q 250 770 241 761 q 262 785 259 779 q 263 795 264 791 q 264 806 262 800 q 275 817 273 811 q 283 826 277 823 q 305 827 294 823 q 326 829 316 830 q 352 813 349 819 q 361 791 355 807 q 368 771 369 777 q 369 759 368 765 q 373 748 370 753 q 378 733 376 743 q 377 696 380 723 q 376 666 374 670 q 376 659 377 662 z "},"2":{"ha":548,"x_min":34,"x_max":477,"o":"m 339 232 l 326 214 q 320 206 326 214 q 309 190 315 198 q 293 172 304 182 q 277 157 282 163 q 274 142 271 152 q 301 135 286 130 q 328 140 316 140 q 349 136 339 140 q 370 138 359 133 q 384 141 380 142 q 407 147 392 138 q 429 155 422 156 q 444 153 437 155 q 456 154 452 152 q 464 149 461 156 q 461 104 472 133 q 439 101 454 102 q 418 107 423 100 q 404 98 412 104 q 385 92 395 92 q 369 88 374 92 q 356 92 362 94 q 334 90 350 90 q 306 86 319 91 q 279 92 293 81 q 229 78 256 81 q 184 67 201 75 q 158 54 167 60 q 136 52 149 47 q 127 47 130 50 q 115 47 123 45 q 99 61 104 56 q 101 75 96 68 q 108 91 106 81 q 117 107 110 100 q 124 119 122 118 q 130 129 126 121 q 141 144 134 137 q 158 171 148 151 q 171 191 168 191 q 193 230 174 191 q 215 277 212 269 q 229 300 218 285 q 250 351 240 315 q 257 375 256 368 q 261 395 258 382 q 271 422 264 407 q 277 447 277 438 q 279 465 277 456 q 287 488 282 475 q 294 512 292 500 q 296 530 296 524 q 298 541 296 536 q 301 551 300 547 q 304 559 302 555 q 307 567 307 563 q 313 584 308 571 q 317 613 317 597 l 315 629 q 321 654 321 648 q 326 685 321 665 l 327 705 q 327 724 330 719 q 324 736 324 728 q 326 756 324 745 q 323 779 328 768 q 320 791 319 789 q 316 802 321 793 q 309 817 311 811 q 305 829 308 823 q 298 844 302 836 q 292 860 294 852 q 259 874 273 864 q 227 887 245 884 q 201 877 214 883 q 178 873 189 871 q 170 864 174 869 q 157 854 165 859 q 141 838 148 849 q 128 821 134 827 q 114 808 122 814 q 99 796 106 803 q 90 773 90 780 q 83 764 90 766 q 81 747 84 750 q 76 739 77 743 q 76 731 75 735 q 74 713 77 727 q 76 687 71 700 q 92 670 81 674 q 94 661 91 663 q 96 652 98 658 q 113 653 107 654 q 129 656 119 652 q 136 690 138 673 q 141 726 134 707 q 168 724 152 728 q 191 712 184 719 q 193 703 191 707 q 197 692 195 700 q 193 676 198 685 q 194 652 189 667 q 182 633 187 643 q 173 619 178 624 q 163 615 168 614 q 157 610 159 616 q 141 609 141 612 q 141 604 141 606 q 127 605 133 608 q 111 604 122 602 q 90 616 100 606 q 64 627 79 625 q 58 635 60 631 q 51 651 57 640 q 41 667 45 662 q 36 680 38 671 q 37 702 34 689 q 34 728 41 715 q 38 746 39 736 q 38 762 37 755 q 43 774 39 768 q 49 789 46 781 q 55 804 52 796 q 62 820 58 811 q 75 839 65 829 q 87 861 84 849 q 105 877 98 868 q 126 888 113 886 q 130 901 126 898 q 136 910 134 903 q 176 927 156 917 q 203 938 197 937 q 229 940 210 939 l 252 943 q 273 936 266 936 q 288 934 279 936 q 312 930 297 932 q 340 921 327 929 q 362 907 353 913 q 381 895 377 895 q 391 890 385 894 q 400 878 396 886 q 412 869 404 869 q 437 833 416 846 q 437 823 434 827 q 443 814 441 819 q 446 803 445 808 q 450 788 446 798 q 458 768 454 779 q 461 755 463 758 q 462 745 460 751 q 467 727 464 738 q 476 629 483 682 l 477 624 q 469 604 468 617 q 469 578 471 591 q 465 557 467 566 q 467 541 463 548 q 457 515 458 530 q 452 490 456 500 q 446 473 449 479 q 440 457 444 468 q 436 433 437 446 q 422 415 435 419 q 412 391 423 401 q 410 372 414 387 q 404 350 410 357 q 396 337 399 343 q 395 326 393 331 q 392 311 396 320 q 378 290 388 302 q 363 271 368 277 q 353 258 358 264 q 349 250 351 252 q 347 240 347 247 q 339 232 339 233 z "},"3":{"ha":544,"x_min":39,"x_max":468,"o":"m 423 894 l 437 887 q 465 817 484 869 q 458 798 463 806 q 449 776 453 789 q 435 763 441 770 q 422 751 430 755 q 416 740 420 745 q 411 728 412 735 q 404 722 407 726 q 396 719 401 719 q 376 685 392 704 q 355 648 361 666 q 345 640 349 646 q 330 623 342 635 q 305 598 317 610 q 285 571 293 586 q 308 556 290 560 q 335 540 326 552 q 362 533 347 543 q 387 524 377 524 q 407 498 399 513 q 430 472 415 483 q 448 419 437 437 l 456 387 q 460 366 461 372 q 465 355 460 359 q 468 297 467 324 q 463 240 469 270 q 437 165 445 194 q 403 118 407 145 q 382 106 393 111 q 365 91 372 102 q 332 77 345 85 q 313 67 319 68 q 305 61 308 66 l 288 62 q 273 57 281 60 q 253 45 264 54 q 213 42 241 37 q 183 50 184 47 q 177 53 182 52 q 168 52 172 54 q 151 56 163 50 q 134 69 138 61 q 124 77 130 77 q 109 83 118 77 q 102 91 100 88 q 95 100 103 94 q 84 111 87 107 q 72 128 81 115 q 60 149 62 141 q 54 159 57 156 q 47 165 50 161 q 43 178 46 174 q 41 190 41 182 l 41 203 q 39 213 41 209 l 39 231 l 49 274 q 55 289 49 281 q 61 300 61 297 q 63 307 61 302 q 70 315 65 311 q 76 326 75 319 q 113 340 94 336 q 142 346 133 343 q 158 348 151 349 q 174 342 165 347 l 190 338 q 208 334 203 336 q 221 332 213 331 q 228 316 227 326 q 231 297 229 307 q 233 283 233 288 q 227 267 233 278 q 208 254 221 255 q 190 261 194 254 q 170 270 186 269 q 161 283 164 277 q 144 294 157 289 q 96 270 130 298 q 92 256 96 259 q 84 248 87 254 q 85 227 85 240 q 79 209 85 214 q 84 197 79 201 q 87 183 90 193 q 106 153 102 168 q 134 127 130 142 q 168 106 151 123 q 189 102 176 103 q 210 98 202 102 q 224 105 220 99 q 240 111 229 111 q 257 136 252 132 q 262 144 262 140 q 268 157 263 148 q 275 174 273 167 q 281 184 278 180 q 279 197 283 189 q 290 219 288 206 q 295 243 292 232 q 301 262 298 255 q 305 279 304 270 q 307 295 307 288 q 309 315 307 302 q 316 341 312 328 q 322 362 320 354 q 323 376 324 370 q 326 393 321 381 q 330 416 330 406 l 330 437 q 330 455 330 445 q 328 473 331 465 q 311 486 324 481 q 290 500 297 490 q 264 499 278 496 q 232 496 251 502 q 201 485 213 490 q 179 467 189 480 q 155 459 167 465 q 132 457 142 453 q 100 491 103 468 q 121 548 98 525 l 137 564 q 151 581 144 571 q 159 590 157 590 q 162 593 160 590 q 169 601 164 597 q 179 610 174 605 q 184 619 180 616 q 190 629 189 623 q 201 635 197 629 q 211 647 205 640 q 229 671 217 654 q 242 688 240 688 q 248 694 244 689 q 256 708 251 699 q 266 722 262 718 q 273 730 270 727 q 278 739 275 734 q 288 753 281 745 q 295 765 294 761 q 305 782 296 769 q 315 811 315 795 q 271 819 300 826 q 228 815 243 811 l 203 806 q 187 806 198 808 q 164 817 176 804 q 153 816 157 817 q 144 819 149 815 l 134 841 q 131 854 133 846 q 134 871 129 861 q 148 876 141 875 q 164 880 155 878 q 183 881 174 882 q 205 884 193 880 q 222 884 218 887 q 260 887 227 882 l 288 886 l 317 886 q 352 884 338 879 q 371 888 366 888 q 386 890 376 887 q 400 891 396 892 q 410 890 404 890 q 423 894 415 890 z "},"4":{"ha":547,"x_min":22,"x_max":537,"o":"m 114 441 l 115 458 q 127 479 127 471 q 130 493 127 487 q 138 507 133 499 q 142 526 142 515 q 154 539 152 538 q 159 551 156 540 q 166 572 163 563 q 172 591 170 581 q 178 605 175 602 q 187 616 180 608 q 189 627 189 623 q 194 648 189 639 q 199 661 199 656 q 202 672 199 666 q 209 686 205 678 q 212 703 213 693 q 235 729 229 713 q 245 749 241 745 q 254 758 250 753 q 260 773 259 773 q 264 778 262 773 q 280 788 266 783 q 302 799 294 793 q 306 808 302 808 q 312 811 309 808 q 326 812 315 814 q 343 811 336 810 q 349 805 347 810 q 355 798 351 800 q 378 758 385 773 q 380 750 382 755 q 381 738 378 745 q 385 728 384 731 q 391 714 385 724 q 387 693 397 704 q 391 670 391 682 q 392 647 391 658 l 395 628 q 393 618 395 620 q 388 606 391 616 l 392 589 q 391 563 393 575 q 397 540 389 551 q 392 514 392 526 l 397 488 q 394 470 397 481 q 391 449 391 458 q 385 433 392 439 q 393 393 396 412 q 397 330 387 361 q 397 319 397 323 q 399 309 396 315 q 400 294 401 302 q 401 274 399 285 q 406 258 406 267 q 410 246 407 248 q 416 241 414 244 q 448 241 431 243 q 478 245 464 240 q 502 253 492 250 q 525 252 511 256 q 532 230 529 244 q 537 206 534 216 q 513 191 521 193 q 498 184 505 190 q 488 187 492 187 l 479 187 q 471 185 473 187 q 463 182 468 183 q 453 182 458 180 q 444 184 448 184 q 432 176 441 178 q 416 172 423 175 q 417 148 411 160 q 418 127 423 136 q 418 118 414 119 q 423 111 422 117 l 410 68 q 409 47 411 52 q 407 41 407 43 l 411 15 q 411 7 412 11 q 410 -1 410 4 q 409 -12 411 -7 q 412 -28 407 -18 q 419 -46 416 -39 q 388 -111 420 -95 q 364 -108 377 -111 q 340 -103 351 -104 q 320 -83 332 -94 q 317 -44 312 -61 q 321 -11 321 -27 q 316 7 320 5 q 308 9 312 8 q 317 22 313 18 q 319 93 319 57 q 311 164 319 129 q 288 158 298 161 q 262 153 278 155 q 240 146 247 151 q 222 149 233 142 q 213 145 216 148 q 201 140 210 142 q 182 142 193 138 q 163 142 172 145 q 148 136 153 138 q 136 132 142 133 q 125 131 130 130 q 113 130 121 132 q 96 125 106 129 q 76 123 87 121 q 41 117 50 113 q 26 123 31 122 q 22 213 11 170 q 30 229 30 225 q 38 260 30 232 q 58 297 46 288 q 73 331 60 308 q 76 351 73 349 q 81 357 79 353 q 87 372 84 361 q 114 441 96 412 m 307 316 q 298 336 300 330 q 306 414 304 357 q 313 490 308 471 q 309 509 311 496 q 305 529 308 522 q 305 543 304 536 q 304 559 307 551 q 292 564 300 563 q 277 559 283 566 q 273 543 271 553 q 247 480 255 536 q 245 457 244 467 q 235 448 241 452 q 226 432 229 445 q 221 414 222 419 q 220 404 220 408 q 220 393 221 400 q 214 375 218 385 q 209 355 210 365 q 202 351 206 351 q 198 345 198 350 q 193 330 194 339 q 184 315 191 320 q 176 305 178 311 q 176 297 175 300 q 178 288 178 294 q 171 264 170 275 q 161 245 168 258 q 155 222 155 232 q 178 216 172 214 q 189 217 184 217 q 206 221 194 217 q 250 222 228 224 q 290 229 273 221 q 300 243 293 237 q 309 256 308 248 q 308 273 309 264 q 304 296 307 281 q 307 316 301 311 z "},"5":{"ha":575,"x_min":58,"x_max":536,"o":"m 479 438 l 491 418 q 493 412 491 415 q 497 403 495 408 q 503 393 499 397 q 509 385 506 388 q 515 376 513 381 q 517 366 517 370 q 519 355 517 361 q 523 347 521 350 q 526 338 525 343 q 528 328 528 334 q 532 312 529 323 q 534 290 534 301 q 533 264 533 279 q 536 236 533 250 q 534 205 538 222 q 527 181 529 189 q 524 168 525 174 q 522 158 524 163 q 517 149 519 153 q 517 138 515 145 q 490 105 500 125 q 469 73 480 85 q 449 47 457 61 q 435 32 442 41 q 420 20 429 23 q 401 19 412 16 q 354 3 374 23 q 311 -9 331 -4 q 271 -5 290 -14 q 201 3 224 -16 q 183 5 194 8 q 175 13 179 7 q 163 21 171 19 q 149 27 156 23 q 134 36 142 31 q 123 47 126 41 q 120 63 119 54 q 118 82 121 72 q 111 101 115 92 q 106 118 106 110 q 115 142 106 126 q 130 181 121 168 q 142 218 138 194 q 159 225 149 224 q 176 229 170 227 q 193 222 184 227 q 214 221 201 218 q 224 214 218 216 q 237 210 231 213 q 245 168 247 190 q 238 160 243 161 q 224 153 233 159 q 204 149 214 146 q 186 151 194 151 q 165 125 165 151 q 151 88 140 110 q 157 82 152 85 q 160 72 163 79 q 186 64 174 68 q 206 50 199 61 q 252 45 233 50 q 286 47 271 41 q 311 64 301 53 q 338 73 320 75 q 353 92 343 79 q 372 114 363 106 q 399 231 399 148 l 399 290 q 396 300 399 296 q 392 312 393 305 q 391 326 391 319 q 388 342 392 332 q 376 362 384 353 q 365 384 368 372 q 350 399 358 392 q 335 412 342 406 q 313 414 321 411 q 294 416 304 418 q 277 406 283 414 q 256 400 270 397 q 243 378 251 397 q 233 370 239 373 q 227 359 228 368 l 209 354 q 203 345 209 347 q 193 339 198 343 q 172 318 182 323 q 154 309 163 313 q 131 310 145 305 q 103 309 117 315 q 85 328 92 317 q 71 349 79 339 q 73 393 79 380 q 65 428 62 414 q 64 452 68 442 q 58 473 60 463 q 61 501 57 484 q 65 536 65 518 l 64 583 l 64 621 l 68 675 q 66 685 68 682 q 68 696 65 688 q 72 724 72 704 q 75 754 72 745 l 79 779 q 102 823 85 814 q 160 837 127 827 q 170 831 170 838 q 178 823 171 823 q 214 828 203 823 q 231 834 225 833 q 242 834 237 836 q 254 835 247 833 q 269 840 262 837 q 280 842 277 842 q 293 844 283 842 q 319 848 302 846 q 349 856 336 849 q 435 861 381 849 q 458 852 448 864 q 470 829 469 840 q 468 817 471 819 q 463 806 465 815 q 426 793 435 793 l 384 784 q 364 787 373 784 q 345 787 355 789 q 319 773 334 784 q 287 764 305 762 q 250 762 269 765 q 225 751 232 754 q 214 739 218 747 q 216 716 214 728 q 215 691 217 704 q 208 667 213 678 q 210 632 203 655 q 216 590 217 609 q 218 555 216 571 q 218 538 220 540 q 220 523 217 536 q 224 505 222 510 q 231 498 227 500 q 240 490 236 495 q 287 507 270 505 q 311 517 304 510 q 334 515 323 513 q 353 515 346 517 q 366 511 361 514 q 376 507 370 509 q 387 505 381 505 q 400 501 392 506 q 414 493 408 496 q 429 483 420 490 l 442 473 q 456 464 448 469 q 472 453 464 458 q 479 438 479 441 z "},"6":{"ha":586,"x_min":54,"x_max":534,"o":"m 313 -11 l 293 -14 q 271 -8 282 -11 q 254 -4 260 -5 q 241 0 247 -3 q 224 14 227 12 q 218 20 221 16 q 212 24 216 23 q 187 54 201 27 q 174 60 178 56 q 161 65 170 65 q 125 109 152 98 q 113 127 121 121 q 106 152 104 134 q 92 176 98 163 q 76 198 87 190 q 68 260 75 240 q 62 285 61 281 q 58 301 62 289 q 55 326 54 313 q 56 353 56 338 q 54 383 56 368 q 55 413 53 399 q 57 435 57 427 q 58 449 57 444 q 62 460 64 457 q 71 477 61 467 q 87 540 81 487 q 101 566 96 551 q 111 590 106 581 q 122 605 117 600 q 132 616 127 610 q 138 630 136 623 q 149 639 141 637 q 153 653 151 647 q 159 669 156 659 q 168 677 165 674 q 177 683 171 680 q 188 692 183 686 q 197 703 193 697 q 207 711 202 708 q 217 720 212 713 q 226 731 222 726 q 243 745 229 736 q 262 761 256 753 q 293 777 285 768 l 308 777 q 329 784 320 777 q 347 794 338 791 q 375 795 357 798 q 406 794 393 792 q 425 800 418 796 q 437 804 431 803 q 448 802 442 804 q 461 804 454 800 q 469 797 464 800 q 479 789 475 793 q 500 783 495 788 q 515 777 505 779 q 528 751 521 766 q 525 720 534 735 q 496 725 509 713 q 469 745 483 736 q 445 751 456 754 q 428 749 434 747 q 411 750 422 751 q 391 745 395 743 q 384 747 387 747 q 362 739 368 739 l 353 739 q 345 733 349 736 q 336 726 340 730 q 322 717 331 723 q 310 705 313 711 q 300 696 307 699 q 262 631 290 652 q 256 609 263 620 q 251 587 250 598 q 236 572 239 585 q 225 552 233 559 l 225 537 q 218 511 225 524 q 209 484 212 499 q 207 452 206 469 q 205 401 208 434 q 206 357 202 369 q 212 339 210 345 l 209 309 q 221 239 209 278 q 245 236 236 236 q 259 255 254 236 q 288 291 269 273 q 313 314 308 309 q 336 324 317 319 q 358 329 353 326 q 384 332 363 332 q 454 321 431 345 q 476 315 463 313 q 481 307 479 311 q 491 304 484 302 q 513 279 502 283 q 523 253 518 266 q 534 228 528 240 q 534 205 532 216 q 534 182 537 195 q 530 162 528 167 q 532 148 532 157 q 528 132 532 138 q 518 109 524 126 q 494 68 505 71 q 484 65 488 68 q 471 47 481 52 q 456 30 460 42 q 447 24 450 27 q 433 14 444 20 q 402 -1 423 7 q 363 -19 381 -8 q 349 -17 357 -15 q 330 -15 340 -19 q 313 -11 320 -11 m 343 54 l 362 52 q 387 61 369 53 q 416 79 406 69 q 432 90 426 88 q 441 95 438 92 l 450 109 q 458 118 456 118 q 463 123 460 118 q 467 136 465 127 q 476 152 469 145 q 478 178 477 165 q 481 203 479 190 q 472 221 475 218 q 467 230 469 224 q 463 239 465 236 q 454 245 454 243 q 444 251 453 248 q 433 258 435 254 q 429 262 431 262 q 416 264 425 264 l 400 264 q 366 265 374 270 q 346 254 358 260 q 324 241 334 248 q 317 224 324 231 q 307 209 311 217 l 301 193 q 300 185 300 190 q 293 164 301 180 q 288 134 285 148 q 292 112 290 121 q 293 100 294 103 q 293 94 292 98 q 297 87 294 91 q 302 78 300 83 q 306 66 304 73 q 312 52 308 58 q 327 51 319 47 q 343 54 335 54 z "},"7":{"ha":543,"x_min":12,"x_max":528,"o":"m 387 829 q 443 831 412 823 q 486 846 473 840 q 507 847 498 852 q 517 837 517 842 q 519 826 517 831 q 524 817 521 821 q 527 803 526 812 q 519 781 528 793 q 496 764 510 769 q 476 722 490 735 q 466 689 476 708 q 456 658 456 670 q 440 641 445 651 q 430 620 435 631 q 429 587 435 602 q 421 557 423 571 q 407 540 419 544 q 399 514 407 534 q 416 516 408 514 q 432 517 425 518 q 446 511 439 515 q 458 505 452 507 q 492 491 479 509 q 490 454 495 477 q 482 451 487 450 q 464 450 477 452 q 442 452 450 448 q 423 457 434 456 l 392 449 q 376 453 384 449 q 374 442 374 448 q 370 430 373 437 q 358 405 358 414 q 352 387 358 396 q 349 369 346 377 q 342 365 346 366 q 336 359 339 363 q 323 315 334 336 l 302 274 q 292 250 296 255 q 287 239 289 244 q 286 229 285 235 q 285 220 288 224 q 279 210 278 214 q 273 197 279 206 q 262 181 266 187 q 262 164 258 175 q 256 157 256 161 q 252 149 256 152 q 251 134 255 142 q 247 119 247 126 q 243 104 247 111 q 233 90 240 98 q 227 69 227 81 q 214 53 218 62 q 201 35 209 43 q 203 24 201 28 q 203 14 205 20 q 182 -1 197 4 q 151 -22 164 -23 q 133 -17 137 -20 q 122 -12 129 -14 q 114 5 117 -3 q 105 10 107 5 q 100 18 103 15 q 103 35 103 30 l 103 57 q 113 81 111 65 q 118 101 115 98 q 123 109 121 104 q 124 121 121 115 q 130 134 127 127 l 129 151 q 142 189 136 171 q 149 202 148 195 q 151 216 149 209 q 159 231 157 222 q 163 248 160 240 q 169 260 167 255 q 174 273 171 266 q 176 282 178 279 q 189 340 189 321 q 196 354 195 345 q 203 370 197 363 q 214 387 210 376 q 216 398 218 397 q 214 401 213 399 q 221 410 221 407 q 225 420 221 412 q 228 433 229 429 q 227 442 227 438 q 235 456 228 446 l 243 480 q 201 495 216 484 q 187 492 194 496 q 170 488 180 487 q 144 501 159 490 q 133 528 130 513 q 144 545 136 543 q 160 557 152 547 q 178 556 171 555 q 189 553 184 557 q 203 545 194 548 q 228 541 213 543 q 258 536 243 538 q 277 583 273 564 q 288 604 282 594 q 297 628 294 614 q 315 657 308 639 q 332 691 321 675 q 345 711 342 707 q 349 720 347 715 q 355 730 351 724 q 345 755 365 742 q 322 760 324 760 q 309 758 320 760 l 258 760 l 225 754 q 218 754 222 753 q 201 755 213 755 q 170 752 189 755 q 132 751 151 749 l 114 755 l 92 753 q 82 753 88 751 q 67 756 76 755 q 50 756 58 757 q 29 760 41 755 q 12 779 18 764 q 18 812 7 793 q 35 812 31 817 q 50 807 38 808 q 75 810 61 811 q 109 811 90 810 l 137 814 l 171 810 l 221 817 q 229 815 225 817 q 255 818 232 814 q 289 821 278 822 q 309 821 300 819 q 329 822 317 822 q 356 820 340 822 q 387 829 372 818 z "},"8":{"ha":631,"x_min":47,"x_max":581,"o":"m 454 617 q 445 591 456 602 q 460 572 450 579 q 480 556 469 564 q 488 545 486 549 q 499 532 491 541 q 540 496 515 507 q 546 477 541 486 q 554 461 551 469 q 559 444 557 453 q 566 431 562 435 q 570 423 570 427 q 575 408 571 419 q 581 384 579 396 l 578 359 q 581 323 578 342 q 581 290 583 304 q 572 270 578 275 q 568 248 566 264 q 562 243 566 245 q 556 239 559 241 q 549 221 548 224 q 547 215 549 218 q 540 209 544 212 q 526 182 532 201 q 513 171 517 179 q 503 155 509 163 q 483 142 491 151 q 460 130 475 133 q 451 116 453 123 q 444 104 449 109 q 435 98 439 100 q 424 93 430 96 q 414 84 418 90 q 405 76 410 79 q 394 73 400 73 q 385 66 388 72 q 359 60 370 66 q 328 45 347 54 q 288 52 308 37 q 261 46 273 49 q 236 46 250 43 q 222 55 227 54 q 212 61 218 56 q 194 66 205 66 q 168 88 183 81 q 148 110 161 104 q 144 117 146 114 q 142 125 141 119 q 118 133 126 132 q 112 141 114 136 q 106 149 110 146 q 100 157 102 152 q 91 161 98 161 q 85 190 91 174 q 76 214 79 206 q 66 228 73 221 q 64 251 66 237 q 60 262 65 255 q 54 286 54 269 l 47 347 l 52 372 q 52 393 50 389 q 55 401 54 397 q 54 411 56 406 q 54 421 53 416 q 58 430 56 426 q 62 440 60 434 q 63 454 64 446 q 64 470 62 461 q 77 492 66 479 q 92 514 87 506 q 102 528 98 522 q 115 547 106 533 q 141 568 125 560 q 164 586 157 576 q 203 606 183 586 q 182 637 195 631 q 164 652 168 644 q 161 683 163 673 q 161 704 160 693 q 165 722 167 719 q 170 743 164 724 q 222 800 179 777 q 235 817 233 815 q 242 823 236 819 q 254 834 248 827 q 267 844 260 841 q 283 848 273 846 q 304 852 294 849 q 396 834 391 868 q 418 831 407 831 q 438 830 430 831 q 452 823 446 829 q 464 815 457 817 q 470 803 465 807 q 480 790 475 799 q 490 779 486 781 q 500 758 495 764 l 500 743 q 509 726 507 736 q 515 707 511 715 q 510 677 509 692 q 503 664 507 670 q 499 647 498 658 q 486 640 492 643 q 476 625 479 636 q 465 621 469 624 q 454 617 461 618 m 422 661 q 433 667 430 661 q 442 677 437 673 q 457 732 464 686 q 442 758 446 739 q 431 766 437 761 q 412 774 425 772 q 395 773 400 777 q 366 780 384 783 q 344 786 349 777 q 334 802 339 795 q 320 806 328 810 q 299 775 311 802 q 286 742 288 749 q 282 723 285 735 q 279 686 279 711 q 292 629 279 661 q 326 625 309 628 q 355 624 343 621 q 373 631 366 627 q 385 637 380 635 q 395 638 391 639 q 406 645 399 637 q 415 655 414 652 q 422 661 416 658 m 198 509 l 201 494 q 194 464 201 483 q 184 432 187 445 q 182 399 182 419 q 183 366 182 380 q 182 347 180 350 q 186 332 184 343 q 186 311 189 321 q 187 279 184 300 q 194 241 190 259 q 201 206 198 224 q 207 201 203 202 q 210 194 210 201 q 212 186 213 191 q 214 176 212 182 q 228 161 227 164 q 232 155 229 157 q 243 142 240 151 q 278 118 264 127 q 304 110 292 109 q 327 115 317 111 q 342 119 336 119 q 353 121 347 118 q 367 132 358 123 q 387 138 376 140 q 404 159 397 149 q 419 177 411 168 q 434 193 427 186 q 445 205 441 199 q 451 219 449 212 q 460 231 453 227 q 467 256 457 241 q 467 300 476 270 q 472 307 468 305 q 473 315 476 308 l 473 351 q 469 373 472 362 q 471 396 467 384 q 460 450 460 418 q 452 462 453 456 q 446 477 452 468 q 429 494 441 486 q 418 522 416 503 q 399 532 408 526 q 394 545 397 540 q 387 556 391 549 q 363 551 376 545 q 338 557 350 557 l 315 553 q 291 560 305 553 q 270 562 277 567 q 254 555 263 556 q 233 551 245 553 l 220 537 q 205 529 214 532 q 203 518 208 522 q 198 509 199 514 z "},"9":{"ha":575,"x_min":45,"x_max":522,"o":"m 389 134 l 373 132 q 361 117 365 126 q 338 108 349 115 q 317 94 328 100 q 296 83 305 87 q 281 76 286 79 q 269 71 275 73 q 254 70 263 69 q 237 69 245 71 q 220 65 228 68 q 200 64 212 62 q 175 75 189 65 q 145 84 161 84 q 128 98 140 95 q 106 103 117 100 q 100 119 103 110 q 94 134 98 127 q 91 180 85 161 q 110 205 96 199 q 127 177 125 197 q 133 137 130 157 q 144 140 140 138 q 156 140 149 141 q 205 114 186 114 l 228 121 q 296 167 255 121 q 332 206 328 191 q 340 220 334 212 q 347 230 347 228 q 348 237 346 232 q 354 248 350 241 q 361 262 358 254 q 367 273 365 266 q 374 292 369 281 q 385 325 380 302 q 392 357 389 347 q 396 376 395 368 q 397 393 397 385 q 397 421 396 400 q 392 467 399 442 q 379 463 382 468 q 368 457 376 457 q 349 425 363 435 q 321 404 334 415 q 303 403 312 407 q 288 404 294 399 q 279 401 281 404 q 273 396 278 397 q 237 391 251 403 q 204 392 222 397 q 170 392 186 387 q 148 398 153 397 q 138 401 142 399 q 128 409 133 404 q 113 419 123 414 q 99 425 102 425 q 94 427 96 426 q 85 441 87 442 q 80 444 83 441 q 72 465 80 453 q 65 491 64 477 q 59 502 61 496 q 52 510 57 507 q 45 545 56 517 q 46 557 43 552 q 50 568 49 562 l 47 594 q 51 609 47 601 q 50 624 54 617 q 57 629 57 623 q 62 639 57 636 q 74 679 64 665 q 87 715 84 693 q 100 734 94 723 q 117 755 107 746 q 128 770 126 765 q 133 779 130 776 q 155 795 146 787 q 179 807 163 803 q 195 813 190 814 q 205 815 199 812 q 216 825 210 818 q 231 836 222 833 q 262 838 239 840 q 293 837 285 836 q 311 836 301 838 q 328 824 321 833 q 350 810 335 815 q 368 787 354 792 q 392 770 381 781 q 410 760 407 768 q 419 754 412 751 q 438 724 426 730 q 452 686 441 700 q 464 673 463 673 q 468 671 465 673 q 477 643 475 652 q 490 605 480 624 q 501 576 499 586 q 507 559 503 567 q 511 550 511 552 q 514 536 510 548 q 517 514 518 525 q 517 491 517 503 l 522 449 q 520 437 522 444 q 516 416 518 431 q 515 375 514 401 q 503 331 515 349 l 503 309 q 484 264 488 285 q 475 254 477 262 q 464 245 473 247 q 452 220 463 232 q 439 203 442 208 q 431 198 437 198 q 427 188 430 191 q 420 178 425 184 q 410 165 416 172 q 399 151 404 159 q 393 140 395 144 q 389 134 392 137 m 370 563 l 365 586 q 366 597 365 591 q 362 614 366 602 q 354 644 358 627 q 345 669 350 661 q 340 689 340 678 q 328 703 331 703 q 323 709 326 704 q 319 721 320 713 q 315 734 319 728 q 296 749 302 743 q 285 757 289 754 q 222 757 260 770 q 213 730 220 743 q 182 636 182 667 l 174 575 l 179 541 q 178 521 180 530 q 178 505 176 511 q 185 490 180 498 q 191 475 190 483 q 209 463 202 467 q 219 458 216 460 q 238 454 222 456 q 273 457 254 452 q 308 465 292 463 q 319 477 312 472 q 334 488 327 481 q 355 522 339 499 q 370 563 370 545 z "}," ":{"ha":305,"x_min":0,"x_max":0,"o":""},"!":{"ha":331,"x_min":90,"x_max":256,"o":"m 138 943 l 174 951 q 193 945 184 949 q 210 937 202 940 q 218 916 216 926 q 225 895 221 905 l 231 882 q 239 858 239 864 q 244 840 239 852 q 248 821 250 829 q 252 807 245 814 q 249 787 245 800 q 244 765 252 773 q 250 741 251 757 q 256 718 250 724 q 256 680 252 701 q 250 646 259 658 q 241 572 258 598 q 229 561 236 564 q 220 548 222 557 q 220 532 217 538 q 225 515 222 525 q 218 485 216 502 q 218 456 221 468 q 212 435 216 444 q 205 420 208 427 q 205 406 203 414 q 206 392 206 399 q 198 358 198 366 q 191 343 198 350 q 192 323 191 332 q 191 305 193 315 q 186 287 190 296 q 180 270 183 278 q 166 261 171 269 q 151 255 161 254 q 142 268 144 267 q 138 271 140 269 q 132 275 136 273 q 123 286 127 278 q 118 328 118 294 q 117 370 118 361 q 121 384 117 378 q 114 421 114 399 q 106 468 114 444 q 106 482 106 475 q 106 499 107 490 q 102 520 104 509 q 106 544 100 532 q 100 588 99 566 q 101 617 102 610 q 106 628 100 624 q 103 635 106 632 q 98 644 100 637 q 98 658 96 650 q 93 684 99 666 q 96 734 87 701 q 92 749 92 746 l 94 768 l 90 789 q 101 870 90 823 q 125 940 113 917 q 138 943 132 943 m 132 161 q 145 168 134 168 q 199 161 161 175 q 207 141 199 146 q 216 123 214 136 q 236 68 241 98 l 236 60 q 235 52 236 54 q 226 43 225 45 q 224 39 227 41 q 217 35 222 37 q 200 21 212 33 q 177 12 189 9 q 155 15 165 15 q 122 34 144 28 q 115 49 118 41 q 106 62 113 57 q 106 79 109 73 q 102 95 104 85 q 115 153 100 127 q 123 157 118 156 q 132 161 127 157 z "},"\"":{"ha":400,"x_min":64,"x_max":336,"o":"m 155 905 l 155 864 l 156 846 q 154 835 156 840 q 151 818 152 830 q 149 800 149 806 q 152 779 148 795 q 152 754 156 762 q 144 722 144 742 q 136 686 144 703 q 100 685 117 674 q 79 704 83 696 q 68 728 75 712 q 71 774 71 750 q 64 821 71 798 q 68 833 68 825 l 68 846 l 66 902 l 69 918 l 66 943 q 72 978 66 966 q 76 997 77 990 q 87 1007 80 1004 q 102 1017 95 1010 q 117 1009 104 1019 q 138 986 129 1002 q 145 970 144 970 q 151 945 151 970 q 155 905 148 925 m 336 864 l 336 846 q 335 835 336 840 q 332 818 334 830 q 330 800 331 806 q 333 779 330 795 q 331 754 336 762 q 324 722 324 742 q 316 686 324 703 q 279 687 298 675 q 248 728 260 699 q 251 774 251 750 q 244 821 251 798 q 248 833 248 825 l 248 846 l 247 902 l 250 918 l 247 943 q 252 978 247 966 q 256 997 258 990 q 268 1007 260 1004 q 282 1017 275 1010 q 297 1009 285 1019 q 319 986 309 1002 q 326 970 324 970 q 332 945 332 970 q 332 920 330 926 q 334 905 334 913 q 335 889 335 897 q 336 864 335 882 z "},"#":{"ha":826,"x_min":45,"x_max":783,"o":"m 389 407 l 422 410 q 439 411 430 412 q 456 410 448 410 q 463 432 463 426 q 466 446 463 438 q 474 471 469 453 q 492 519 479 490 q 509 586 505 549 q 517 602 515 593 q 522 621 519 612 q 456 617 473 613 q 437 623 438 621 q 418 624 437 625 q 384 632 400 623 q 350 616 370 628 q 342 595 340 605 q 341 574 343 585 q 334 555 339 563 q 331 537 328 548 q 315 500 317 524 q 309 474 313 477 q 300 462 304 471 q 294 446 296 453 q 290 433 293 439 q 288 406 288 427 l 312 407 l 335 404 l 358 408 q 374 408 366 410 q 389 407 381 407 m 707 707 l 765 703 q 783 661 789 692 q 776 651 781 656 q 768 642 770 646 q 758 632 765 637 q 710 618 734 613 q 677 623 686 624 q 653 621 667 623 q 627 625 639 620 q 612 621 620 625 q 578 519 605 575 q 572 503 575 510 q 566 488 568 496 q 566 477 564 480 q 568 469 567 473 q 563 458 564 464 q 559 446 562 452 q 553 435 556 439 q 548 425 551 430 q 575 425 560 422 q 608 429 590 427 q 644 433 627 431 q 675 444 661 434 q 703 441 689 442 q 730 437 716 439 q 742 423 732 429 q 753 410 751 418 q 751 399 754 403 q 745 388 747 395 q 720 382 732 387 q 696 375 708 377 q 673 376 684 373 q 641 378 663 380 q 608 372 618 377 q 590 364 598 366 q 568 361 582 362 q 529 353 548 361 q 514 256 509 286 l 481 187 q 490 172 486 178 q 493 159 494 167 q 488 147 492 151 q 477 138 483 144 q 467 128 471 133 q 456 121 463 123 q 440 123 449 119 q 423 123 431 126 l 400 144 l 400 167 q 393 176 397 174 q 388 186 389 179 q 391 201 389 193 q 396 212 392 209 q 400 231 399 222 q 404 250 401 240 q 410 269 407 260 q 415 286 414 278 q 416 300 416 293 q 418 318 415 307 q 422 334 422 330 q 423 342 422 339 q 389 342 400 346 q 361 342 378 338 q 323 350 343 346 q 266 338 301 335 l 224 237 q 227 222 229 222 q 224 218 224 222 q 226 208 224 214 q 227 193 228 202 q 222 184 227 184 q 216 176 217 183 q 211 168 214 170 q 206 159 208 165 q 194 157 202 156 q 182 153 186 157 q 172 151 178 149 q 157 159 165 152 q 145 174 148 165 q 146 196 148 186 q 146 211 144 206 q 148 220 149 216 q 149 231 146 225 q 153 242 151 237 q 157 252 156 247 q 157 262 159 256 q 157 272 156 267 q 161 280 159 277 q 166 290 164 283 q 169 307 168 297 q 172 327 170 316 q 177 333 175 330 q 182 340 179 336 q 158 340 164 339 q 144 340 152 342 q 126 332 136 338 q 102 326 117 327 q 77 331 87 326 q 58 339 68 336 q 50 357 56 350 q 45 377 45 363 q 60 384 52 382 q 78 387 68 385 q 97 388 88 389 q 113 388 106 387 q 125 391 121 389 q 137 395 129 393 q 153 397 145 397 q 172 396 161 396 q 198 399 186 401 q 199 423 201 415 q 221 486 218 480 q 220 496 221 492 q 224 515 217 505 q 233 541 232 526 q 235 566 233 555 q 243 593 241 585 q 247 609 244 601 l 222 609 q 201 604 213 609 q 176 607 189 600 q 153 617 164 614 q 140 608 144 614 q 118 600 137 602 q 82 610 99 598 q 68 642 65 623 q 78 652 71 648 q 88 663 85 656 q 108 665 99 666 q 127 667 117 665 q 148 675 138 670 q 168 684 157 681 q 186 682 182 684 q 197 678 190 680 l 233 678 q 249 680 240 680 q 266 682 258 681 q 272 718 267 704 q 278 741 277 731 q 282 760 279 751 q 286 777 285 768 q 293 792 288 785 q 298 819 290 810 q 311 840 307 829 q 314 860 315 850 q 316 876 313 869 q 323 892 320 883 q 330 909 326 902 q 340 925 335 916 q 380 930 365 932 q 400 850 412 895 q 398 842 401 845 q 392 837 395 840 q 392 809 397 825 q 393 785 387 793 q 387 768 391 774 q 385 749 382 762 q 376 741 378 746 q 372 730 374 735 q 372 722 369 724 q 373 713 374 719 q 370 700 372 707 q 366 686 369 693 q 384 688 378 686 l 404 690 q 418 690 411 692 q 433 688 425 688 l 452 692 l 507 690 l 545 697 l 545 705 q 553 731 545 713 q 566 770 562 749 q 577 811 571 792 q 583 840 583 830 q 585 853 582 849 q 591 867 589 857 q 595 892 594 878 q 601 918 595 907 q 606 931 606 929 q 609 937 605 933 q 614 945 613 941 q 623 952 614 948 q 638 953 632 956 q 651 952 644 949 q 671 923 670 941 q 671 888 673 905 q 670 867 670 871 l 673 852 q 669 834 669 845 l 662 819 q 661 799 665 807 q 652 781 656 791 q 645 755 647 770 q 640 727 643 739 q 637 710 637 715 q 633 700 636 705 l 707 707 z "},"$":{"ha":517,"x_min":52,"x_max":464,"o":"m 224 990 q 245 993 227 993 q 263 997 263 993 q 275 989 274 996 q 283 981 275 983 q 286 935 288 954 q 288 898 285 917 q 323 886 290 886 q 343 877 336 879 q 359 871 350 875 q 372 864 369 867 q 381 859 376 861 q 403 838 395 846 q 416 826 411 830 q 424 812 420 822 q 434 799 427 803 q 437 782 430 789 q 446 760 445 774 q 438 718 448 746 q 411 686 429 689 q 363 732 370 689 q 342 752 353 743 q 321 772 331 761 q 302 779 312 777 q 271 798 279 781 q 232 799 262 811 l 220 799 q 212 802 214 799 q 192 791 199 795 q 174 777 184 788 q 166 762 172 769 q 161 747 160 755 q 160 731 163 739 q 160 715 157 723 q 168 701 163 708 q 178 688 174 694 q 186 668 183 681 q 193 649 189 655 q 202 640 197 643 q 213 631 208 636 q 221 615 220 616 q 226 610 222 614 q 240 601 229 605 q 259 593 251 597 q 269 574 260 582 q 286 555 278 566 q 304 536 294 545 q 322 527 313 528 q 336 514 331 526 q 350 502 343 509 q 366 490 357 495 q 418 429 380 454 q 422 415 420 422 q 433 408 423 408 q 437 393 435 400 q 453 366 442 377 q 463 334 464 355 q 463 300 463 312 q 460 275 464 289 q 460 244 456 260 q 438 218 445 220 q 427 211 431 216 q 416 199 422 206 q 404 184 411 191 q 388 177 393 183 q 375 166 382 171 q 358 159 368 161 q 345 148 349 156 q 326 142 335 151 q 309 132 317 134 q 310 119 311 121 q 311 112 309 118 q 311 101 313 106 q 308 91 308 96 l 312 68 q 313 52 311 53 q 315 43 315 50 q 314 25 316 37 q 315 1 312 14 q 306 -6 309 -1 q 287 -15 302 -11 q 258 -5 271 -19 q 244 26 241 7 q 248 61 247 46 l 245 81 q 248 94 245 88 q 246 109 251 99 q 228 123 241 118 q 203 129 214 129 q 195 134 201 133 q 182 138 189 136 q 170 141 176 141 q 157 144 163 141 q 150 153 152 148 q 141 156 148 157 q 132 170 138 164 q 125 178 125 176 q 121 184 126 180 q 113 193 117 189 q 103 205 110 198 q 102 224 110 217 q 92 244 94 232 q 99 275 90 256 q 107 301 109 293 q 118 309 111 302 l 133 324 q 174 350 159 350 l 197 350 q 201 327 206 338 q 197 298 195 316 q 186 259 184 279 q 191 235 189 239 q 201 227 194 232 q 210 210 208 221 l 222 201 q 262 195 236 195 l 293 203 q 313 209 305 203 q 334 212 321 214 q 348 223 340 218 q 363 233 355 228 q 374 255 366 247 q 383 276 382 263 q 378 298 384 289 q 372 321 372 307 q 353 338 365 332 q 336 355 340 343 q 325 359 330 357 q 313 363 320 361 q 221 433 275 410 q 197 467 209 452 q 167 475 180 469 q 153 488 165 480 q 144 510 142 499 q 111 529 129 525 q 91 547 102 545 q 85 569 92 563 q 71 583 77 575 q 68 610 77 598 q 56 632 58 623 q 53 648 53 642 q 52 665 53 654 q 58 757 39 724 q 68 780 65 768 q 111 842 83 807 q 122 846 117 845 q 163 865 149 852 q 190 873 179 871 q 217 894 224 879 q 221 910 214 902 q 223 940 222 932 q 224 958 224 948 q 220 977 217 971 q 224 990 222 983 z "},"%":{"ha":773,"x_min":42,"x_max":731,"o":"m 453 464 q 423 419 416 445 q 414 401 414 404 q 409 387 415 399 q 399 368 403 376 q 387 354 396 359 q 374 319 387 339 q 361 289 361 298 q 342 256 361 279 l 342 239 q 323 212 330 228 q 302 186 317 195 q 298 170 302 175 q 290 159 293 165 l 290 144 q 274 111 279 130 q 254 81 269 92 q 227 83 239 84 q 206 84 216 81 q 196 90 199 91 q 187 94 193 90 q 178 111 182 98 q 178 138 175 125 q 185 162 180 151 q 195 185 190 174 q 199 209 199 197 q 221 256 221 231 q 231 292 221 282 q 239 312 241 301 q 264 361 255 334 q 288 410 273 389 l 290 430 q 302 455 298 442 q 313 480 307 468 q 325 505 319 492 q 331 532 331 517 q 338 541 336 534 q 346 551 339 548 q 347 564 345 559 q 355 580 350 570 q 360 592 359 590 q 370 610 361 594 q 378 647 378 627 q 389 665 389 654 q 399 696 389 686 q 412 719 408 705 q 419 742 415 732 q 431 763 423 751 q 444 789 439 774 l 434 810 q 382 800 408 804 q 343 777 357 796 q 332 774 338 774 q 322 770 326 774 q 316 762 319 766 q 310 752 313 757 q 304 743 307 747 q 316 697 289 730 q 316 686 317 693 q 317 671 315 678 q 316 651 316 658 q 314 635 316 644 q 301 609 312 627 q 288 586 296 595 q 279 573 279 576 q 278 567 279 570 q 260 547 264 555 q 253 539 255 538 q 250 540 251 540 q 246 532 248 538 q 243 525 244 526 q 229 515 233 519 q 220 508 224 510 q 203 508 216 506 q 183 509 191 510 l 163 506 q 146 511 155 507 q 129 517 137 515 q 115 517 121 518 q 104 517 110 515 q 92 527 98 519 q 75 532 85 534 q 71 539 72 534 q 66 550 71 544 q 54 567 61 556 q 52 590 57 576 q 47 614 47 604 q 42 635 46 624 q 49 656 45 646 q 53 684 53 667 q 60 700 58 690 q 65 720 62 709 q 78 743 73 731 q 87 761 83 754 q 96 770 92 768 q 99 777 99 773 q 119 789 110 784 q 130 807 127 795 q 164 814 153 804 q 186 836 175 825 q 201 839 194 837 q 220 842 209 841 q 230 842 225 838 q 237 846 235 846 l 262 846 q 276 848 274 849 q 281 846 278 846 l 312 854 q 334 856 330 853 q 346 860 339 859 q 361 861 353 861 q 378 863 369 861 l 395 864 q 420 868 411 865 q 433 871 429 871 q 447 875 438 871 q 463 880 456 879 q 477 883 469 880 q 493 893 486 886 q 507 904 500 901 q 519 907 514 907 q 528 911 525 906 q 542 909 534 906 q 555 914 549 913 q 568 900 566 911 q 577 872 570 888 q 585 844 585 856 l 583 802 q 575 784 576 787 q 572 776 574 781 q 569 766 570 770 q 566 755 568 761 q 561 745 563 749 q 556 734 559 741 q 553 722 553 728 q 547 712 552 715 q 537 684 543 689 q 537 655 544 669 q 515 616 522 629 q 500 600 509 604 q 502 592 499 593 q 503 585 505 591 q 489 569 498 582 q 478 554 480 556 q 477 545 476 552 q 471 534 477 538 q 472 527 469 528 q 472 519 475 526 q 465 507 464 514 q 463 487 465 500 q 453 464 453 472 m 161 662 l 160 635 q 164 604 159 616 q 171 582 170 593 q 233 632 216 571 q 240 637 237 635 q 247 642 243 640 q 252 661 248 652 q 256 680 255 670 q 240 727 245 701 q 214 732 225 726 q 171 724 193 746 q 168 715 170 722 q 160 696 167 708 q 157 677 153 685 q 161 662 160 669 m 713 350 q 727 328 720 339 q 731 305 734 317 q 727 289 728 293 q 724 273 726 285 q 721 245 722 260 q 707 224 720 229 q 685 194 700 205 q 668 184 671 189 q 661 178 665 180 q 652 176 656 175 q 646 172 647 178 q 624 172 633 179 q 608 159 614 164 q 597 157 601 153 q 585 160 593 161 q 576 157 578 163 q 567 152 574 151 q 556 155 562 156 q 543 157 551 155 q 527 166 534 160 q 509 172 519 172 q 504 178 506 174 q 494 191 502 183 q 484 206 487 199 q 476 216 481 213 q 464 266 476 245 q 469 355 458 297 q 487 385 481 369 q 518 427 495 412 q 557 468 540 453 l 574 468 q 600 478 585 475 q 623 486 614 481 q 635 490 631 491 q 645 486 640 488 q 655 479 650 483 q 666 475 661 476 q 692 427 675 439 q 703 389 694 404 q 713 350 711 373 m 669 311 q 670 319 669 311 q 662 347 671 328 q 648 385 652 366 q 622 387 628 382 q 602 387 616 392 q 578 358 587 381 q 574 302 570 335 q 576 241 578 269 q 610 225 589 224 q 651 259 651 229 q 659 265 654 263 q 663 274 665 267 q 667 288 667 282 q 669 311 667 293 z "},"&":{"ha":700,"x_min":34,"x_max":677,"o":"m 532 856 q 547 865 532 865 l 555 865 q 564 855 566 857 q 564 852 563 853 q 557 807 574 823 q 555 785 556 796 q 548 766 553 773 l 548 749 q 543 731 548 738 q 492 718 518 709 q 486 731 490 728 l 486 747 q 486 764 486 757 q 479 777 487 770 q 461 787 472 784 q 446 800 450 791 q 418 812 431 803 q 351 796 365 812 q 347 782 347 791 q 339 768 346 773 q 340 735 342 754 q 357 711 338 716 q 364 694 363 696 q 371 685 365 692 q 381 673 377 678 q 391 661 385 667 q 405 651 397 655 q 418 642 412 647 q 425 633 423 637 q 434 625 427 628 q 444 608 437 613 q 454 588 452 602 q 444 566 456 574 q 428 555 433 555 q 405 549 423 556 q 374 549 387 541 q 354 559 361 556 q 326 551 339 552 q 299 546 312 551 q 275 534 286 541 q 250 529 264 526 q 217 498 231 515 q 203 476 203 481 q 201 465 203 471 q 197 455 199 458 q 191 446 194 452 q 186 410 197 427 q 176 379 176 392 q 179 361 176 366 q 182 331 187 347 l 184 311 l 184 279 l 182 256 q 186 248 183 252 q 191 237 189 243 q 196 226 194 231 q 201 216 198 221 q 205 204 203 210 q 212 191 206 198 q 220 178 217 183 q 234 163 232 165 q 241 156 236 160 q 254 149 245 152 q 264 136 262 146 q 283 123 279 133 q 307 117 296 121 q 336 108 317 113 q 372 105 355 103 q 388 113 388 107 q 395 120 388 118 q 408 124 401 122 q 422 134 415 126 q 437 142 430 141 q 445 156 439 151 q 455 168 450 161 q 464 180 460 174 q 477 189 468 186 q 491 212 483 202 q 503 229 499 222 q 511 240 506 235 q 524 268 517 255 q 538 293 532 281 q 532 319 532 301 q 524 345 532 338 q 511 363 517 353 q 469 385 500 392 q 429 380 437 378 q 414 378 422 381 q 399 368 406 376 q 382 354 393 361 q 359 315 370 323 q 356 298 361 305 q 353 275 351 290 q 351 257 354 259 q 349 250 349 255 q 339 235 340 239 q 330 231 338 231 q 317 240 321 231 q 304 252 312 250 q 288 292 297 281 q 293 312 286 305 q 292 321 288 315 q 293 335 296 328 l 308 354 l 308 373 q 317 387 311 384 q 324 400 323 391 q 338 408 332 403 q 355 420 345 414 q 379 432 365 426 q 404 449 393 438 q 415 450 411 450 q 424 452 419 450 q 432 455 429 453 q 439 458 435 457 q 448 459 444 460 q 460 461 453 458 q 475 469 468 464 q 489 477 481 475 q 502 478 496 480 q 522 480 507 476 q 544 490 537 484 q 561 499 551 495 q 574 506 571 503 q 583 511 578 509 q 594 512 587 513 q 606 515 601 511 q 614 526 610 518 q 624 544 618 533 q 635 564 629 555 q 662 568 642 572 q 669 548 662 557 q 676 530 677 538 q 672 517 675 521 q 667 505 669 513 q 663 494 666 498 q 656 483 659 490 q 626 467 637 476 q 594 454 614 457 l 581 442 q 575 431 578 438 q 562 410 571 423 q 571 373 552 396 q 582 340 572 355 q 591 314 591 326 q 590 300 591 302 q 587 291 589 297 q 585 277 585 285 q 584 260 586 269 q 576 248 582 252 q 574 231 571 243 q 564 220 567 227 q 541 182 552 189 q 511 136 533 153 q 502 133 506 133 q 456 84 496 94 q 445 72 449 80 q 424 64 441 64 q 382 52 407 64 q 349 46 368 54 q 317 54 334 52 l 298 52 l 281 56 q 273 57 277 57 q 220 71 251 53 q 197 75 203 75 q 134 103 180 100 q 102 126 117 121 q 80 150 83 137 q 71 172 77 163 q 59 189 58 184 q 54 203 60 193 q 47 220 47 214 q 41 231 47 227 q 39 246 43 239 q 34 263 35 254 q 35 299 37 285 q 39 334 34 313 q 44 365 43 355 q 47 382 45 374 q 52 391 50 389 q 56 400 53 393 q 62 412 58 407 q 68 426 65 418 q 73 439 72 434 q 86 460 75 445 q 99 483 98 475 q 116 499 110 488 q 129 519 122 510 q 147 528 144 528 q 153 530 151 528 q 163 542 161 543 q 167 543 164 541 q 184 553 174 551 q 203 566 194 556 q 221 572 212 570 q 239 582 231 575 q 250 584 245 582 q 262 587 255 586 q 276 597 269 595 q 286 610 283 600 q 277 627 288 620 q 258 651 264 632 q 249 675 252 670 q 247 684 245 681 q 248 692 248 686 l 240 711 l 243 726 q 241 747 243 732 q 242 769 240 762 q 250 781 244 776 q 258 793 255 787 q 260 806 260 799 q 265 821 260 814 q 279 831 270 827 q 299 840 289 836 q 316 848 309 845 q 335 858 323 850 q 359 865 347 865 q 385 870 372 865 q 409 873 399 875 q 427 872 419 871 q 437 868 430 869 q 457 854 445 867 q 480 838 472 846 q 529 849 511 829 q 532 856 532 852 z "},"'":{"ha":220,"x_min":64,"x_max":156,"o":"m 155 905 l 155 864 l 156 846 q 154 835 156 840 q 151 818 152 830 q 149 800 149 806 q 152 779 148 795 q 152 754 156 762 q 144 722 144 742 q 136 686 144 703 q 100 685 117 674 q 79 704 83 696 q 68 728 75 712 q 71 774 71 750 q 64 821 71 798 q 68 833 68 825 l 68 846 l 66 902 l 69 918 l 66 943 q 72 978 66 966 q 76 997 77 990 q 87 1007 80 1004 q 102 1017 95 1010 q 117 1009 104 1019 q 138 986 129 1002 q 145 970 144 970 q 151 945 151 970 q 155 905 148 925 z "},"(":{"ha":454,"x_min":46,"x_max":449,"o":"m 46 536 l 50 555 q 52 578 53 568 q 58 600 52 589 q 62 626 61 608 q 65 655 62 644 q 72 675 68 666 q 81 704 76 684 q 106 760 95 746 q 117 779 117 773 q 119 788 117 784 q 127 796 121 792 q 136 806 133 800 q 143 817 140 811 q 153 823 146 822 q 159 837 156 830 q 163 852 161 844 q 179 864 175 860 q 189 878 186 878 q 195 889 191 878 q 204 905 199 901 q 218 922 209 910 q 245 948 227 933 q 260 963 258 962 q 277 978 267 966 q 295 996 286 990 q 307 1009 304 1002 q 327 1021 323 1021 q 335 1024 331 1021 q 345 1029 339 1027 q 355 1037 350 1032 q 368 1041 359 1042 q 389 1042 377 1040 q 413 1051 400 1044 q 439 1053 426 1058 q 443 1043 439 1046 q 449 1038 446 1040 q 447 1021 450 1027 q 441 1004 444 1015 q 418 1001 435 1001 q 401 992 407 998 q 385 983 396 986 q 380 974 382 979 q 376 964 378 968 q 366 955 369 962 q 354 945 362 948 q 332 898 343 906 q 326 874 332 883 q 323 854 319 865 q 308 835 315 845 q 290 818 301 825 q 279 793 288 803 q 262 772 270 783 q 256 731 264 747 q 246 710 248 715 q 244 701 244 705 q 242 690 244 696 q 236 666 240 684 q 224 639 232 648 q 213 623 217 629 q 212 593 210 608 q 210 570 213 578 q 205 557 208 562 q 199 549 202 553 q 195 540 197 544 q 190 533 194 536 q 191 505 193 526 q 197 476 189 484 q 191 463 194 469 q 187 445 189 456 q 189 422 186 434 q 190 399 193 410 q 193 388 187 389 q 197 380 198 387 q 198 355 199 366 q 201 326 197 345 q 217 281 205 307 q 231 251 229 256 q 233 235 233 245 q 235 217 232 225 q 244 200 244 202 q 246 193 244 198 q 253 182 248 189 q 258 167 258 175 q 273 141 267 156 q 286 113 279 126 q 299 84 290 96 q 311 53 308 72 q 321 45 315 47 q 330 34 328 43 l 346 30 q 378 -4 359 8 q 414 -31 396 -16 q 419 -35 419 -30 q 420 -41 419 -39 q 425 -42 420 -43 q 433 -69 437 -62 q 425 -81 430 -76 q 404 -81 414 -84 q 384 -81 395 -79 q 349 -65 369 -71 q 337 -47 342 -57 q 320 -34 332 -37 q 311 -14 319 -22 q 288 -11 297 -11 q 269 -5 279 -11 q 256 6 259 0 q 242 23 252 12 q 231 37 232 34 q 217 47 217 43 q 205 58 217 50 q 187 84 194 65 q 172 103 178 94 q 156 118 167 113 q 129 164 153 145 q 120 182 126 180 q 111 193 114 184 q 108 211 109 201 q 104 231 107 221 q 96 253 100 241 q 92 273 92 264 q 88 290 91 282 q 82 304 81 300 q 79 314 83 308 q 76 323 75 320 q 72 336 77 326 q 67 355 66 346 q 60 370 68 363 l 60 419 q 58 427 60 423 q 55 439 57 430 q 54 463 53 449 q 54 489 56 476 q 49 513 52 502 q 46 536 46 525 z "},")":{"ha":429,"x_min":11,"x_max":384,"o":"m 254 396 l 251 427 q 255 450 251 438 q 253 490 263 471 q 245 519 243 509 q 248 536 248 529 q 243 572 248 564 q 237 585 239 581 q 237 595 236 590 q 235 608 239 600 l 228 621 q 221 631 225 627 q 219 643 222 637 q 214 654 216 648 q 212 667 212 661 q 209 681 212 673 q 201 699 206 689 q 193 719 195 708 q 178 741 182 728 q 170 765 175 753 q 160 786 164 777 q 156 811 156 795 q 147 823 152 818 q 141 837 142 827 q 133 844 134 836 q 127 854 132 852 q 97 887 102 869 q 92 910 92 905 q 84 921 91 916 q 62 935 69 928 q 49 948 56 941 q 45 958 49 955 q 45 967 42 960 q 18 1007 31 986 q 11 1061 4 1028 q 19 1063 14 1066 q 33 1065 24 1061 q 47 1069 41 1069 q 60 1067 53 1069 q 83 1065 68 1065 q 103 1060 98 1066 q 115 1048 109 1054 q 127 1036 121 1042 q 134 1024 133 1031 q 144 1020 141 1025 q 151 1009 146 1015 q 161 1004 155 1006 q 178 989 168 1001 q 195 970 189 977 q 205 962 202 968 q 216 954 209 956 q 227 933 220 940 q 237 913 235 926 q 245 905 241 907 q 254 898 250 902 q 260 884 259 884 q 264 878 262 884 q 271 867 266 872 q 277 854 275 861 q 283 838 279 848 q 295 817 288 827 q 309 794 302 806 q 320 770 316 783 q 333 736 324 757 q 349 689 342 716 q 369 635 355 662 q 374 592 369 612 q 381 556 380 572 q 381 528 382 540 q 384 506 380 517 q 376 463 370 471 q 380 444 381 454 q 379 429 378 433 q 377 416 380 425 q 376 404 374 408 q 374 389 378 399 q 370 375 370 380 q 369 366 370 370 q 365 358 368 362 q 357 328 357 349 q 349 290 357 307 q 345 271 346 278 q 338 255 343 264 q 332 245 332 250 q 326 241 331 240 q 315 214 323 225 q 303 191 308 202 q 295 179 298 180 q 289 173 292 178 q 285 163 286 168 q 280 149 283 157 q 273 130 277 140 q 255 115 269 119 q 249 102 256 104 q 235 94 241 99 q 225 73 229 83 q 212 56 221 62 q 192 41 195 46 q 182 33 189 35 q 162 20 172 24 q 144 11 152 16 q 132 0 136 5 q 121 -12 127 -5 q 87 -33 102 -19 q 52 -50 73 -46 q 33 -31 41 -45 q 29 -4 26 -16 q 39 11 33 8 q 52 17 45 14 q 63 26 58 20 q 79 33 68 33 q 103 54 95 49 q 117 64 111 60 q 123 75 122 69 q 127 84 125 80 q 159 122 148 99 q 189 164 171 145 l 193 193 l 205 217 q 209 230 208 224 q 216 239 210 236 q 223 270 216 258 q 234 294 231 282 q 239 317 237 307 q 245 340 241 327 q 247 361 248 354 q 254 396 247 374 z "},"*":{"ha":586,"x_min":50,"x_max":524,"o":"m 317 821 l 320 806 q 318 798 320 802 q 317 789 316 793 q 321 781 319 784 q 327 773 324 777 q 338 780 334 774 q 353 793 343 785 q 376 813 362 800 q 406 837 391 826 q 412 845 408 842 q 423 854 419 849 q 434 860 427 860 q 438 865 435 863 q 441 873 441 868 q 458 884 450 876 q 480 904 465 892 q 515 906 495 916 q 514 890 513 897 q 513 879 515 884 q 506 871 511 873 q 502 861 500 868 q 477 841 484 857 q 465 832 469 838 q 453 825 461 826 q 433 803 446 811 q 415 779 420 795 q 388 747 389 773 q 336 701 351 735 q 340 691 335 694 q 351 678 346 688 q 365 664 357 669 q 376 648 373 659 q 394 638 388 646 q 411 627 400 631 q 416 615 414 620 q 422 604 419 610 q 463 566 449 591 q 493 535 480 552 q 521 503 506 518 q 523 490 524 498 q 522 476 522 483 q 511 464 515 469 q 500 456 506 458 q 486 457 494 454 q 469 461 479 460 q 455 481 464 473 q 444 503 446 488 q 415 525 429 518 q 404 543 412 537 q 390 553 395 549 q 381 562 385 557 q 370 566 377 566 q 361 576 368 572 q 349 587 355 581 q 336 600 342 593 q 321 604 330 606 q 310 587 309 601 q 311 570 311 574 l 311 548 q 307 526 305 530 q 304 511 308 522 q 303 492 301 499 q 305 474 305 484 q 299 453 305 464 q 298 431 293 442 q 283 418 290 426 q 229 430 262 392 q 229 441 227 437 q 232 452 232 445 l 229 467 l 240 510 l 236 525 q 238 551 240 545 q 237 563 236 557 q 239 571 237 568 q 243 581 241 574 q 243 596 244 587 q 243 614 243 605 q 234 614 236 618 q 227 606 232 609 q 201 600 206 606 q 187 590 195 594 q 183 584 184 587 q 168 573 182 581 q 144 554 155 566 q 115 536 133 543 q 99 515 109 524 q 73 525 83 515 q 75 541 71 536 q 77 559 80 547 q 92 575 87 566 q 111 587 98 585 q 122 604 117 595 q 153 625 141 620 q 167 643 164 629 q 179 649 176 642 q 194 655 182 656 q 227 694 213 686 q 208 714 214 708 q 191 720 202 720 q 168 743 183 736 q 145 764 152 749 q 136 768 138 765 q 126 773 133 772 q 122 781 123 777 q 118 789 121 785 q 84 827 102 800 q 70 842 75 831 q 54 857 65 852 q 52 873 53 872 q 50 880 50 875 q 57 901 50 884 l 73 895 q 84 897 79 894 q 96 895 90 901 q 113 876 107 882 q 122 864 119 871 q 150 833 137 852 q 176 807 163 815 q 197 784 190 799 q 211 777 205 784 q 224 769 217 769 q 236 772 232 769 q 247 779 240 776 q 248 793 244 785 q 252 836 252 800 q 251 884 252 872 q 256 906 250 895 q 258 939 252 921 q 264 960 264 956 q 265 968 263 963 q 272 976 267 972 q 278 985 277 979 q 315 981 302 987 q 327 941 327 966 q 317 901 327 917 q 321 860 321 868 l 317 821 z "},"+":{"ha":700,"x_min":37,"x_max":661,"o":"m 260 560 q 263 587 263 566 q 267 637 263 609 l 263 658 l 263 675 l 264 705 q 288 743 264 730 q 315 745 298 743 q 331 734 331 747 q 337 718 331 722 q 346 706 343 715 q 347 688 349 697 q 348 664 346 680 q 349 637 350 648 q 353 616 349 625 q 354 594 350 608 l 350 572 l 350 552 l 346 530 q 353 503 347 517 q 359 469 358 488 q 381 462 370 458 q 408 467 392 465 q 444 469 425 469 q 479 473 463 469 q 496 475 495 476 q 502 474 498 473 q 509 476 506 475 q 522 479 513 477 q 549 483 532 481 q 579 487 566 484 q 602 492 593 490 q 618 497 610 495 q 630 500 625 499 q 640 501 635 502 q 648 498 646 500 q 656 496 650 495 q 661 481 658 488 q 661 467 663 473 q 620 441 655 449 q 587 437 606 437 q 560 438 567 437 q 546 438 553 439 q 533 432 538 437 q 517 425 528 427 l 488 422 q 465 416 479 422 q 447 412 452 411 q 432 408 442 412 q 411 404 422 404 q 358 380 400 404 l 361 331 q 357 309 357 315 l 363 259 q 361 247 363 252 q 365 236 359 241 q 355 213 361 224 l 355 180 q 353 161 355 170 q 342 156 346 155 q 335 155 339 157 q 321 144 331 153 q 302 141 312 136 q 290 155 292 146 q 286 174 289 164 q 281 200 281 183 q 285 227 281 217 q 288 245 289 236 l 281 269 q 283 279 281 274 q 282 289 285 285 q 277 308 281 300 q 273 326 274 316 q 274 347 273 336 q 258 391 275 385 q 250 397 252 393 q 244 403 248 400 q 218 410 232 403 q 210 406 213 408 q 196 401 206 403 q 186 397 186 399 q 181 395 186 396 q 170 395 176 393 q 157 396 164 396 l 141 393 q 132 395 136 393 q 119 393 129 396 q 100 389 110 389 q 75 391 90 388 q 46 391 61 393 q 37 420 35 408 q 53 426 43 427 q 98 435 72 425 q 106 433 100 435 q 121 433 113 431 q 140 439 129 435 q 165 444 152 442 l 184 444 q 207 445 202 442 q 220 448 212 448 q 241 446 229 449 q 264 453 254 444 q 267 479 270 467 q 270 507 264 492 q 265 532 263 519 q 260 560 267 545 z "},",":{"ha":267,"x_min":56,"x_max":210,"o":"m 205 111 l 210 49 q 193 -3 213 11 q 190 -14 193 -9 q 189 -24 187 -18 q 170 -46 175 -33 l 159 -68 q 149 -84 155 -77 q 137 -94 144 -87 q 87 -91 106 -107 q 89 -72 88 -80 q 92 -56 90 -64 q 100 -52 96 -53 q 107 -47 103 -50 q 121 -22 114 -31 q 129 -9 129 -12 q 130 -3 129 -5 q 142 19 137 8 q 132 71 157 45 q 62 73 80 49 q 60 83 57 79 q 64 92 64 87 q 61 101 64 98 q 56 109 58 104 q 65 146 54 121 q 136 160 96 175 q 156 165 142 163 q 172 153 164 160 q 187 141 179 146 q 205 111 195 115 z "},"-":{"ha":540,"x_min":83,"x_max":458,"o":"m 262 331 q 246 331 252 334 q 232 326 240 328 q 201 334 217 328 q 174 328 184 339 q 157 328 167 327 q 138 326 146 328 q 115 327 127 320 q 94 334 102 334 q 83 340 85 334 q 94 374 83 357 q 140 381 117 378 q 184 388 164 384 q 201 384 194 388 q 236 391 217 395 q 272 389 255 387 q 303 398 289 392 q 334 407 317 404 q 365 408 350 410 q 397 411 380 407 q 427 412 415 415 q 452 411 438 408 q 458 369 461 393 q 434 347 446 354 q 366 345 393 358 q 319 337 339 331 q 292 342 298 343 q 262 331 286 340 z "},".":{"ha":251,"x_min":52,"x_max":195,"o":"m 103 186 q 116 180 113 184 q 125 171 119 175 q 142 167 137 176 q 166 159 160 164 q 181 144 172 153 q 193 127 190 136 q 195 94 199 110 q 179 50 182 68 q 169 45 172 49 q 161 38 165 41 q 121 38 138 30 q 102 50 103 46 q 91 56 100 54 q 76 60 81 57 q 66 77 73 68 q 65 96 60 85 q 52 109 61 104 q 62 133 60 122 q 71 153 64 144 q 86 170 79 161 q 103 186 94 179 z "},"/":{"ha":407,"x_min":60,"x_max":336,"o":"m 214 750 q 228 787 227 764 q 233 814 229 810 q 240 825 237 818 q 249 873 239 850 q 263 922 259 897 q 279 927 271 924 q 298 934 286 930 q 324 924 311 937 q 333 896 328 907 q 336 867 338 884 q 336 838 334 850 q 326 790 328 827 q 307 735 323 753 q 304 703 308 719 q 300 682 300 686 q 299 673 301 678 q 293 660 297 667 q 286 644 289 652 q 286 632 288 633 q 282 628 283 631 q 282 620 281 625 q 281 611 283 614 q 275 603 279 608 q 268 587 271 598 q 267 555 264 575 q 262 523 269 534 q 257 509 256 511 q 258 505 258 507 q 250 490 250 495 q 250 481 251 484 q 246 474 250 477 q 245 464 243 471 q 239 454 241 460 q 232 444 236 449 q 233 434 231 437 q 236 426 236 431 q 230 410 232 419 q 222 395 228 401 q 224 383 221 387 q 227 370 227 380 q 213 339 220 351 q 203 289 220 317 q 195 237 205 259 q 177 195 184 214 q 167 169 170 175 q 165 157 164 163 q 163 144 165 151 q 158 134 161 138 q 152 122 155 129 q 148 111 149 115 q 137 100 145 103 l 122 94 q 85 86 95 81 q 68 102 76 91 q 60 121 61 114 q 61 134 58 129 q 66 150 64 138 q 72 170 69 161 l 77 187 q 88 208 81 198 q 90 226 85 220 q 96 239 94 232 q 115 338 103 313 q 122 363 114 355 q 135 433 122 399 q 146 482 148 468 q 151 498 145 496 q 160 516 157 499 q 170 563 163 533 q 182 611 178 593 q 190 642 187 629 q 193 659 193 654 q 195 669 194 663 q 201 685 197 675 q 205 699 205 694 q 207 711 205 704 q 213 729 209 719 q 214 750 217 739 z "},":":{"ha":316,"x_min":84,"x_max":227,"o":"m 224 551 l 227 530 q 220 515 220 521 q 208 502 221 505 q 191 496 197 502 q 180 491 184 491 l 165 494 q 155 493 159 494 q 143 496 152 492 q 125 505 134 500 q 106 511 117 510 q 97 522 103 518 q 88 534 91 525 q 88 557 85 544 q 84 581 91 571 q 102 608 87 600 q 128 617 118 617 q 149 610 138 617 q 174 608 164 612 q 198 602 184 605 q 206 593 199 595 q 217 586 213 591 q 224 551 224 567 m 106 73 q 103 134 96 95 q 156 167 130 161 q 168 165 163 170 q 187 153 174 161 q 206 140 201 145 q 216 130 212 134 q 222 122 220 125 q 214 62 222 75 q 195 47 205 50 q 174 47 186 45 q 152 49 161 49 q 135 56 142 49 q 122 64 127 62 q 118 71 117 65 l 106 73 z "},";":{"ha":346,"x_min":65,"x_max":260,"o":"m 260 52 l 259 35 q 225 -20 248 -9 q 222 -27 225 -24 q 221 -37 220 -30 q 198 -64 208 -41 q 183 -77 189 -69 q 170 -90 178 -85 q 157 -96 161 -95 q 149 -99 153 -96 q 126 -90 133 -91 q 123 -81 127 -83 q 118 -73 119 -79 q 120 -60 117 -66 q 123 -46 123 -53 q 137 -34 130 -39 q 146 -18 144 -28 q 183 45 175 14 q 182 53 186 52 q 176 60 178 54 q 149 67 159 73 q 125 62 138 61 q 101 68 113 62 q 79 73 90 73 q 75 94 84 87 q 65 106 66 100 q 71 120 68 114 q 77 134 75 126 q 94 142 88 136 q 107 156 100 149 l 146 165 q 168 164 164 163 q 191 159 176 167 l 205 152 q 212 145 209 149 q 223 138 216 141 q 237 126 231 136 q 250 110 243 117 q 254 81 247 95 q 260 52 260 66 m 243 476 q 207 469 224 475 q 174 469 190 464 q 149 483 157 473 q 127 500 141 492 q 130 560 119 544 q 151 577 142 575 q 161 589 159 579 q 172 591 168 586 q 190 595 176 595 q 217 597 203 594 q 254 572 231 600 q 259 519 267 544 q 243 476 251 494 z "},"<":{"ha":696,"x_min":41,"x_max":628,"o":"m 221 206 q 164 229 206 229 q 143 235 152 229 q 125 244 134 241 q 106 247 115 247 q 88 250 98 247 q 79 256 85 255 q 73 264 72 256 q 63 265 66 262 q 55 270 60 269 q 41 281 50 271 q 49 311 37 308 q 76 320 61 315 q 81 329 80 324 q 85 339 83 334 q 94 345 92 338 q 106 357 96 351 q 119 362 117 362 q 125 366 121 362 q 137 375 130 369 q 155 384 144 381 q 186 405 176 396 q 210 422 195 414 q 239 439 224 430 q 283 473 251 452 q 326 495 315 494 q 349 503 336 496 q 368 515 361 510 q 380 522 376 521 q 389 526 385 524 q 395 531 392 528 q 405 537 397 534 q 431 549 412 540 q 454 564 449 559 q 465 567 458 570 q 479 580 475 581 q 486 583 483 579 q 492 587 488 587 q 507 592 496 587 q 524 598 518 597 q 534 602 529 600 q 551 612 547 613 q 559 614 555 612 q 571 619 564 616 q 588 623 578 623 q 624 613 598 624 q 628 581 636 593 l 618 567 q 610 561 617 564 q 604 553 604 557 q 601 545 604 548 q 572 528 579 529 q 563 522 564 526 q 556 516 562 518 q 549 511 551 514 q 543 502 548 509 q 534 494 533 495 q 505 471 536 487 q 500 465 503 467 q 499 456 498 463 q 490 452 492 456 q 476 442 487 449 q 442 428 465 435 q 407 404 419 420 q 376 393 388 401 q 350 378 365 385 q 336 366 346 373 q 320 360 327 363 q 302 357 313 357 q 292 349 296 354 q 275 347 288 345 q 221 323 258 332 q 210 310 217 313 q 203 297 203 307 q 213 283 203 288 q 231 270 222 278 q 264 260 250 267 q 294 247 278 254 l 311 243 q 318 239 315 240 q 327 235 321 237 q 341 231 332 232 q 355 224 350 229 q 402 209 372 222 q 453 194 433 195 q 467 185 458 187 q 496 172 475 183 q 534 161 518 161 q 560 153 549 160 q 575 151 571 151 q 590 153 579 152 q 603 133 597 144 q 606 102 609 122 q 534 98 562 77 q 507 106 526 104 q 476 111 487 109 q 433 126 454 123 q 384 148 415 142 q 374 160 378 156 q 366 161 368 163 q 355 160 363 160 q 317 178 347 172 q 275 191 286 183 l 247 194 q 237 202 241 197 q 221 206 232 208 z "},"=":{"ha":761,"x_min":95,"x_max":662,"o":"m 530 419 l 511 414 q 479 418 499 420 q 448 423 458 416 q 400 423 416 415 q 384 429 384 431 q 370 431 384 427 q 349 441 357 435 q 321 426 335 437 q 244 424 270 419 q 209 425 218 429 q 191 429 199 420 q 174 441 182 437 q 163 433 167 439 q 146 427 160 427 q 120 439 132 426 q 111 469 109 452 q 119 480 114 476 q 126 491 123 484 q 141 492 134 494 q 157 492 148 490 q 172 499 165 494 q 189 505 179 505 q 203 501 198 506 q 237 496 208 496 q 279 495 269 500 l 297 502 q 351 496 321 496 q 366 499 359 499 l 387 495 q 394 496 389 494 q 403 496 399 498 l 442 491 q 459 494 450 491 q 475 496 468 498 l 518 488 l 536 495 l 595 496 l 639 488 q 650 446 656 475 q 646 441 648 444 q 638 429 644 438 q 630 420 632 419 q 627 419 628 420 q 614 408 625 414 q 589 408 602 403 q 568 414 575 414 q 551 413 562 414 q 530 419 540 412 m 469 254 l 488 251 q 516 253 500 251 q 548 256 532 255 q 577 257 564 258 q 602 264 590 256 q 624 258 613 260 q 646 251 635 255 q 654 237 647 244 q 662 223 662 231 q 659 212 662 216 q 654 201 656 208 l 613 193 l 581 201 q 542 196 562 201 q 511 192 522 191 q 494 191 500 193 q 483 188 487 190 q 471 187 479 186 q 462 187 464 189 q 457 186 460 186 l 437 189 q 413 187 425 189 q 388 193 401 186 q 368 189 377 193 q 345 192 359 186 q 326 199 331 198 q 315 203 321 201 q 279 195 302 195 q 247 209 255 195 q 224 205 236 202 q 193 209 212 208 l 175 212 q 157 205 165 210 q 137 200 149 199 q 118 208 125 201 q 104 218 111 214 q 98 237 102 229 q 95 256 94 244 q 109 262 102 262 q 123 264 115 263 l 152 262 q 160 263 156 262 q 198 264 174 270 q 219 264 213 269 q 232 258 225 259 l 266 262 l 309 262 l 328 256 q 339 258 335 255 q 360 256 345 260 q 387 253 376 252 q 400 254 397 254 l 434 250 q 452 250 444 248 q 469 254 460 252 z "},">":{"ha":724,"x_min":79,"x_max":686,"o":"m 358 484 l 377 481 q 419 460 393 469 q 460 446 445 452 q 499 442 476 439 q 508 433 505 439 q 517 423 511 427 q 527 421 519 423 q 537 423 534 419 q 552 413 545 418 q 574 410 559 408 q 646 378 590 393 q 652 368 648 372 q 659 358 656 365 q 685 339 678 351 q 686 321 685 331 q 684 305 686 312 q 661 293 675 294 q 633 289 646 292 q 611 281 620 286 q 591 279 602 277 q 574 271 582 275 q 556 264 567 266 q 541 254 549 258 q 526 244 533 251 q 502 239 513 245 q 469 228 480 227 q 449 221 457 229 q 437 212 441 213 q 427 209 433 212 q 418 201 422 202 q 412 198 415 201 q 406 193 408 195 q 400 189 403 191 q 338 163 353 182 q 321 160 331 160 q 297 159 311 160 q 265 142 278 151 q 237 126 252 133 q 206 126 221 132 q 186 110 191 121 q 172 106 179 107 q 163 100 165 104 q 118 91 140 100 q 106 94 113 94 q 94 99 100 95 q 91 110 88 103 q 94 125 94 117 q 98 138 95 133 q 103 151 100 144 q 142 157 122 152 q 168 161 163 161 q 186 168 176 161 q 203 175 197 175 q 216 178 210 175 q 230 186 222 180 q 248 191 237 191 q 262 201 256 195 q 297 209 282 205 q 312 217 309 217 q 317 218 315 217 q 329 226 323 225 q 340 229 335 227 q 351 231 346 231 q 366 237 355 231 q 383 242 377 243 q 397 247 389 241 q 413 255 404 252 q 427 267 422 258 q 446 268 435 263 q 465 276 456 273 q 484 283 475 279 q 503 293 492 290 q 519 302 513 296 q 503 332 524 328 q 496 338 498 334 q 488 345 494 342 q 476 347 481 347 q 459 351 471 346 q 443 362 448 357 q 432 370 438 368 q 420 372 426 373 q 406 376 415 370 q 395 381 397 382 q 382 389 393 380 q 338 403 370 397 q 323 414 331 410 q 308 426 316 419 q 294 431 300 426 q 275 433 288 435 q 242 456 266 456 q 208 463 218 456 q 191 468 198 469 q 168 480 183 479 q 109 510 140 518 q 94 519 102 515 q 79 529 85 522 q 94 591 62 568 q 182 564 160 591 q 199 553 187 556 q 220 547 212 551 q 241 540 228 544 q 264 529 255 536 q 273 526 270 530 q 279 529 277 522 q 318 507 296 514 q 358 484 340 499 z "},"?":{"ha":545,"x_min":65,"x_max":506,"o":"m 471 685 l 469 651 q 466 644 469 648 q 456 626 463 639 q 431 600 449 613 q 420 591 420 594 q 414 588 419 589 q 406 584 408 587 q 399 578 403 581 q 390 576 396 576 q 380 572 384 576 q 372 571 377 567 q 363 570 368 575 q 354 566 357 571 q 336 558 351 562 q 316 548 321 555 q 296 545 304 548 q 277 545 288 543 q 261 552 267 547 q 249 559 255 557 q 239 557 243 560 q 229 557 235 555 q 222 484 220 534 l 224 456 l 217 433 l 225 370 l 218 342 q 220 321 218 331 q 220 304 221 311 q 202 264 216 283 q 176 246 189 244 q 161 252 164 248 q 156 264 159 255 q 143 263 148 260 q 132 269 138 266 q 118 313 125 292 q 118 363 111 334 q 127 385 126 380 l 123 411 q 121 437 121 425 q 127 463 121 450 q 122 489 121 475 q 119 518 123 503 l 130 543 q 130 587 126 562 q 131 650 133 612 q 149 716 129 688 q 155 724 152 719 q 164 730 159 728 q 175 728 170 731 q 187 726 180 724 q 213 688 201 697 l 212 670 q 222 640 217 648 q 229 617 227 631 q 255 616 244 614 q 277 610 266 617 q 304 634 294 618 q 330 662 315 650 q 334 679 332 673 q 338 693 335 685 q 343 706 340 701 q 353 724 346 711 q 357 743 359 736 q 362 751 355 749 q 360 798 358 776 q 359 836 362 821 q 353 859 357 852 q 348 874 349 867 q 349 887 347 882 q 348 905 350 892 q 335 932 346 918 q 330 967 324 947 q 319 985 326 978 q 309 1002 312 991 q 298 1015 302 1008 q 288 1028 293 1021 q 271 1034 278 1029 q 258 1042 264 1038 q 218 1038 233 1046 q 182 1029 202 1031 q 170 1014 172 1025 q 159 997 167 1002 q 156 971 156 981 q 148 949 156 962 q 146 899 152 914 q 168 884 153 887 q 194 873 183 880 q 201 849 202 863 q 194 827 201 836 q 157 825 175 802 q 121 836 134 826 q 94 852 109 845 q 80 872 91 868 q 74 895 77 886 q 66 918 71 903 q 66 960 61 933 q 78 998 72 987 q 83 1013 84 1009 q 86 1021 81 1016 q 96 1031 91 1027 q 104 1043 100 1036 q 117 1057 111 1050 q 130 1068 122 1065 q 138 1074 137 1072 q 142 1077 140 1076 q 149 1078 144 1078 q 182 1100 160 1078 q 201 1101 191 1101 q 222 1107 210 1101 q 236 1110 233 1112 q 250 1109 239 1108 q 271 1111 260 1109 q 304 1106 288 1114 q 330 1099 321 1099 q 347 1093 338 1099 q 357 1087 355 1086 q 361 1088 358 1088 q 374 1076 369 1078 q 382 1067 380 1074 q 393 1065 389 1067 q 403 1063 396 1062 q 410 1051 406 1057 q 423 1036 415 1046 q 433 1024 431 1027 q 441 1014 435 1021 q 453 994 448 1006 l 467 968 q 480 943 476 962 q 502 888 484 925 q 503 865 505 878 q 503 838 502 853 l 506 808 q 505 800 507 804 q 503 791 503 795 l 505 772 l 496 738 q 492 720 496 731 q 484 707 487 709 q 479 696 481 704 q 473 688 476 689 q 471 685 471 686 m 103 5 l 106 26 q 113 46 106 39 q 122 62 119 53 q 141 69 133 64 q 160 78 149 75 q 175 82 171 81 q 193 76 179 83 q 222 41 206 69 q 233 -2 233 12 q 212 -33 232 -16 q 199 -36 206 -35 q 186 -39 193 -37 q 176 -44 180 -42 q 165 -49 171 -46 q 150 -40 157 -46 q 130 -28 142 -34 q 111 -15 118 -22 q 105 -1 107 -4 q 103 5 103 1 z "},"@":{"ha":914,"x_min":62,"x_max":872,"o":"m 208 339 l 218 305 q 229 279 218 292 q 239 256 239 267 q 252 239 243 245 q 263 217 262 232 q 278 203 274 213 q 297 193 282 193 q 321 168 307 176 q 349 144 336 159 q 496 106 389 106 q 546 115 525 106 q 576 129 567 125 q 594 134 586 133 q 609 138 602 136 q 631 148 625 149 q 644 146 637 146 q 651 148 650 146 q 671 130 651 151 q 656 85 666 92 q 638 79 647 79 q 623 78 629 80 q 613 74 617 76 q 600 68 609 72 q 589 64 591 64 q 584 64 587 65 q 576 60 581 62 q 568 56 572 58 q 558 55 563 54 q 545 54 553 56 q 528 45 536 52 q 514 38 521 39 l 487 43 q 458 41 479 45 l 420 41 q 411 45 414 41 q 403 52 408 49 l 385 52 q 367 60 376 58 q 347 64 358 61 q 332 69 334 71 q 321 73 330 68 q 286 85 312 79 q 279 99 279 94 q 236 115 245 104 q 216 136 227 125 q 206 144 209 138 q 195 155 203 151 q 186 162 187 159 q 182 170 186 165 q 171 184 179 174 q 154 202 163 194 q 140 216 145 210 q 133 227 136 221 q 121 246 130 232 q 106 278 113 260 q 93 299 99 296 q 83 309 87 302 q 77 351 83 326 q 71 390 72 377 q 62 415 69 403 q 62 452 68 437 q 71 473 64 463 q 82 538 71 521 q 95 564 94 555 q 99 576 96 572 q 103 587 102 581 q 107 601 104 593 q 111 614 110 609 q 127 638 113 620 q 142 661 141 656 q 150 677 142 665 q 168 700 157 690 l 186 719 q 194 729 194 727 q 197 735 194 731 q 205 744 201 739 q 214 753 210 749 q 222 763 218 758 q 229 770 225 768 q 237 775 232 773 q 247 781 243 777 q 254 790 251 785 q 262 800 256 795 q 277 808 269 804 q 289 823 286 812 q 302 829 297 825 q 315 836 308 834 q 331 844 321 838 q 346 855 340 850 q 361 865 351 860 q 372 868 370 869 q 380 869 373 867 q 391 873 387 871 q 407 876 396 875 q 426 882 418 878 q 445 883 437 883 q 461 888 453 883 q 481 889 472 884 q 509 891 491 894 q 517 895 511 894 q 526 901 524 895 q 566 893 555 891 q 580 890 576 895 q 593 884 583 886 q 610 879 604 882 q 629 874 616 876 q 651 867 643 872 q 665 864 659 863 q 697 834 686 868 q 727 812 716 831 q 760 792 747 799 q 779 778 772 785 q 787 765 785 770 q 823 703 792 739 q 827 682 823 692 q 838 660 831 673 q 853 639 844 647 q 854 627 849 632 q 861 614 859 623 q 864 595 864 606 q 867 574 864 585 l 872 557 q 865 515 873 537 q 864 471 857 494 q 846 434 853 454 q 833 401 840 414 q 821 383 826 388 q 817 370 817 378 q 773 331 791 354 q 760 327 766 331 q 746 320 753 323 q 727 315 732 320 q 693 312 716 307 q 677 315 678 311 q 661 309 666 315 q 648 313 655 312 q 637 320 640 315 q 594 334 618 316 q 569 340 587 332 q 543 351 551 349 q 530 354 534 353 q 517 354 525 355 q 502 347 509 353 q 488 338 495 340 q 475 336 480 335 q 452 328 467 336 q 415 328 437 319 q 382 331 392 331 l 355 339 q 347 355 351 347 q 332 365 343 362 q 312 389 330 376 q 313 399 312 395 q 312 408 313 403 q 307 417 311 414 q 302 427 304 420 q 302 439 301 434 q 303 455 302 444 q 302 471 304 467 q 300 490 300 475 q 311 528 300 506 q 323 558 321 549 q 345 581 326 567 q 380 616 359 597 q 389 619 387 616 q 397 621 391 623 q 407 631 400 628 q 425 637 414 633 q 511 656 476 661 l 544 647 q 564 640 560 647 q 574 629 568 632 l 612 631 q 627 594 631 605 q 624 574 624 583 l 627 557 l 621 538 q 626 509 621 515 q 633 491 631 503 q 635 462 635 479 q 643 427 636 445 q 661 398 650 410 q 674 382 671 387 q 684 375 677 377 q 694 376 690 373 q 711 384 699 378 q 741 401 723 389 q 760 415 758 412 q 766 415 761 418 q 779 435 770 426 q 785 460 787 444 q 804 484 800 472 q 813 502 808 495 q 819 515 818 509 l 817 536 q 821 555 817 545 q 824 574 825 564 q 815 593 823 583 q 811 618 807 604 q 804 628 810 625 q 796 636 799 631 q 769 692 789 678 q 760 701 762 694 q 750 709 758 708 q 720 755 739 739 q 704 764 705 762 q 691 771 703 766 q 670 789 680 776 q 653 796 662 795 q 643 808 644 798 q 621 815 628 808 q 602 826 613 822 q 556 836 574 825 q 500 835 529 831 q 453 826 472 838 q 443 828 450 829 q 429 829 435 827 q 392 798 407 815 q 380 793 385 796 q 368 789 376 791 q 355 774 358 779 q 346 765 353 769 q 339 753 339 761 q 328 745 332 750 q 315 736 323 741 q 310 726 312 732 q 305 715 308 720 q 282 700 289 700 q 279 687 285 693 q 271 671 273 681 q 266 656 269 662 q 258 645 263 650 q 250 634 254 640 q 243 622 245 628 q 233 613 241 616 q 229 579 237 594 q 219 553 221 564 q 219 537 217 541 q 221 528 221 533 l 218 513 q 212 478 210 490 q 212 460 213 467 q 208 448 210 453 q 205 434 206 444 q 207 410 203 425 q 203 381 210 395 q 206 368 202 374 q 210 357 210 362 l 208 339 m 452 511 q 450 508 452 511 q 446 505 448 505 q 444 490 444 505 q 439 455 444 475 q 428 427 434 435 q 418 407 422 419 q 428 395 425 401 q 439 387 431 389 q 453 392 449 387 q 463 401 457 397 q 474 411 467 408 q 486 418 481 414 q 491 430 490 423 q 504 462 492 437 q 526 502 515 487 q 525 525 526 513 q 526 549 524 537 q 534 571 529 562 q 540 591 540 581 q 523 597 533 597 q 506 602 513 598 q 493 589 495 594 q 487 581 491 583 q 482 573 488 574 q 475 566 476 572 q 468 551 475 560 q 466 538 467 544 q 463 529 465 533 q 458 522 461 525 q 452 511 456 518 z "},"A":{"ha":830,"x_min":-20,"x_max":928,"o":"m 666 363 l 680 335 l 677 320 q 685 298 685 304 q 690 283 690 286 q 691 275 689 279 q 695 266 693 271 q 701 252 697 260 q 708 234 704 243 q 715 217 712 225 q 720 203 719 209 q 723 191 720 197 q 729 180 726 184 q 736 168 732 175 q 741 154 739 161 q 748 133 743 146 q 759 110 753 119 q 769 92 765 100 q 770 76 766 84 q 777 58 774 68 q 783 35 780 47 q 791 14 787 22 q 795 5 796 7 q 798 -4 795 3 q 812 -19 804 -11 q 828 -29 819 -27 q 843 -28 837 -31 q 857 -30 849 -26 q 902 -23 886 -9 q 927 -53 926 -33 q 916 -79 928 -73 q 892 -88 897 -84 q 880 -87 887 -88 q 866 -87 873 -85 q 850 -94 859 -90 q 829 -106 842 -99 q 802 -107 817 -114 q 779 -121 791 -111 q 767 -122 772 -118 q 756 -127 762 -126 q 744 -128 750 -129 q 730 -127 738 -127 q 708 -134 712 -134 l 674 -142 q 659 -136 666 -141 q 646 -126 652 -130 l 646 -98 q 653 -92 651 -96 q 660 -84 655 -87 q 670 -81 665 -81 q 697 -69 689 -81 q 694 -52 700 -58 q 694 -37 689 -45 q 690 -20 688 -31 q 686 -2 692 -9 q 677 13 680 5 q 675 31 674 20 q 672 50 675 41 q 663 69 669 60 q 655 95 656 79 q 628 101 643 98 q 602 98 613 104 q 591 102 595 99 q 572 109 586 106 q 536 108 557 111 q 498 114 515 104 q 483 111 490 111 l 467 117 q 451 113 460 117 q 431 106 442 109 q 407 106 420 104 q 355 109 377 111 q 313 104 326 102 q 289 101 301 106 q 271 98 277 96 q 260 97 266 99 q 250 87 255 95 q 237 77 244 80 q 228 54 236 65 q 227 43 227 49 q 224 27 228 38 q 222 12 221 16 q 222 3 224 8 q 215 -7 220 -1 q 208 -20 210 -12 q 203 -35 205 -27 q 198 -49 202 -42 q 207 -64 201 -60 q 224 -75 213 -69 q 253 -80 236 -80 q 281 -88 270 -80 q 284 -107 283 -95 q 278 -123 285 -119 q 269 -127 273 -125 q 260 -127 266 -129 l 245 -123 q 229 -124 237 -122 q 212 -123 220 -126 q 201 -117 205 -121 q 193 -111 197 -114 q 178 -111 186 -114 q 163 -111 171 -109 q 151 -114 155 -113 q 144 -117 148 -115 l 123 -114 l 26 -117 q 1 -109 8 -104 q -12 -111 -5 -113 q -18 -104 -12 -104 q -20 -95 -23 -103 l -20 -69 q 14 -66 -4 -65 q 43 -66 31 -68 q 60 -61 56 -64 q 72 -61 65 -58 q 75 -47 76 -54 q 77 -31 73 -41 q 79 -15 81 -20 q 80 -1 76 -9 q 86 18 84 8 q 87 39 88 27 q 95 61 87 52 q 94 68 96 66 q 98 87 91 71 q 109 135 104 104 q 123 191 114 165 q 123 200 122 194 q 121 206 125 206 q 137 263 136 243 q 147 280 142 269 q 149 300 152 292 q 155 305 155 301 q 159 312 156 309 q 165 370 164 343 q 180 416 167 396 l 180 442 q 193 477 195 464 q 202 524 190 499 q 206 538 203 534 q 212 545 209 541 q 214 566 212 552 q 222 595 222 587 q 224 618 221 602 q 235 652 227 633 q 244 690 243 671 q 254 715 250 701 q 262 743 258 730 q 271 768 267 755 q 285 791 274 780 q 290 809 288 800 q 294 826 292 818 q 303 844 304 840 q 308 861 302 848 q 313 884 313 873 q 324 901 324 891 q 328 921 324 911 q 337 932 338 930 q 340 939 336 935 q 353 952 345 944 q 365 970 361 960 l 368 991 q 414 1015 389 1020 q 430 993 430 1009 q 433 985 430 989 q 445 966 442 977 q 456 943 448 956 q 471 927 465 930 q 480 914 476 924 q 489 896 484 905 q 498 878 494 887 q 502 855 502 869 q 515 836 502 841 q 521 823 519 823 q 525 817 522 823 q 536 788 529 807 q 534 761 543 769 q 542 748 541 757 q 544 730 543 739 q 549 715 551 719 q 567 690 552 708 l 567 674 q 580 645 574 658 q 585 625 586 632 q 586 610 583 618 q 593 593 589 601 q 595 575 598 585 q 604 561 600 567 q 608 550 608 555 q 614 536 609 545 q 618 522 618 526 q 624 509 618 517 q 629 494 629 500 q 632 474 628 487 q 632 449 636 461 q 642 433 642 437 q 646 420 642 429 q 654 408 650 411 q 658 392 658 406 l 666 363 m 547 496 l 536 529 l 529 563 q 525 577 529 571 q 522 588 521 583 q 521 599 522 593 q 518 611 519 605 q 517 623 517 617 q 515 635 518 629 q 507 648 513 642 q 500 663 502 655 q 500 675 499 670 q 500 686 500 680 q 483 738 483 707 q 471 749 475 741 q 457 761 468 758 q 458 776 458 772 q 456 791 458 780 q 433 793 439 796 q 421 768 426 781 q 412 746 416 754 q 408 733 408 738 q 407 719 408 728 q 400 709 400 712 q 394 694 400 707 q 387 661 388 681 q 380 653 384 656 q 375 640 376 650 q 372 627 374 629 q 369 618 370 624 q 368 604 368 613 q 363 579 369 595 q 352 549 358 563 q 346 519 346 536 q 331 475 334 510 q 332 469 327 472 q 333 460 336 465 q 326 452 330 456 q 321 442 321 449 q 318 427 317 437 q 314 405 319 416 q 307 391 309 393 q 305 382 304 388 q 306 376 307 377 q 303 369 305 376 q 296 355 301 362 q 290 336 290 347 q 287 313 289 326 q 285 286 285 301 q 277 271 278 279 q 273 252 277 263 q 269 236 269 240 l 255 195 q 254 186 255 191 q 264 173 262 172 q 270 169 266 174 q 280 164 274 164 q 291 162 286 164 q 298 157 296 160 q 317 156 305 153 q 338 155 330 159 q 353 149 347 151 q 408 155 380 156 q 463 163 437 155 q 470 159 468 161 q 481 155 472 157 q 503 156 490 153 q 530 159 515 159 q 567 153 563 153 l 593 156 l 614 151 q 636 168 636 155 q 632 179 637 175 q 626 191 627 183 q 622 203 625 198 q 616 216 618 209 q 614 242 614 224 q 597 286 614 260 q 597 304 601 293 q 597 323 593 315 q 581 388 583 340 q 570 406 574 396 q 560 433 567 415 q 553 465 553 452 q 547 484 553 477 l 547 496 z "},"B":{"ha":697,"x_min":-15,"x_max":647,"o":"m 624 357 l 633 317 l 632 302 l 632 285 q 625 232 632 247 q 616 203 618 217 q 606 184 605 193 l 594 171 q 585 156 587 165 q 568 142 571 151 q 556 127 564 133 q 549 118 548 122 q 544 107 549 114 q 519 89 526 95 q 506 77 513 83 q 471 72 492 83 q 463 62 468 69 q 450 55 458 56 q 438 50 442 54 q 406 52 422 58 q 384 34 391 45 q 374 33 377 35 q 369 34 372 31 q 353 25 362 26 q 330 21 345 24 q 313 14 316 18 q 304 4 309 9 q 287 1 293 4 q 271 -4 281 -1 q 214 -18 247 -18 q 208 -23 209 -19 q 197 -28 206 -27 q 178 -28 189 -30 q 159 -31 168 -26 q 103 -31 127 -39 q 99 -13 99 -20 q 102 4 99 -5 q 114 12 113 9 q 136 18 117 16 q 183 39 155 20 q 181 53 179 46 q 177 81 183 60 q 170 130 171 103 q 157 175 168 157 q 157 201 160 189 q 155 229 155 213 q 146 264 155 244 q 140 324 141 298 q 143 334 141 331 q 142 339 145 336 l 142 374 q 137 420 142 401 q 133 446 132 438 q 131 469 134 453 q 130 506 127 486 q 121 523 121 517 q 121 539 121 529 q 119 558 122 549 q 117 589 117 567 q 114 632 118 610 q 117 665 110 654 q 117 696 111 685 q 110 741 113 703 l 107 760 l 102 784 l 99 808 q 100 823 98 815 q 102 837 102 830 l 99 856 q 98 890 100 879 q 96 910 96 901 l 94 926 l 91 948 q 95 966 91 954 q 92 1025 96 991 q 85 1031 90 1031 q 77 1038 80 1032 q 56 1035 66 1035 l 35 1035 q 19 1034 24 1038 q 7 1033 14 1031 q -4 1038 0 1035 q -12 1042 -8 1040 l -15 1059 q 0 1077 -12 1074 q 24 1082 12 1080 q 43 1085 37 1085 q 55 1089 49 1085 q 66 1097 61 1093 q 81 1095 71 1100 q 96 1092 91 1090 q 111 1093 100 1093 q 155 1107 142 1090 q 250 1120 222 1120 q 283 1118 278 1120 l 301 1120 q 328 1114 317 1112 q 347 1115 338 1116 q 372 1107 357 1114 q 393 1103 388 1101 q 410 1101 399 1104 q 431 1095 420 1097 q 449 1088 441 1092 q 466 1079 457 1085 q 487 1069 475 1073 q 492 1062 488 1063 q 507 1050 496 1061 q 525 1039 518 1040 q 530 1030 528 1035 q 536 1021 533 1025 q 553 1008 547 1015 q 571 997 560 1001 q 584 975 575 986 q 600 951 593 963 q 608 929 602 935 q 616 918 613 924 q 620 906 618 911 q 623 892 621 901 q 631 869 625 883 q 638 845 637 856 q 640 826 639 834 q 642 812 642 818 q 645 790 643 807 q 646 755 647 773 q 647 727 644 738 q 637 702 639 718 q 634 676 636 686 q 629 664 632 666 q 628 655 625 662 q 608 631 614 647 q 590 604 602 614 q 557 575 564 587 q 533 556 549 563 q 513 545 517 549 q 502 533 509 540 q 489 526 495 526 q 484 518 483 526 q 490 513 486 511 q 498 511 495 514 q 511 502 500 507 q 526 494 521 496 q 538 489 530 492 q 553 481 545 486 q 571 469 560 476 q 582 454 575 460 l 594 442 q 611 412 609 422 q 620 393 613 403 q 619 382 620 387 q 621 372 618 378 q 624 357 624 365 m 267 559 l 274 537 q 272 523 269 530 q 278 509 275 515 q 297 510 289 506 q 317 517 305 514 q 335 520 328 521 q 349 522 342 519 q 364 532 362 533 q 370 534 366 532 q 377 538 374 536 q 387 540 380 541 q 400 552 397 551 q 410 561 403 553 q 420 569 416 568 q 427 572 425 570 q 438 583 434 583 q 463 617 453 602 q 486 643 472 632 q 488 655 486 650 q 509 699 496 667 q 524 732 521 730 q 528 760 528 741 l 528 780 q 526 814 528 796 q 525 838 524 833 q 523 852 526 844 q 521 863 519 861 q 522 869 522 865 q 511 884 514 876 q 505 899 509 891 q 500 909 502 906 q 496 920 498 913 q 493 939 494 928 q 488 957 492 949 q 475 970 484 964 q 462 983 467 977 q 454 995 457 989 q 441 1014 452 1001 q 429 1029 431 1027 q 419 1037 427 1032 q 406 1042 411 1042 q 392 1046 400 1042 q 377 1042 385 1039 l 358 1047 l 338 1047 q 323 1050 331 1047 q 296 1042 315 1054 q 270 1027 279 1035 q 256 1017 260 1019 q 247 999 255 1006 q 236 981 239 991 l 241 954 q 241 947 243 951 q 240 931 240 943 q 244 903 240 920 q 252 852 252 871 l 252 838 q 256 814 256 822 l 256 712 l 259 669 l 259 654 q 263 623 263 635 q 267 596 263 612 q 267 559 271 581 m 346 465 q 328 458 339 465 q 311 456 319 458 q 298 453 302 453 q 294 441 300 446 q 290 430 289 437 q 287 418 290 423 q 285 410 283 412 q 279 395 286 407 q 277 366 273 384 q 285 323 282 347 q 287 285 288 300 q 288 267 286 270 q 292 254 290 263 q 292 232 293 244 q 292 211 290 220 q 296 199 294 202 q 300 172 304 190 q 302 136 297 153 q 301 125 302 130 q 304 109 300 121 q 311 90 308 98 q 343 100 339 96 q 361 103 351 103 q 378 106 370 103 q 392 112 385 109 q 407 117 399 115 q 418 130 411 125 q 431 141 425 134 q 446 138 435 141 q 454 152 449 148 q 465 160 460 156 q 473 174 468 165 q 480 184 481 182 q 483 189 479 187 q 505 244 509 227 q 505 255 503 250 l 509 293 q 511 305 510 300 q 513 313 513 311 l 506 358 q 502 367 506 363 q 496 382 498 370 q 492 393 494 395 q 491 400 491 391 q 478 408 484 400 q 463 420 472 415 q 448 431 454 425 q 433 438 442 437 q 416 448 425 439 q 404 455 408 457 q 391 456 399 453 q 374 460 384 458 l 346 465 z "},"C":{"ha":876,"x_min":49,"x_max":853,"o":"m 380 53 l 335 64 q 301 81 323 76 q 288 94 298 92 q 271 103 278 96 q 252 106 264 106 q 235 113 240 106 q 212 132 229 121 q 188 156 195 144 q 176 172 180 168 q 168 180 172 175 q 159 190 164 186 q 157 199 160 197 q 157 210 155 202 q 139 236 148 224 q 126 266 130 248 q 100 299 103 286 q 87 321 96 312 q 73 342 77 331 q 70 367 69 353 q 66 399 71 381 q 60 418 60 414 q 60 429 61 423 q 58 441 60 434 q 52 459 56 448 q 49 475 47 471 q 50 488 50 480 q 50 511 50 496 q 51 560 49 526 q 56 621 53 594 q 60 661 60 648 q 66 692 58 678 q 75 715 75 705 q 81 735 75 726 q 86 749 87 745 q 94 764 85 753 q 102 781 103 776 q 108 795 102 787 q 116 808 114 803 q 125 822 118 812 q 135 836 133 831 q 142 848 137 841 q 151 859 146 856 q 161 871 155 863 q 171 879 168 879 q 190 907 182 879 q 198 912 193 910 q 208 917 203 914 q 221 933 213 926 q 236 949 229 940 q 269 977 244 959 q 283 988 281 989 q 292 995 285 987 q 309 1004 300 1002 q 326 1010 317 1005 q 338 1020 334 1016 q 352 1029 342 1024 q 370 1037 362 1035 q 386 1041 378 1039 q 397 1043 393 1043 q 408 1044 401 1043 q 417 1048 414 1046 q 426 1053 420 1051 q 438 1055 431 1055 q 466 1059 445 1054 q 502 1061 487 1063 q 530 1059 517 1059 q 552 1055 544 1059 q 568 1050 560 1051 q 585 1049 576 1048 q 600 1048 594 1050 q 610 1043 605 1046 q 636 1031 629 1034 q 660 1018 643 1029 q 697 1002 677 1006 q 722 998 718 998 q 730 993 727 997 q 738 993 732 989 q 751 1017 749 998 q 762 1025 755 1023 q 770 1035 768 1028 q 787 1039 783 1034 q 803 1042 791 1044 q 817 1018 812 1032 q 827 991 821 1004 q 826 982 826 986 q 825 974 826 978 l 822 939 q 822 913 827 922 q 814 898 817 903 q 813 888 812 892 q 811 875 814 883 q 810 862 808 867 q 810 851 811 857 q 808 833 810 845 q 808 806 806 821 q 798 783 802 795 q 785 765 793 772 q 766 766 769 768 q 746 762 762 764 q 742 770 742 766 q 735 776 742 773 q 730 791 734 785 q 724 810 726 798 q 727 841 722 822 q 730 880 732 860 q 716 901 719 890 q 689 921 699 918 q 676 927 680 924 q 671 935 673 930 q 658 944 670 939 q 632 948 646 949 q 619 962 628 958 q 602 970 610 966 q 591 975 594 974 q 582 978 587 975 q 548 982 562 977 q 523 987 534 987 q 505 992 511 987 q 494 994 498 997 q 484 991 490 991 l 465 997 l 446 994 q 438 993 441 993 q 414 985 431 996 l 399 978 q 377 960 393 971 q 350 947 361 949 q 340 932 349 936 q 328 924 332 929 q 321 913 323 918 q 317 901 320 907 q 309 887 313 895 q 300 874 305 879 q 293 865 296 869 q 283 861 290 860 q 254 808 277 831 q 253 800 252 804 q 251 790 254 796 q 248 772 248 784 q 246 749 248 760 q 241 733 244 739 q 237 721 239 727 q 237 711 235 715 q 233 682 239 707 q 228 621 227 656 q 217 556 229 586 q 224 485 228 500 q 222 458 221 469 q 229 422 231 438 q 237 378 227 406 q 253 333 248 350 q 262 306 258 316 q 267 291 267 296 q 271 281 267 286 q 280 268 274 275 q 292 250 286 260 q 300 239 297 239 q 310 227 302 239 q 334 197 317 214 q 362 165 351 180 q 398 146 380 157 q 431 129 416 134 q 450 124 445 123 q 464 121 456 125 q 487 111 472 118 q 562 100 541 84 q 591 105 578 110 q 618 106 604 100 q 644 117 633 113 q 663 124 655 121 q 678 130 671 127 q 692 134 685 132 q 725 159 713 149 q 739 183 736 168 q 753 190 749 184 q 764 201 757 195 q 771 211 769 212 q 775 213 773 210 q 781 224 777 216 q 790 235 785 232 q 798 241 795 239 q 814 259 802 250 q 837 262 827 269 q 852 229 849 248 q 852 199 856 210 q 822 174 848 189 q 812 157 821 165 q 798 143 803 149 q 789 132 793 137 q 776 118 785 126 q 760 104 766 110 q 747 93 753 99 q 737 84 742 87 q 726 81 732 81 q 709 77 719 81 q 686 64 699 73 q 652 56 674 56 l 628 42 l 616 42 q 606 45 609 42 q 590 35 593 34 q 577 32 587 37 q 547 27 567 27 q 509 28 528 27 q 482 31 491 30 q 465 26 473 31 q 458 31 461 28 q 450 36 456 33 q 437 41 445 39 q 424 45 430 42 q 414 50 418 47 q 406 54 411 53 q 392 54 401 54 q 380 53 382 54 z "},"D":{"ha":830,"x_min":0,"x_max":785,"o":"m 235 104 l 201 110 q 191 103 194 110 q 178 96 187 96 q 164 92 168 96 q 125 89 145 99 q 92 77 104 79 q 66 84 80 75 q 68 108 64 99 q 73 132 72 117 q 84 134 79 134 q 99 138 90 133 q 112 141 109 142 q 119 142 115 140 q 136 147 123 144 q 151 159 149 151 q 163 159 160 156 q 172 163 165 163 q 172 180 176 172 q 167 193 168 187 q 166 205 165 199 q 165 220 167 210 q 164 251 164 231 q 162 272 161 259 q 161 292 163 285 q 159 305 159 298 l 163 326 l 155 361 q 155 380 153 370 q 155 400 156 391 q 153 418 155 410 q 151 437 152 427 l 149 454 q 149 490 152 468 q 145 521 145 511 l 138 586 l 137 601 l 140 624 q 137 658 140 642 l 138 680 q 133 704 132 699 q 134 718 134 709 q 132 738 134 727 l 126 773 q 125 789 126 781 q 122 836 127 814 l 118 854 l 121 873 l 118 920 q 115 949 115 933 q 117 974 115 964 q 113 994 119 983 q 116 1015 119 1005 q 117 1039 113 1024 q 109 1052 110 1048 q 91 1055 107 1055 l 72 1057 q 62 1053 66 1055 q 1 1054 43 1046 q 0 1083 0 1069 q 15 1104 0 1097 q 42 1109 31 1109 q 71 1112 53 1108 q 109 1116 88 1116 q 134 1115 126 1111 q 150 1113 144 1115 q 169 1113 156 1111 q 190 1113 182 1115 q 204 1112 198 1111 q 217 1115 210 1112 q 229 1120 224 1118 q 246 1121 233 1122 q 265 1120 259 1120 q 277 1119 271 1119 l 285 1119 q 343 1111 286 1119 l 365 1112 q 423 1104 392 1109 q 450 1099 441 1104 q 467 1093 458 1095 q 484 1090 476 1090 q 501 1086 491 1090 q 528 1070 511 1082 q 552 1057 545 1058 q 565 1054 559 1057 q 576 1044 571 1051 q 589 1038 582 1038 q 632 1000 601 1012 q 644 985 637 987 q 651 976 648 977 q 659 969 654 975 q 670 958 663 963 l 682 944 q 698 923 694 932 q 710 905 701 914 q 722 889 719 895 q 725 878 726 883 q 727 868 724 872 q 739 846 738 852 q 742 836 739 841 q 747 827 745 830 q 751 821 750 825 l 755 800 q 757 790 757 795 q 760 778 757 785 q 765 762 762 770 q 767 744 768 753 q 772 726 766 735 q 780 698 779 716 q 785 663 781 680 q 780 650 780 656 q 781 637 780 644 q 782 627 783 631 q 784 604 781 623 q 776 541 787 585 q 761 490 765 498 q 758 475 757 483 q 751 456 758 468 q 743 437 745 444 q 735 423 742 430 q 724 408 727 410 q 717 396 722 407 q 707 381 712 385 q 699 373 701 377 q 697 359 697 365 q 693 350 697 353 q 686 343 693 342 q 667 316 671 346 q 650 306 654 305 q 643 303 646 307 q 638 294 640 300 q 633 283 636 288 q 615 275 623 281 q 597 267 608 270 q 589 258 593 263 q 581 250 585 252 q 566 243 570 247 q 560 236 563 239 q 540 231 548 236 q 483 205 505 209 q 465 195 476 197 q 448 183 454 193 q 437 184 441 186 q 430 183 434 183 q 417 175 427 179 q 404 167 407 171 q 379 156 396 157 q 342 141 362 155 q 292 121 300 127 l 271 122 q 254 113 264 115 q 235 104 243 110 m 549 339 l 564 354 q 572 362 564 355 q 582 374 581 369 q 587 386 583 380 q 595 397 590 392 q 605 414 600 403 q 614 431 610 425 q 621 447 618 438 q 625 462 623 456 q 629 477 627 468 q 646 530 639 526 q 651 574 647 548 l 648 589 q 652 609 652 605 l 648 639 l 651 658 q 648 681 648 669 q 645 701 647 693 q 645 711 643 708 q 646 721 647 713 q 644 732 644 728 l 644 743 q 637 772 644 754 q 631 801 631 791 q 629 816 631 811 q 627 826 628 821 q 622 842 625 831 q 615 859 618 853 q 608 874 612 864 q 602 889 605 884 q 600 901 598 894 q 576 926 586 906 q 552 956 566 947 q 550 968 552 963 q 547 977 548 972 q 526 998 533 983 q 513 1005 518 1001 q 500 1012 507 1009 q 473 1021 491 1021 q 450 1044 461 1039 q 435 1043 439 1048 q 412 1047 422 1048 q 376 1050 396 1043 q 326 1057 355 1057 l 307 1058 q 283 1057 292 1058 q 262 1054 274 1055 q 250 1044 259 1044 q 239 1034 241 1043 q 236 1023 235 1028 q 240 929 252 974 q 245 913 247 922 q 245 896 244 903 q 248 884 247 888 q 251 870 250 880 q 252 845 252 860 q 254 819 252 830 q 259 798 256 807 q 263 780 262 789 q 264 763 264 770 q 267 745 263 755 q 269 728 270 734 q 269 715 269 722 q 271 700 270 708 q 274 685 271 692 q 278 670 277 678 q 282 655 279 662 q 281 634 279 644 q 282 621 282 624 l 282 602 q 292 538 292 551 q 290 521 292 526 q 300 464 296 502 l 297 423 q 300 406 301 410 q 300 392 298 401 q 300 375 301 382 q 301 351 298 368 q 304 332 304 334 l 301 312 q 302 300 300 307 q 302 281 304 294 q 300 263 300 267 l 301 247 l 298 228 q 301 212 298 221 q 301 191 304 202 q 351 208 323 191 q 382 223 378 224 q 394 229 385 222 q 406 234 403 235 q 420 239 410 233 q 435 248 430 245 q 450 257 441 250 q 461 263 458 264 q 477 271 464 263 q 507 294 499 289 q 516 302 514 300 q 523 309 518 305 q 530 319 528 313 q 537 331 533 326 q 549 339 549 338 z "},"E":{"ha":680,"x_min":57,"x_max":654,"o":"m 255 917 q 262 854 262 901 q 266 831 266 834 l 263 806 q 269 761 263 804 q 268 737 266 747 q 269 719 270 727 l 266 693 q 269 674 266 684 q 264 655 271 665 q 271 635 269 639 q 264 602 264 618 l 269 567 l 262 532 l 266 481 q 259 438 259 448 q 261 414 259 429 q 261 393 263 400 q 262 380 259 387 q 278 372 267 370 q 302 370 289 373 q 321 369 315 368 q 334 369 327 370 l 359 366 l 388 369 q 408 368 399 370 q 425 366 416 365 q 437 397 437 377 q 442 437 437 418 q 486 439 449 444 q 497 406 496 430 q 499 353 498 381 l 500 327 q 502 320 500 324 q 502 306 503 316 q 502 290 500 296 q 502 276 503 285 q 502 264 500 267 q 502 255 503 262 q 491 237 500 248 q 473 225 481 225 q 461 227 464 225 q 455 232 458 229 q 448 238 452 235 q 437 241 445 241 q 427 270 434 260 q 423 300 420 279 q 382 307 403 307 q 342 304 361 307 q 313 304 324 302 q 292 302 301 305 q 275 296 282 298 q 258 290 267 293 l 258 247 l 251 164 l 255 132 q 251 114 255 123 q 248 98 247 104 q 253 86 250 91 q 258 76 256 81 q 271 73 264 73 q 283 72 278 73 q 293 68 289 71 q 301 66 297 66 l 321 68 l 340 66 l 376 73 q 410 77 385 69 l 453 72 l 469 75 q 486 73 477 75 q 500 76 494 71 q 528 69 511 68 q 560 68 545 71 q 579 85 567 69 q 582 100 582 95 q 587 114 582 106 q 596 129 591 122 q 606 142 601 136 q 621 151 610 149 q 640 140 632 152 q 647 121 647 129 q 648 108 647 113 q 644 91 648 103 q 642 73 640 79 q 639 55 643 66 q 636 35 635 43 q 636 14 637 26 q 637 -4 635 3 q 638 -18 639 -11 q 635 -33 637 -24 q 632 -47 633 -41 q 612 -60 620 -54 q 586 -64 605 -66 q 575 -49 579 -57 q 566 -34 571 -41 q 566 -17 564 -26 q 564 -4 567 -8 q 547 7 551 5 q 538 10 543 8 q 526 11 533 12 q 514 18 518 9 q 498 16 507 15 q 481 14 488 16 q 473 16 475 11 q 461 18 471 20 q 440 6 448 8 q 429 -1 433 4 q 415 5 422 1 q 401 10 408 9 q 387 8 393 11 q 370 7 381 5 q 356 7 359 9 q 350 5 353 5 l 335 8 l 308 1 l 288 3 l 267 8 q 224 -1 237 8 q 201 -12 212 -11 l 183 -11 q 174 -18 178 -12 q 165 -24 171 -24 q 146 -18 160 -24 q 119 -12 132 -11 q 92 -16 107 -12 q 62 -16 77 -19 l 60 0 q 72 33 54 23 q 97 42 80 37 q 121 56 114 47 l 117 76 q 117 91 115 81 q 113 114 119 100 l 121 132 l 119 148 l 122 164 q 118 199 122 179 l 117 214 l 119 235 q 117 290 119 260 l 125 361 q 119 381 125 372 q 120 394 118 388 q 122 404 122 400 q 118 425 122 408 l 121 465 q 116 505 114 488 q 118 536 118 521 l 117 708 l 117 758 l 119 783 l 117 818 l 119 838 l 118 861 l 115 888 q 115 916 113 907 q 117 935 118 924 q 105 949 113 945 q 87 958 98 954 q 73 967 77 963 q 62 972 68 971 q 59 991 64 982 q 57 1010 54 1000 q 92 1019 65 1019 q 129 1028 119 1019 q 138 1026 136 1029 q 147 1023 140 1023 q 163 1022 155 1024 q 178 1023 171 1020 q 199 1020 191 1020 q 211 1023 206 1020 q 222 1027 216 1025 q 238 1025 228 1028 q 269 1024 248 1023 q 305 1023 289 1025 q 326 1022 321 1020 q 335 1025 330 1024 l 358 1027 q 381 1023 378 1023 q 388 1024 384 1023 q 397 1027 392 1025 q 406 1027 401 1028 q 414 1032 411 1025 q 429 1023 418 1028 q 448 1025 438 1027 q 473 1022 458 1023 q 494 1024 488 1021 q 511 1028 500 1027 q 532 1028 521 1029 q 551 1031 544 1027 q 566 1072 563 1051 q 576 1103 568 1092 q 614 1108 604 1112 q 627 1092 624 1095 q 639 1060 636 1085 q 654 1019 642 1035 q 650 994 650 1008 q 643 974 651 981 q 647 954 644 963 q 647 930 650 944 q 642 918 640 918 q 643 907 643 918 q 642 884 643 895 q 639 860 640 872 q 606 841 628 845 q 571 845 583 833 q 564 848 568 846 q 556 853 559 850 q 557 867 559 860 q 554 880 555 875 q 555 890 553 886 q 553 911 556 895 q 554 932 551 928 q 551 951 557 937 q 532 955 543 955 q 503 952 522 955 q 472 956 483 949 q 463 953 469 951 q 453 949 456 955 q 431 956 442 958 q 410 956 420 954 l 391 962 l 378 962 q 355 957 361 962 q 331 952 349 952 l 298 947 q 289 939 292 940 q 255 917 274 936 z "},"F":{"ha":628,"x_min":4,"x_max":610,"o":"m 130 616 l 121 673 q 122 684 121 680 q 121 696 123 689 q 117 711 119 703 q 115 736 114 719 q 113 759 115 754 q 111 769 111 764 l 113 785 l 106 841 q 107 853 109 852 q 106 863 106 854 q 109 879 107 871 q 107 892 110 887 q 95 901 104 898 q 54 905 75 905 l 39 905 q 22 906 31 906 q 7 909 14 906 q 4 929 4 914 q 7 951 4 944 q 61 962 28 964 q 100 960 94 960 l 208 962 l 227 964 l 243 960 q 285 960 264 955 q 306 963 305 964 q 309 962 307 962 l 335 972 l 350 970 l 396 977 l 445 971 l 487 967 q 496 969 492 967 q 507 972 500 971 q 521 972 513 974 q 536 974 529 971 q 552 1043 544 990 q 585 1055 578 1063 q 595 1042 591 1047 q 597 1033 598 1036 q 601 1020 597 1029 q 604 1006 605 1010 q 602 997 602 1002 l 608 949 l 609 879 l 609 841 q 610 818 609 823 q 603 808 606 812 q 593 800 600 803 q 576 788 587 793 q 559 793 566 783 q 541 838 549 795 q 528 885 533 880 q 516 894 522 890 q 505 905 510 898 q 477 909 490 906 q 449 905 464 913 q 422 914 437 914 q 395 913 407 914 q 375 913 384 913 q 351 912 366 914 q 331 907 335 910 q 313 905 327 905 q 275 899 298 906 q 237 876 251 891 q 245 851 239 861 q 252 823 252 841 q 254 796 252 806 q 256 777 255 787 q 258 759 258 768 q 260 743 258 750 q 264 730 262 735 q 267 715 266 726 q 269 684 269 704 q 271 650 269 663 q 277 632 274 637 q 278 614 279 627 q 279 599 277 602 q 281 593 281 595 l 279 563 l 288 513 l 289 471 q 294 412 289 433 q 300 380 298 392 q 314 370 313 372 q 319 366 315 368 q 328 368 323 365 q 336 365 334 372 q 347 368 342 368 q 358 370 353 368 q 399 368 377 363 q 444 374 420 373 q 452 393 452 381 q 457 415 453 406 q 480 446 467 446 q 498 434 494 448 q 513 412 503 420 q 511 399 509 406 q 513 378 514 392 q 516 347 513 365 q 522 313 519 330 q 518 286 525 296 q 506 267 511 277 q 498 256 500 258 q 472 251 479 251 q 459 257 465 251 q 455 272 453 263 q 454 286 457 281 q 451 298 452 290 q 448 315 450 307 q 412 313 425 319 q 393 305 400 307 l 370 309 q 301 286 347 309 q 305 247 305 262 l 305 220 q 308 183 305 193 q 309 162 311 174 q 307 143 307 151 q 309 125 307 136 q 310 96 308 102 q 312 80 312 90 q 311 59 312 71 q 313 37 311 47 q 338 30 320 30 q 352 35 349 37 q 361 34 355 33 q 371 39 366 35 q 386 41 376 43 q 404 30 396 39 q 408 7 411 20 q 387 -11 404 -4 q 378 -12 382 -14 q 349 -14 374 -9 q 278 -19 324 -18 q 210 -22 232 -20 q 178 -28 189 -24 q 159 -31 168 -31 q 144 -29 151 -31 q 128 -30 138 -27 q 111 -23 118 -33 q 108 -5 103 -14 q 117 5 113 4 q 125 8 121 5 q 135 14 129 11 q 144 19 141 16 l 168 19 q 171 96 178 49 q 164 156 164 142 l 165 183 l 160 209 q 159 250 161 235 q 155 350 155 271 l 141 555 q 138 589 141 575 q 130 616 130 606 z "},"G":{"ha":719,"x_min":52,"x_max":700,"o":"m 627 930 l 620 871 q 606 863 613 868 q 572 859 590 845 q 562 872 566 869 q 562 886 557 875 q 551 893 562 887 q 539 906 540 899 q 537 913 538 913 q 527 923 536 914 q 516 931 518 932 q 513 930 514 930 q 505 945 506 943 q 496 949 505 947 q 485 957 487 952 q 474 963 483 962 q 460 964 465 964 q 445 972 456 963 q 427 973 431 975 q 416 968 423 971 q 406 966 412 970 q 399 967 400 963 q 378 960 385 960 q 355 954 372 960 q 327 946 339 947 q 304 935 315 945 q 290 921 294 924 q 281 916 285 918 q 277 908 278 913 q 273 901 275 903 l 254 875 q 244 871 251 872 q 235 867 237 871 q 230 852 232 856 q 226 844 228 849 q 223 831 224 840 q 220 816 222 822 q 213 806 217 810 q 205 795 209 802 q 201 765 205 777 q 199 743 197 753 q 197 731 202 734 q 194 716 199 726 q 194 684 184 703 q 191 636 187 662 q 197 583 194 610 l 191 538 q 205 459 194 505 q 218 407 217 414 q 222 393 220 400 q 227 378 224 387 q 233 365 231 370 q 240 349 235 359 q 250 325 245 330 q 260 311 254 320 q 269 298 267 301 q 276 290 271 294 q 283 281 281 285 q 298 267 286 277 q 315 252 311 258 q 325 243 319 245 q 339 239 331 240 l 361 237 q 391 237 376 236 q 412 239 407 239 q 423 241 418 239 q 435 247 429 243 q 450 256 442 251 q 463 262 457 262 q 477 267 469 263 q 490 284 486 273 q 505 301 494 296 q 512 312 507 308 q 521 326 517 316 q 532 345 528 334 q 541 367 536 357 q 547 393 545 377 q 552 418 549 410 q 556 433 555 426 q 561 444 557 439 q 565 457 564 449 q 567 473 566 465 q 568 491 568 480 q 568 512 567 502 q 570 529 568 522 q 568 545 571 536 q 566 558 566 553 q 560 563 567 563 q 555 595 570 579 q 527 616 540 612 q 507 616 514 621 q 492 610 499 612 q 481 610 484 613 q 472 606 479 606 q 452 614 460 614 q 439 616 444 614 q 422 635 425 627 q 419 654 420 643 q 426 671 418 666 q 446 677 434 677 q 473 677 458 678 q 500 680 487 675 q 524 684 513 685 q 547 683 534 684 q 570 682 559 682 q 588 682 582 681 q 608 685 594 682 q 629 689 621 688 q 665 692 646 688 q 692 689 685 696 q 699 684 699 689 l 699 674 q 700 654 701 659 q 691 640 699 648 q 675 627 684 631 q 655 623 666 623 q 637 614 644 624 q 641 586 643 600 q 640 557 639 572 l 644 526 q 636 477 644 502 q 640 454 640 461 q 625 403 632 430 q 613 360 618 376 q 606 341 608 345 q 603 333 605 338 q 602 322 601 328 q 597 304 602 316 q 586 281 591 293 q 570 266 581 270 q 551 235 564 245 q 533 205 538 224 q 509 193 521 198 q 489 181 498 187 q 475 170 480 175 q 463 161 469 165 q 446 156 456 157 q 426 153 435 155 q 408 148 416 152 q 389 143 400 144 q 372 136 378 142 q 341 142 359 144 q 304 149 323 140 q 273 153 286 157 q 262 160 267 157 q 253 168 258 163 q 239 172 248 172 q 222 176 229 172 q 210 186 213 186 q 205 189 206 187 q 195 201 198 202 q 194 208 191 201 q 174 222 182 212 q 156 237 167 232 q 138 266 146 252 q 125 298 129 279 q 113 309 118 304 q 100 320 107 315 q 94 336 100 331 q 90 354 87 340 l 68 407 q 65 448 68 426 q 64 495 62 469 q 58 543 65 521 q 52 583 50 566 q 54 608 54 601 q 56 624 54 614 q 62 652 57 633 q 67 680 68 670 q 69 699 66 690 q 75 715 72 708 q 80 732 77 723 q 87 751 88 747 q 89 762 85 754 q 92 776 92 770 q 94 788 91 781 q 104 801 98 795 q 114 812 110 807 q 119 823 118 818 q 123 838 119 829 q 126 853 127 846 q 137 867 137 864 q 144 876 137 871 q 153 890 151 882 q 168 912 155 899 q 190 944 180 925 q 214 963 202 951 q 264 995 231 979 q 311 1015 297 1010 q 335 1025 326 1020 q 348 1029 345 1031 q 359 1032 351 1028 q 374 1036 366 1036 q 388 1038 381 1036 l 434 1038 q 496 1029 479 1034 q 517 1025 514 1024 q 528 1023 521 1025 q 541 1012 534 1021 q 562 1005 547 1002 q 568 1035 564 1010 q 579 1065 572 1059 q 591 1067 586 1063 q 604 1065 597 1072 q 611 1054 608 1063 q 621 1038 614 1044 q 624 1002 627 1031 q 625 977 627 989 q 624 954 624 964 l 627 930 z "},"H":{"ha":840,"x_min":18,"x_max":819,"o":"m 243 682 l 241 661 q 244 644 241 654 q 243 604 248 628 q 252 522 237 579 l 251 491 l 254 476 q 254 453 256 465 q 251 426 251 441 q 253 401 251 411 q 254 386 255 391 q 253 378 252 381 q 258 374 254 374 q 267 372 262 373 q 275 370 271 372 q 278 366 279 369 q 296 366 288 362 q 311 368 304 369 q 325 364 319 368 q 339 357 331 361 q 381 357 362 351 q 417 359 400 362 q 445 356 434 357 q 468 354 456 355 q 486 353 480 353 q 501 353 491 354 q 513 353 511 351 q 530 346 522 350 q 548 342 538 342 l 582 346 q 599 393 594 366 q 602 433 604 419 q 602 456 601 446 q 605 471 604 467 q 608 486 606 476 q 608 508 609 495 q 608 533 606 521 q 609 556 609 545 l 614 576 q 612 585 614 579 q 613 593 610 590 q 614 614 616 609 q 613 627 613 620 l 620 643 q 618 650 620 647 q 619 665 617 654 q 620 682 621 677 q 618 692 618 686 l 623 709 q 625 741 624 724 q 628 774 625 757 l 628 808 l 629 854 l 635 894 l 635 940 q 637 955 635 947 q 635 994 648 994 q 631 1001 629 994 q 604 1000 613 1002 q 578 1001 595 998 q 574 1038 566 1023 q 589 1040 582 1040 q 604 1040 597 1039 l 631 1044 l 648 1040 l 665 1043 q 687 1042 677 1040 q 710 1040 697 1044 q 738 1039 723 1036 q 759 1038 753 1042 q 772 1033 765 1034 q 787 1035 780 1032 q 800 1035 793 1038 q 815 1021 814 1024 q 819 1016 817 1019 q 796 987 815 996 q 772 968 776 977 q 758 952 768 959 q 757 918 755 936 q 758 889 758 899 q 754 873 757 879 q 758 864 751 868 q 751 836 749 854 q 754 806 754 818 l 746 730 q 747 719 745 723 q 749 709 749 715 l 736 654 l 738 620 q 735 599 738 609 q 731 581 732 589 q 731 569 730 574 q 732 557 732 564 q 728 543 731 549 q 723 529 724 536 l 722 469 q 715 454 722 461 q 718 444 722 450 q 715 430 715 437 q 717 418 715 423 q 718 408 719 414 q 712 388 716 401 q 707 359 708 374 q 703 333 707 345 q 699 311 700 321 q 698 294 697 301 q 698 281 699 288 q 696 267 697 274 q 692 245 694 259 q 691 224 690 231 q 688 201 692 217 q 686 171 685 184 q 678 142 686 157 q 671 98 682 106 q 665 56 669 77 q 658 7 661 34 q 677 -1 665 -5 q 700 0 689 3 q 731 -20 712 -1 q 732 -37 730 -30 q 728 -50 734 -43 q 715 -55 722 -57 q 689 -53 709 -53 q 648 -49 669 -53 q 614 -50 627 -45 q 590 -60 601 -56 q 554 -58 575 -54 q 514 -62 533 -61 q 484 -56 495 -62 q 479 -22 472 -49 q 490 -19 483 -19 q 503 -18 496 -19 q 526 -7 514 -11 q 548 3 537 -3 q 557 46 553 15 q 568 88 562 77 q 567 108 564 106 q 570 118 570 110 q 572 144 571 126 q 574 174 572 161 q 578 194 576 187 q 582 207 581 201 q 583 219 583 213 q 583 248 582 225 q 574 286 585 270 q 526 292 557 292 q 481 302 495 292 q 434 298 456 294 q 408 301 412 302 q 397 300 404 300 q 380 302 389 301 q 345 294 369 304 q 296 296 316 301 q 283 288 294 292 q 269 278 271 285 q 271 269 267 271 q 275 256 274 266 l 271 236 q 274 214 271 224 q 275 186 277 203 l 277 163 q 274 123 274 136 q 273 100 274 111 q 320 94 292 87 q 328 97 326 95 q 337 101 331 99 q 353 103 343 103 q 373 106 363 103 q 385 58 393 91 q 370 52 377 56 q 355 47 363 49 q 338 47 346 46 q 320 46 331 49 q 305 39 311 39 q 280 32 290 39 q 264 24 270 24 q 246 18 256 26 q 228 11 236 11 l 129 -9 q 106 -2 115 -9 q 100 21 96 5 q 112 37 104 37 q 127 41 119 37 q 149 52 136 46 q 171 68 161 57 q 169 88 172 75 q 165 148 165 102 q 164 157 168 155 q 162 168 160 159 q 159 190 164 176 q 154 214 155 203 q 155 231 153 225 q 155 242 156 236 q 150 255 153 248 q 145 273 146 262 q 146 298 144 283 q 140 324 148 312 q 142 343 142 334 q 141 361 142 353 l 132 461 l 134 481 q 132 507 134 494 q 130 534 130 521 q 127 559 129 547 q 125 580 126 571 q 123 596 125 589 q 121 608 121 604 q 123 623 122 613 q 119 646 123 632 q 111 673 114 659 q 109 704 109 686 q 100 732 110 722 q 96 781 104 745 q 92 848 87 817 q 92 858 90 856 q 94 863 94 860 l 87 882 q 83 903 87 899 q 79 926 80 914 q 75 941 79 939 q 60 942 60 947 q 56 940 61 937 q 38 939 45 943 q 18 939 31 936 q 22 970 12 966 q 45 974 33 974 l 71 974 q 90 981 83 974 q 104 975 96 981 q 118 980 110 978 q 139 987 126 982 q 161 993 152 991 q 180 998 171 994 q 194 1004 189 1001 q 216 1004 199 1008 q 227 1010 225 1009 q 239 1013 228 1012 q 307 998 290 1019 q 305 987 305 993 q 305 977 305 982 q 290 967 293 967 q 277 962 286 967 q 259 960 267 958 q 250 954 252 959 q 244 943 247 948 q 231 946 239 948 q 220 939 222 944 q 216 923 218 930 q 216 903 213 916 q 220 884 220 890 q 221 873 220 879 l 224 856 q 224 842 225 849 q 222 831 222 836 q 227 814 222 826 l 231 799 q 235 774 233 781 q 237 758 237 768 q 244 741 237 749 q 241 725 239 734 q 244 709 244 716 l 243 682 z "},"I":{"ha":412,"x_min":5,"x_max":397,"o":"m 286 387 q 288 338 282 368 q 293 283 293 308 q 302 229 293 258 l 301 209 q 305 176 301 186 q 311 159 309 167 q 310 138 312 151 q 320 119 308 126 l 342 113 q 377 113 361 119 q 397 96 393 106 q 393 73 400 83 q 378 53 385 64 q 334 53 359 54 q 325 50 324 56 q 319 46 326 45 q 307 46 312 47 q 295 43 301 45 q 283 41 289 41 q 271 45 277 41 q 236 23 248 35 l 228 27 q 216 26 229 26 q 201 24 203 26 q 181 17 187 16 q 168 12 175 18 q 155 6 161 7 q 140 9 148 5 q 123 12 133 12 q 115 33 117 19 q 118 55 114 47 q 131 62 122 62 q 149 68 140 62 q 160 73 159 73 q 191 106 170 73 q 192 125 194 118 q 187 144 190 133 q 184 165 184 156 q 183 182 184 175 q 180 193 182 189 q 176 211 178 198 q 175 241 174 224 q 174 272 176 259 q 170 292 172 285 q 167 307 168 300 q 168 319 167 313 q 163 332 170 326 q 163 362 165 353 q 161 377 160 372 q 160 392 163 382 q 159 406 157 401 q 159 415 160 410 q 157 427 157 420 q 155 443 156 434 q 151 463 155 452 q 147 478 149 476 q 144 484 145 480 q 144 492 144 487 q 138 528 145 496 q 133 568 130 559 q 134 583 136 576 q 130 597 133 589 q 124 614 126 606 q 123 626 122 621 q 123 636 123 631 q 119 646 122 642 q 113 697 113 663 l 109 728 q 111 753 107 739 q 107 791 115 766 l 104 819 q 100 849 100 837 q 97 861 100 861 q 88 868 94 861 q 46 867 83 867 l 18 869 q 12 878 16 876 q 5 884 8 879 q 15 911 8 902 q 30 916 28 918 q 37 916 31 914 q 51 920 42 917 q 72 926 60 924 q 101 928 84 928 q 126 939 118 928 q 143 939 134 935 q 162 946 152 944 q 182 950 172 948 q 197 959 193 952 q 227 951 221 949 q 237 956 232 954 q 251 956 241 958 q 270 963 269 964 l 270 958 l 309 975 q 324 968 317 970 q 331 956 331 967 q 338 937 336 939 q 339 928 340 935 q 305 911 316 917 q 279 902 294 905 q 267 890 274 894 q 253 880 259 887 q 247 865 247 873 q 240 850 247 857 q 240 825 237 840 q 243 796 243 811 l 241 769 q 245 745 243 757 q 250 721 248 734 q 250 696 251 708 q 254 671 250 684 q 256 656 258 658 q 255 652 255 655 l 262 624 l 262 609 q 263 591 262 600 l 264 574 q 269 541 264 551 q 275 517 274 530 q 275 492 277 505 q 273 467 273 479 l 279 444 l 281 415 q 280 402 281 410 q 286 387 279 395 z "},"J":{"ha":549,"x_min":7,"x_max":503,"o":"m 264 719 q 265 728 264 724 q 264 744 266 732 q 258 774 262 755 q 252 806 254 793 q 248 824 250 818 q 243 840 245 830 q 243 861 241 849 q 236 884 244 873 q 219 885 225 890 q 205 875 213 880 q 159 872 182 878 q 114 865 137 867 q 109 871 113 869 q 100 876 104 872 q 94 888 95 887 q 90 896 92 890 q 91 909 88 902 q 95 924 94 916 q 116 930 106 929 q 142 938 126 930 q 163 945 157 945 q 174 945 168 944 q 185 949 180 947 q 196 954 190 951 q 205 956 202 956 q 216 958 208 955 q 238 967 225 962 q 265 976 251 972 q 285 981 279 979 q 312 990 304 991 q 345 1001 332 989 q 408 1010 366 997 q 471 1017 450 1024 q 477 1004 473 1009 q 479 991 480 998 q 474 980 479 983 q 471 970 469 977 q 453 962 463 968 q 433 951 444 955 q 411 945 423 947 q 388 939 399 944 q 368 924 374 928 q 357 913 361 920 q 361 905 357 907 q 368 890 365 902 q 374 878 372 879 q 378 870 376 878 q 385 813 381 863 q 408 708 389 764 q 408 692 406 699 q 414 671 411 685 q 421 637 418 656 q 428 606 425 618 q 430 585 431 593 q 439 557 429 578 q 439 548 441 552 q 448 524 435 536 q 450 492 450 509 q 454 466 450 476 q 460 451 457 456 q 465 442 463 446 q 468 434 468 438 l 473 418 q 477 399 473 412 q 479 383 481 387 q 479 369 477 380 q 488 344 481 358 q 496 317 494 330 q 498 294 499 304 q 498 275 498 285 l 503 243 q 503 234 505 239 q 502 224 502 229 l 503 205 q 498 188 502 195 q 494 174 495 180 q 494 161 492 167 q 495 151 495 156 q 492 135 490 142 q 494 114 495 127 q 495 98 494 100 q 489 83 492 91 q 476 73 486 76 q 476 62 479 66 q 446 -4 454 30 q 437 -10 441 -7 q 429 -16 434 -14 q 422 -32 425 -24 q 416 -44 420 -39 q 409 -52 412 -49 q 402 -60 406 -54 q 396 -65 399 -66 q 386 -71 393 -64 q 375 -81 378 -77 q 362 -84 372 -84 q 338 -113 346 -100 q 315 -126 319 -115 q 269 -132 297 -123 q 233 -146 240 -140 q 216 -155 227 -153 q 195 -150 205 -157 q 178 -140 184 -142 q 166 -139 171 -138 q 155 -138 161 -140 l 130 -133 q 65 -88 71 -122 q 39 -69 61 -80 q 11 -43 16 -58 q 7 -10 5 -27 q 9 21 8 7 q 9 45 11 35 q 9 66 8 56 q 20 87 11 76 q 31 104 30 98 q 75 137 45 119 q 133 155 104 155 q 166 140 153 146 q 182 117 179 133 q 180 96 184 102 q 174 77 176 91 q 126 68 153 68 q 118 52 118 62 q 115 32 118 42 q 110 13 113 22 q 106 -9 107 4 q 133 -62 104 -54 q 152 -68 142 -64 q 197 -81 179 -84 q 220 -78 214 -77 q 231 -78 227 -79 q 248 -73 236 -77 q 274 -65 260 -69 q 339 -22 330 -43 q 347 -8 342 -14 q 348 10 349 0 q 355 23 347 20 q 359 57 351 37 q 357 89 357 73 q 355 119 357 104 l 357 141 l 361 160 l 362 179 l 351 199 q 353 218 355 212 q 353 227 351 224 q 353 235 354 229 q 350 249 353 241 q 346 265 347 256 q 345 283 345 274 q 343 300 345 292 q 340 317 342 308 q 338 331 339 326 q 333 341 336 336 q 328 350 330 346 q 326 357 327 354 q 323 365 324 359 l 324 391 q 322 400 324 396 q 318 414 320 404 q 315 436 316 423 q 311 469 315 449 q 301 513 307 490 q 291 562 290 549 q 288 583 292 574 q 284 599 285 593 q 283 619 283 605 q 264 719 283 633 z "},"K":{"ha":905,"x_min":-7,"x_max":954,"o":"m 772 975 l 789 968 q 824 973 807 968 q 854 975 841 978 q 854 926 868 963 q 843 923 848 924 q 826 920 838 922 q 814 918 821 922 q 795 909 808 914 q 775 905 783 905 q 760 901 768 905 q 742 876 750 894 q 731 859 734 859 q 710 832 719 838 q 694 819 701 826 q 679 792 693 802 q 661 768 665 783 q 638 752 646 762 q 622 735 631 742 q 608 718 613 728 q 596 709 601 715 q 585 701 591 704 q 564 681 575 684 q 533 639 555 659 q 500 600 511 618 q 480 580 490 595 q 465 556 471 564 l 471 543 q 487 535 479 533 q 505 528 495 537 l 522 510 q 541 494 537 499 q 551 480 544 488 q 562 465 557 472 q 572 451 567 458 q 588 434 576 444 q 605 416 600 425 q 614 398 610 408 q 621 377 617 388 q 629 358 625 366 q 633 349 633 350 q 632 344 632 349 q 637 335 632 339 q 646 313 643 331 q 656 288 650 296 q 669 261 667 274 q 675 239 670 248 q 679 210 678 225 q 693 186 680 195 q 710 142 703 153 q 718 127 718 132 q 726 113 718 122 q 738 99 734 104 q 749 85 743 88 q 760 76 755 81 q 768 68 765 71 q 786 62 777 64 q 802 54 795 61 q 825 56 814 58 q 864 71 848 49 q 878 90 872 77 q 879 106 884 103 q 887 120 890 110 q 887 138 884 130 q 872 152 882 148 q 856 165 865 163 q 841 157 845 164 q 808 138 830 142 q 776 160 780 151 q 779 182 773 170 q 787 205 784 194 q 801 215 796 208 q 811 228 806 222 q 829 234 823 228 q 846 243 836 240 q 854 242 849 240 q 861 241 859 244 q 876 240 864 237 q 897 236 888 243 q 911 222 905 229 q 921 214 918 220 q 930 206 924 209 q 932 194 932 202 q 940 177 933 186 q 945 165 947 168 q 949 155 944 161 q 954 142 955 149 q 954 130 952 136 q 947 90 962 103 q 936 68 933 77 q 920 50 925 60 l 911 33 q 903 23 907 24 q 881 9 898 22 q 787 -3 864 -3 q 741 22 755 -3 q 720 22 727 19 q 699 23 712 26 q 688 33 696 31 q 674 39 681 35 q 659 52 663 52 q 651 53 654 52 q 635 80 640 66 q 605 102 621 94 q 591 120 598 111 q 574 132 585 129 q 560 164 568 145 q 553 180 552 175 q 550 190 553 184 q 541 201 547 195 q 531 214 534 206 q 527 227 528 222 q 522 240 526 232 q 515 253 518 248 q 514 263 513 258 q 503 275 505 270 q 494 293 500 279 q 488 311 488 307 q 485 318 488 315 q 479 325 481 321 q 477 332 477 328 q 475 341 477 336 q 467 351 472 346 q 464 362 463 355 q 457 370 461 368 q 450 374 453 372 q 442 401 448 385 q 433 412 433 410 q 429 419 433 415 q 424 429 426 423 q 418 439 422 434 q 404 446 406 441 q 393 450 401 450 q 380 448 384 450 q 372 449 377 446 q 362 446 369 446 l 342 439 q 338 429 335 439 q 324 422 330 430 q 311 410 319 415 q 300 396 302 406 q 292 363 297 387 q 298 315 286 339 q 294 291 296 300 q 298 271 293 282 q 293 247 293 267 l 296 214 l 293 193 l 297 155 l 294 136 q 298 125 296 130 q 302 113 300 119 q 301 94 304 107 q 302 71 298 81 q 305 54 305 60 l 305 41 l 307 19 q 315 14 309 12 q 326 9 321 16 q 336 7 330 7 q 347 4 343 7 q 353 -1 347 -3 q 359 -7 358 0 q 358 -24 361 -15 q 354 -42 355 -33 q 321 -62 343 -53 q 277 -58 302 -54 q 249 -62 252 -62 q 238 -68 245 -62 q 215 -72 231 -73 q 186 -73 199 -71 q 171 -75 174 -72 q 161 -77 168 -77 q 141 -73 156 -75 q 121 -68 126 -72 q 119 -52 118 -57 q 121 -34 119 -46 q 170 -15 149 -15 q 178 37 186 4 q 175 68 175 46 q 172 107 175 91 q 171 126 170 123 q 172 132 172 129 l 167 152 q 163 212 167 179 l 165 244 l 161 259 q 160 295 159 277 q 161 338 161 313 q 151 374 161 363 q 151 397 156 385 q 145 420 146 410 q 144 465 146 446 q 141 513 141 483 l 141 544 q 140 564 144 557 q 140 575 137 571 q 138 594 141 589 q 133 623 130 610 q 130 663 136 636 l 133 689 l 133 708 q 126 756 133 730 q 124 798 119 783 q 123 812 129 812 q 119 821 117 812 q 119 842 122 829 q 115 871 117 856 q 115 880 113 875 q 115 890 117 884 q 109 901 113 897 q 100 911 104 906 q 85 917 94 914 q 72 922 76 920 l 54 925 l 42 925 l 14 921 q -6 954 -14 945 q 3 970 1 963 q 20 975 9 972 q 39 979 38 975 q 50 983 41 983 l 71 981 l 96 989 l 114 986 q 144 992 137 986 q 160 1002 152 998 q 183 1005 168 1005 q 209 997 198 1005 q 224 1002 218 1002 q 243 1005 231 1001 q 259 1006 255 1004 q 271 1008 263 1009 q 287 1008 279 1006 q 301 1009 294 1009 l 328 1009 q 340 986 343 993 q 330 972 338 979 q 314 962 321 964 q 293 952 307 959 q 273 937 279 945 q 255 928 266 929 q 253 899 256 917 q 251 871 250 880 q 255 848 252 863 q 258 829 258 834 q 258 816 259 823 q 258 802 256 808 q 262 791 259 796 q 265 778 264 787 q 266 755 266 769 q 267 730 266 741 l 264 712 l 269 689 l 263 656 l 273 613 l 273 583 q 286 555 275 564 q 302 547 296 547 q 315 554 313 555 q 324 558 317 553 q 340 573 331 563 q 361 589 349 583 q 368 602 363 597 q 374 617 372 606 q 385 629 381 618 q 400 646 389 639 q 418 658 411 652 q 432 669 426 663 q 446 677 438 674 q 463 700 453 689 q 479 726 472 711 q 490 731 486 728 q 500 736 495 734 q 534 788 517 772 q 551 810 534 798 q 570 831 568 823 q 577 833 575 830 q 583 838 579 837 q 606 872 593 857 q 628 906 618 887 q 614 922 627 920 q 591 930 601 924 q 579 956 579 949 q 584 968 579 963 q 594 979 589 972 q 635 968 621 982 q 664 970 652 968 q 686 969 675 971 q 699 972 697 967 q 708 978 701 978 q 720 977 708 974 q 732 981 731 979 q 758 975 751 974 q 772 975 764 977 z "},"L":{"ha":581,"x_min":33,"x_max":567,"o":"m 262 315 l 254 285 l 256 248 q 257 219 258 233 q 262 190 256 205 q 255 157 254 178 q 251 90 255 118 q 283 57 247 62 q 335 54 308 53 l 357 58 q 381 54 361 58 q 486 69 420 54 q 499 93 495 84 q 503 118 503 102 q 507 144 502 134 q 548 167 525 171 q 567 132 563 164 l 564 72 l 553 -56 q 544 -66 547 -60 q 531 -71 541 -72 q 517 -75 521 -71 q 505 -79 514 -80 q 490 -70 496 -77 q 477 -57 484 -62 q 472 -34 473 -47 q 462 -18 471 -20 q 444 -18 453 -15 q 422 -21 434 -22 q 395 -13 410 -20 q 368 -6 381 -5 q 343 -10 355 -7 q 321 -1 331 -14 q 307 -4 315 -5 q 292 -5 298 -3 q 282 -9 286 -7 q 274 -12 278 -11 q 235 -11 248 -12 q 214 -16 222 -9 q 194 -17 203 -12 q 175 -22 184 -22 l 153 -16 q 141 -16 146 -15 q 109 -16 136 -18 q 75 -7 83 -14 q 71 2 68 -1 q 72 20 73 5 q 82 39 71 34 q 97 50 94 45 q 102 61 100 56 q 107 72 104 66 q 110 79 110 77 l 110 90 l 111 104 l 114 149 q 111 187 111 174 q 113 208 111 201 q 113 222 115 214 q 118 275 119 262 q 117 300 117 288 l 122 345 q 123 384 122 361 q 124 418 125 407 q 125 439 123 429 q 125 455 127 449 q 123 467 123 461 l 130 495 l 129 514 l 132 534 q 132 541 133 537 q 132 559 130 544 q 130 591 133 574 l 129 662 q 130 692 132 685 q 127 709 127 700 l 126 741 l 130 755 q 128 783 126 774 q 130 807 130 791 q 128 843 130 823 q 128 875 126 863 q 131 901 130 887 q 132 933 132 916 q 137 970 132 951 q 132 983 134 977 q 123 997 129 990 q 101 997 110 1000 q 83 993 92 994 l 68 991 l 46 993 q 35 1006 37 1006 q 33 1006 33 1005 q 37 1040 27 1017 q 50 1046 43 1043 q 63 1050 56 1048 q 75 1055 71 1051 q 85 1061 79 1059 q 160 1062 125 1048 q 187 1058 172 1055 q 221 1062 202 1061 l 240 1063 l 251 1063 q 264 1067 258 1063 l 281 1062 q 363 1069 324 1078 q 370 1046 370 1058 q 373 1021 369 1035 q 356 1003 368 1008 q 336 994 345 998 q 323 985 328 989 q 312 978 319 981 q 304 969 308 974 q 293 966 300 964 q 287 951 292 955 q 279 937 282 947 q 279 917 277 928 q 279 898 281 906 q 277 886 278 890 q 277 880 275 883 q 277 857 278 876 q 277 823 277 837 q 283 793 277 810 q 278 761 278 779 q 273 734 278 743 q 278 701 279 718 l 275 682 q 277 669 275 675 q 281 653 279 662 q 282 633 282 644 q 274 570 278 586 q 277 556 277 563 l 277 537 q 277 520 275 526 q 277 510 278 514 q 272 501 275 506 q 269 490 269 496 q 269 414 274 464 q 266 360 264 365 q 263 345 267 355 q 260 328 259 334 q 262 315 262 323 z "},"M":{"ha":1240,"x_min":-23,"x_max":1255,"o":"m 164 895 l 168 914 q 168 928 170 921 q 172 966 165 941 q 176 1019 178 991 q 176 1062 174 1047 q 179 1077 178 1077 q 183 1090 186 1077 q 193 1126 178 1103 q 193 1148 190 1139 q 198 1169 195 1157 q 278 1156 256 1191 q 301 1142 286 1143 q 310 1127 304 1134 q 320 1113 316 1120 q 328 1099 324 1105 q 338 1085 331 1092 q 357 979 346 1020 q 363 956 358 963 q 371 941 368 948 q 376 924 374 933 q 381 907 378 916 q 388 890 384 898 q 395 873 392 882 q 397 859 395 860 q 400 854 399 859 q 404 838 401 849 q 433 784 416 791 q 429 775 434 776 q 430 759 425 774 q 440 715 435 743 q 460 667 445 686 q 468 623 458 652 q 473 578 477 593 q 484 562 476 571 q 494 532 491 553 q 500 500 498 510 l 505 486 l 514 456 q 522 432 518 445 q 538 412 525 419 q 557 423 553 412 q 571 449 564 444 q 587 475 574 464 q 610 496 601 487 q 623 524 613 511 q 636 552 633 536 q 656 579 650 559 q 675 595 669 583 l 685 616 q 690 629 689 624 q 695 637 692 633 q 701 650 699 640 q 709 668 704 659 q 731 684 713 677 q 736 699 731 694 q 741 715 742 703 q 747 723 745 716 q 753 737 750 730 q 760 751 757 745 q 766 761 762 758 q 788 804 769 774 q 818 875 808 844 q 858 928 842 894 q 873 972 873 962 q 886 988 883 979 q 893 1008 888 997 q 903 1040 898 1020 q 916 1066 907 1061 q 918 1084 913 1077 q 926 1101 924 1092 l 935 1126 q 949 1152 940 1141 q 976 1155 964 1152 q 1006 1156 987 1158 q 1017 1141 1013 1150 q 1027 1126 1020 1133 q 1034 1101 1027 1115 q 1042 1077 1042 1086 l 1059 1010 l 1058 987 l 1069 944 q 1073 926 1069 939 q 1076 909 1077 914 q 1078 893 1074 903 q 1079 881 1081 883 q 1078 875 1077 879 l 1084 854 l 1082 837 q 1090 798 1090 814 q 1090 768 1089 781 q 1094 747 1090 755 q 1095 727 1097 738 q 1097 709 1093 716 q 1100 675 1100 703 q 1103 634 1103 656 q 1107 598 1104 612 q 1112 578 1109 585 q 1116 564 1114 572 q 1116 545 1118 556 q 1124 525 1115 533 q 1123 488 1119 507 q 1128 434 1131 449 q 1131 410 1126 419 q 1139 372 1139 391 l 1139 349 l 1137 323 l 1142 305 l 1143 290 q 1149 255 1149 274 l 1146 216 q 1148 198 1146 208 q 1152 178 1150 189 q 1152 155 1153 168 q 1161 132 1150 141 q 1183 136 1172 134 q 1202 140 1194 137 q 1217 148 1210 142 q 1232 156 1223 153 q 1240 151 1241 159 q 1246 138 1240 142 q 1255 123 1253 134 q 1251 104 1256 111 q 1230 91 1245 98 q 1209 85 1215 84 q 1196 83 1203 85 q 1178 78 1188 80 q 1162 74 1168 76 q 1153 70 1157 72 q 1144 66 1149 68 q 1133 64 1139 64 q 1122 64 1127 65 q 1114 60 1118 62 q 1103 55 1111 57 q 1082 54 1095 53 q 1058 52 1069 54 q 1040 45 1047 49 q 1028 39 1034 41 q 1017 38 1023 37 q 1002 36 1010 39 q 989 34 993 33 q 978 32 985 35 q 964 22 971 28 q 949 14 958 15 q 935 18 941 14 q 924 23 929 22 q 935 71 911 50 q 945 77 943 77 q 953 81 948 77 q 960 85 958 85 q 970 90 962 84 q 994 104 979 96 q 1017 121 1009 111 q 1017 136 1016 129 q 1017 154 1019 144 q 1010 174 1016 164 q 1003 191 1005 183 q 1002 205 1001 199 q 999 231 1005 217 q 993 272 993 245 q 982 313 993 298 q 981 393 989 353 q 972 440 974 434 q 970 453 970 446 l 974 484 l 955 583 l 955 613 l 951 633 q 951 644 949 639 q 954 655 954 650 l 944 685 q 945 708 948 699 q 942 781 939 732 q 932 861 945 830 q 935 868 937 861 q 937 876 933 875 q 937 897 933 890 q 930 914 941 905 q 916 890 926 906 q 902 861 905 875 q 895 854 897 860 q 884 849 892 849 q 879 831 884 837 q 871 818 873 826 q 869 809 867 814 q 868 795 872 804 q 837 741 864 783 q 804 678 810 700 q 792 665 798 673 q 779 651 787 658 q 764 627 772 644 q 750 605 757 610 q 749 593 749 598 l 749 581 q 730 564 736 575 q 712 545 723 553 q 680 506 694 517 q 671 477 675 498 q 653 458 659 471 q 639 435 647 446 q 629 420 631 423 q 626 412 628 416 q 623 400 624 407 q 614 392 623 393 q 614 369 612 382 q 587 339 600 358 q 578 324 582 324 q 572 315 575 324 q 564 305 570 307 q 561 293 562 300 q 557 281 560 286 q 492 264 528 278 q 472 277 480 269 q 456 293 464 286 q 435 353 450 332 q 435 372 438 363 q 431 391 433 381 q 428 409 429 400 q 425 427 427 418 q 420 444 422 435 q 415 460 418 452 q 411 478 412 469 q 406 497 410 487 q 401 515 403 507 l 397 536 q 387 559 396 548 q 365 623 391 591 q 359 645 362 627 q 349 699 357 663 q 330 735 342 735 q 314 732 317 735 q 312 722 311 728 q 315 705 313 715 q 315 688 317 696 q 310 669 312 680 q 304 651 308 658 q 302 613 307 633 q 297 572 297 593 l 292 503 q 290 496 292 499 q 293 488 289 492 q 286 471 286 481 q 283 447 286 460 q 278 427 281 434 q 278 407 275 420 q 271 357 275 374 q 264 326 266 340 q 264 307 263 312 q 266 298 266 302 l 258 278 q 258 260 256 270 q 258 247 259 251 q 250 218 256 237 q 244 198 244 199 q 244 164 255 190 l 241 138 q 252 119 241 122 q 283 111 262 115 q 305 101 305 106 q 309 85 305 96 q 309 69 312 73 q 305 62 307 65 q 292 54 304 54 q 277 50 279 53 q 271 52 274 52 l 262 52 l 217 47 q 199 48 212 47 q 171 50 186 49 q 142 51 156 50 q 118 50 127 52 q 93 50 109 47 q 59 53 77 53 q 18 51 41 53 q -19 58 -4 49 q -23 76 -20 65 q -19 94 -26 87 q -7 103 -16 102 q 9 106 3 104 q 21 108 16 109 q 33 111 26 107 q 48 113 41 114 q 58 111 56 111 q 68 120 66 121 q 73 121 71 119 q 88 133 77 127 q 91 177 91 152 q 96 218 91 202 q 99 244 96 239 q 101 269 106 255 q 102 294 96 283 q 110 312 107 304 q 111 330 113 320 q 110 351 109 339 q 113 378 111 363 q 115 410 115 393 l 114 433 q 121 449 115 439 q 126 494 126 458 l 133 587 q 137 629 133 614 q 140 648 141 643 q 143 664 138 654 q 149 684 148 674 l 145 704 q 146 720 148 719 q 148 770 155 758 q 158 804 160 783 q 161 835 156 825 q 164 861 165 845 q 164 895 163 878 z "},"N":{"ha":817,"x_min":54,"x_max":798,"o":"m 496 1047 q 495 1076 495 1055 q 505 1097 495 1097 q 517 1101 509 1097 q 530 1103 525 1105 q 542 1099 534 1100 q 559 1099 549 1097 q 579 1103 568 1101 l 617 1097 q 640 1097 628 1096 q 660 1095 651 1097 q 673 1088 669 1092 q 688 1084 678 1085 q 716 1087 697 1082 q 753 1091 735 1092 q 784 1092 772 1090 q 789 1071 787 1086 q 798 1053 792 1055 q 793 1043 798 1046 q 791 1032 789 1040 q 764 1019 768 1023 q 694 1010 745 1027 q 692 1003 696 1005 q 687 996 689 1001 q 686 981 685 990 q 689 962 688 971 q 692 954 690 952 q 694 932 694 956 q 689 891 694 907 q 694 844 694 873 l 692 823 q 696 789 693 807 q 699 760 700 770 q 697 744 699 749 q 694 730 696 739 q 693 709 692 720 q 692 688 694 699 l 689 663 q 694 635 694 636 l 692 595 l 694 537 q 694 520 696 522 q 692 506 692 518 q 694 477 692 494 l 692 430 l 694 415 q 689 334 694 374 l 688 300 q 684 272 686 285 q 681 244 681 259 l 682 221 q 677 197 682 210 q 671 175 673 184 q 671 160 670 165 q 667 133 674 149 q 664 97 659 117 q 667 66 669 77 q 661 48 665 56 q 651 30 656 41 q 642 28 644 33 q 633 23 639 23 q 622 30 628 23 q 605 35 616 37 q 597 52 604 46 q 593 71 591 57 q 570 95 570 84 q 544 141 570 127 q 529 171 537 163 q 503 236 526 224 q 494 263 500 251 l 481 289 q 471 317 475 304 q 462 334 468 330 q 456 347 456 339 q 454 357 457 354 q 448 363 453 362 q 441 368 444 363 q 435 381 441 377 q 426 391 430 385 q 420 405 422 397 q 414 421 419 412 q 410 433 410 430 q 408 441 411 437 q 401 452 406 446 q 393 465 396 458 q 385 477 389 472 q 378 490 381 483 q 370 500 376 496 q 362 507 365 503 q 355 532 361 522 q 347 557 350 543 q 340 564 345 562 q 334 570 336 567 q 328 587 334 581 q 318 603 321 594 q 313 620 315 612 q 304 638 312 628 q 297 650 297 648 q 292 660 297 651 q 287 679 288 669 q 278 696 286 689 q 271 718 275 708 q 256 726 267 728 q 255 682 235 716 l 252 661 l 262 617 l 259 601 l 262 585 q 259 556 259 571 q 262 522 259 541 q 268 483 266 503 q 269 442 270 463 q 269 404 269 422 q 268 382 266 391 q 263 368 270 373 q 271 338 267 353 q 273 306 275 324 q 274 283 271 288 q 278 268 277 278 q 277 245 279 258 q 275 221 274 233 l 279 191 q 277 162 281 176 q 285 136 274 148 q 280 126 285 129 q 277 114 275 123 q 276 96 278 104 q 277 79 274 87 q 301 56 282 61 q 323 35 320 52 q 321 14 327 19 q 304 9 316 9 q 285 1 292 9 l 270 9 q 250 6 263 3 q 227 7 236 9 q 211 0 218 4 q 195 -7 203 -4 q 174 -6 186 -9 q 140 -9 163 -3 q 94 -15 117 -15 q 54 8 71 -15 q 109 46 54 41 q 132 50 122 47 q 137 76 137 61 q 136 99 140 88 q 130 118 132 110 l 133 141 q 130 160 133 152 l 130 197 l 126 229 q 125 245 125 236 q 125 267 126 254 q 123 294 125 279 q 119 323 121 309 q 120 350 118 338 q 121 382 122 362 q 121 432 121 403 q 120 478 122 461 q 117 501 118 495 q 115 517 115 507 q 115 541 114 528 q 114 570 115 555 q 111 607 113 586 q 109 651 109 628 l 106 696 l 107 713 l 103 743 l 106 766 q 102 778 104 772 q 98 794 100 784 q 96 825 95 804 q 98 865 98 845 l 98 901 q 94 949 98 928 q 92 981 90 971 q 87 997 94 990 q 90 1017 90 1006 l 90 1039 q 102 1051 98 1042 q 117 1063 107 1061 q 124 1071 121 1066 q 133 1071 127 1076 q 143 1070 138 1066 q 152 1067 148 1074 l 165 1053 q 191 1016 184 1035 q 202 998 202 1002 q 209 983 202 994 q 221 962 216 971 l 229 945 q 236 932 233 940 q 243 918 239 925 q 250 906 247 910 q 260 893 254 902 q 269 874 266 884 q 278 852 271 864 q 289 832 285 840 q 300 819 293 825 q 312 793 302 802 q 323 765 321 784 q 328 758 326 762 q 334 751 331 754 q 340 726 334 738 q 351 708 347 715 q 355 696 354 701 q 357 687 355 692 q 364 677 359 682 q 372 665 369 671 q 374 654 374 658 q 381 642 374 650 q 387 629 388 633 q 388 620 387 624 q 394 614 389 616 q 401 610 399 613 q 410 583 403 591 q 420 564 418 574 q 427 553 422 553 q 437 533 431 552 q 461 498 444 514 l 463 479 q 476 462 473 475 q 490 442 479 449 q 494 429 490 433 q 502 420 498 426 q 513 395 505 406 q 529 371 522 384 q 541 345 536 358 q 556 320 547 331 q 564 352 567 342 q 560 380 562 362 q 561 400 559 397 q 563 410 563 403 q 562 423 563 416 q 559 481 555 444 q 560 544 563 519 q 559 581 557 568 l 564 609 q 566 642 567 625 q 567 675 566 659 q 568 707 568 690 q 570 741 568 723 l 567 758 l 572 806 q 576 845 571 822 q 581 884 581 868 l 579 932 l 578 939 l 579 947 l 581 971 q 585 1006 581 996 q 590 1027 590 1016 q 581 1036 587 1036 l 563 1036 q 543 1036 548 1039 q 513 1042 534 1031 q 504 1040 509 1035 q 496 1047 499 1046 z "},"O":{"ha":854,"x_min":54,"x_max":799,"o":"m 56 591 l 54 612 q 60 627 56 618 q 68 644 65 636 q 71 659 71 651 q 80 684 71 674 q 90 705 90 693 q 95 734 90 718 q 117 780 100 750 q 138 821 133 810 q 150 840 142 831 q 163 851 157 848 q 184 869 170 854 q 227 911 198 883 q 288 951 256 940 q 292 958 294 955 q 293 968 290 962 l 317 960 q 359 987 343 964 q 413 993 382 989 q 464 993 444 997 q 490 986 484 989 q 503 981 496 983 q 514 979 509 978 q 538 971 519 979 q 579 960 557 963 q 614 950 601 958 q 636 935 628 943 q 653 920 644 926 q 672 907 662 913 q 686 897 682 901 q 692 888 690 892 q 696 880 693 883 q 706 869 700 876 q 719 854 712 861 q 722 842 719 848 q 724 827 726 836 q 736 816 730 821 q 741 800 743 811 q 764 765 760 788 q 772 728 769 742 q 781 704 774 715 q 782 687 783 696 q 787 662 781 678 q 791 629 792 646 q 799 598 791 612 q 793 547 791 576 q 793 507 795 517 l 789 479 l 789 457 q 781 441 789 453 q 776 415 779 433 l 770 392 q 753 356 768 373 q 735 327 739 339 q 731 306 731 315 q 724 285 731 297 q 700 261 718 273 q 680 225 682 250 q 667 216 673 222 q 651 213 661 210 q 644 196 648 202 q 631 193 640 190 q 579 152 617 165 l 549 161 l 480 132 q 452 140 468 140 q 431 146 437 140 q 415 142 425 145 q 368 159 376 130 q 309 167 347 152 q 262 188 270 182 q 250 201 254 194 q 243 212 247 208 q 184 241 197 231 q 160 290 157 263 q 142 304 149 297 q 123 317 134 311 q 118 347 121 338 q 100 369 106 357 q 84 391 95 381 q 87 408 81 397 q 68 437 72 415 q 62 468 65 458 q 68 483 58 477 q 54 543 54 513 q 56 591 54 574 m 724 600 q 713 643 713 620 q 702 698 715 669 q 692 742 689 727 q 665 774 681 749 q 635 810 650 800 q 631 825 636 818 q 624 838 625 831 q 607 858 613 848 q 597 873 601 868 q 589 881 593 879 q 587 888 585 883 q 570 888 572 890 q 564 888 568 887 q 552 893 557 895 q 534 898 547 891 q 511 892 524 895 q 483 898 499 890 q 397 898 452 878 q 386 892 392 890 q 374 891 380 894 q 364 884 368 888 q 356 878 361 880 q 345 871 351 875 q 334 865 338 868 q 323 848 328 850 q 317 844 319 845 q 315 829 317 830 q 305 810 312 829 q 288 784 298 792 q 286 768 289 776 q 285 753 282 760 q 262 711 267 732 q 250 671 256 689 q 237 639 243 652 q 227 608 231 625 q 223 571 224 591 q 216 532 222 551 q 223 494 225 517 q 222 459 221 472 q 222 442 224 446 q 225 428 221 438 q 228 416 229 418 q 229 410 227 415 q 234 399 231 406 q 240 387 237 393 q 241 355 233 368 q 247 326 248 342 q 264 302 256 313 q 282 279 273 292 q 307 268 297 277 q 326 254 317 259 q 342 251 335 250 q 361 241 354 254 q 399 229 369 229 l 467 224 q 473 227 468 224 q 487 232 477 229 q 507 238 496 235 q 533 241 518 241 q 556 258 543 252 q 577 271 570 264 q 591 283 585 278 q 604 294 598 288 q 611 301 610 293 q 614 313 612 309 q 632 323 625 316 q 647 332 639 330 q 669 373 654 355 q 692 409 684 391 q 702 446 700 427 q 719 480 704 465 q 714 510 712 495 q 718 536 716 525 q 724 600 713 563 z "},"P":{"ha":686,"x_min":12,"x_max":662,"o":"m 442 1016 l 461 1016 q 469 1010 464 1010 q 477 1004 475 1009 q 499 1001 491 1006 q 515 992 507 996 q 529 987 524 989 q 548 977 540 985 l 559 966 q 566 960 563 963 q 577 947 568 956 q 588 933 586 939 q 593 925 590 928 q 602 913 595 922 q 614 889 608 903 q 624 866 620 875 q 633 845 628 857 q 637 825 637 833 q 644 811 637 817 q 653 756 647 779 q 659 726 659 734 q 662 701 659 719 q 662 673 665 684 q 659 658 659 662 q 657 647 659 654 q 648 632 655 640 q 642 610 640 624 q 633 602 636 606 q 625 594 631 597 q 608 549 620 567 q 585 509 595 530 q 570 500 576 506 q 522 481 547 479 q 517 471 517 479 q 513 461 518 464 q 496 452 506 454 q 484 438 487 449 q 471 434 475 439 q 463 426 468 429 q 420 419 434 425 q 400 413 407 414 q 384 410 393 412 q 361 408 374 408 q 333 411 347 408 q 312 408 319 414 q 300 391 305 401 q 294 376 296 381 q 286 354 293 370 q 281 329 278 338 q 283 313 283 320 l 282 275 q 289 217 282 247 q 286 202 282 210 q 289 183 289 194 l 286 155 q 288 122 289 133 q 298 107 288 111 q 300 96 300 100 q 305 85 301 91 q 330 91 323 91 l 340 91 q 361 76 355 88 q 367 55 368 64 q 357 37 366 46 q 338 26 347 28 q 324 27 330 24 q 313 30 319 30 q 304 27 308 30 q 294 23 300 24 q 281 25 289 22 q 267 20 274 28 q 227 12 244 27 q 193 13 197 18 q 186 5 190 8 q 132 -3 167 8 q 77 -5 98 -14 q 75 20 71 7 q 88 39 80 33 q 113 44 103 37 q 134 52 123 52 q 139 60 136 60 q 145 68 142 61 q 150 80 148 76 q 154 90 152 84 q 155 100 156 95 q 157 109 155 104 q 152 122 159 114 q 149 143 145 130 q 153 161 153 156 q 153 171 152 165 l 157 191 l 153 216 q 151 228 152 221 q 148 240 149 235 l 142 256 q 144 286 146 277 q 140 304 141 296 q 138 319 138 312 q 137 332 138 326 l 133 353 l 136 369 q 131 488 130 467 q 127 521 132 509 q 127 552 126 536 q 127 578 129 568 l 126 684 l 126 699 q 125 724 127 718 q 123 754 123 731 q 117 819 122 777 q 111 901 111 861 l 109 921 q 112 946 109 932 q 113 969 115 960 q 107 983 111 978 q 99 994 103 987 q 74 992 84 996 q 48 989 64 989 q 26 996 33 989 q 12 1016 19 1002 q 26 1046 22 1042 q 76 1058 65 1046 q 98 1060 88 1055 q 119 1057 109 1065 q 140 1057 129 1061 q 161 1054 151 1054 l 203 1057 l 229 1051 l 263 1054 l 286 1048 q 319 1048 311 1051 q 336 1046 328 1046 l 349 1046 q 358 1044 353 1046 q 370 1038 368 1038 q 394 1034 372 1039 q 442 1016 416 1029 m 358 956 l 298 960 q 267 950 273 963 q 265 930 262 937 q 270 913 269 922 q 265 862 262 901 q 271 802 269 823 q 273 760 273 780 q 267 726 273 741 q 273 707 274 719 q 273 690 273 694 l 277 656 q 277 607 278 631 q 282 566 275 583 q 277 551 275 560 q 277 529 279 543 q 282 500 275 515 q 291 487 289 492 q 296 479 293 481 q 309 471 309 472 q 312 468 309 469 q 350 475 336 475 l 392 480 q 407 488 403 480 q 416 500 411 496 q 426 505 420 503 q 437 510 431 507 q 450 524 441 521 q 465 533 458 526 q 471 544 469 544 q 475 547 473 544 q 478 555 477 551 q 482 566 479 560 q 490 579 486 571 q 499 594 494 587 q 503 625 498 613 q 512 652 509 637 q 517 685 515 667 q 525 719 518 703 q 522 788 515 760 q 471 932 517 905 q 465 933 468 937 q 456 932 461 929 q 412 952 450 941 q 386 958 397 959 q 358 956 374 956 z "},"Q":{"ha":869,"x_min":47,"x_max":983,"o":"m 967 61 q 971 46 968 46 q 974 33 974 46 q 972 12 974 19 q 977 6 971 5 q 983 0 983 7 q 975 -47 983 -31 q 960 -80 966 -62 q 947 -92 951 -84 q 932 -102 943 -99 q 928 -115 929 -109 q 924 -127 926 -121 q 895 -144 910 -134 q 803 -151 852 -170 q 789 -147 796 -148 q 776 -144 781 -146 q 767 -138 770 -141 q 758 -134 764 -136 q 748 -132 753 -132 q 739 -131 743 -133 q 730 -123 734 -129 q 723 -115 727 -118 q 709 -107 712 -113 q 702 -101 707 -102 q 694 -93 697 -100 q 683 -79 690 -85 q 668 -64 675 -72 q 654 -50 661 -56 q 640 -38 647 -45 q 636 -14 640 -24 q 627 -2 631 -7 q 616 13 623 3 q 599 33 609 23 q 582 53 589 42 q 574 51 578 56 q 568 43 571 46 q 561 40 564 41 q 551 36 557 39 q 538 27 545 33 q 523 22 530 22 q 511 26 515 22 q 499 35 506 31 q 489 29 490 35 q 483 21 488 23 q 474 20 477 19 q 464 17 471 22 q 454 14 457 12 q 439 14 450 16 q 420 13 429 11 q 406 16 411 15 q 397 18 400 18 q 387 21 393 19 q 371 24 380 23 q 354 33 362 26 q 315 28 332 22 q 283 39 298 34 q 263 43 269 43 q 235 57 245 46 q 217 62 222 57 q 207 75 209 75 q 200 80 205 75 q 193 90 195 85 q 186 94 191 94 q 178 119 186 115 q 163 126 170 122 q 130 171 156 145 q 127 189 133 182 q 116 202 121 195 q 109 214 111 209 q 100 222 106 220 q 80 256 99 241 q 75 275 81 264 q 69 296 69 286 q 59 326 69 307 q 49 403 49 346 q 47 421 46 416 q 51 436 49 426 q 54 462 53 446 q 58 492 56 477 q 66 519 61 507 q 74 547 71 530 q 94 575 77 564 q 95 585 91 582 q 98 597 99 589 q 114 625 109 609 q 126 658 119 642 q 135 673 136 670 q 140 684 134 675 q 157 703 145 693 q 174 731 170 713 q 213 765 203 751 q 229 777 225 776 q 237 780 233 777 q 246 788 240 783 q 256 794 252 793 q 264 798 260 795 q 271 802 267 800 q 283 810 274 804 q 311 823 293 817 q 338 833 330 830 q 354 845 347 836 l 377 846 q 385 854 385 846 q 444 872 382 872 l 469 865 q 491 873 480 868 q 515 869 503 868 q 536 867 528 869 q 549 863 544 865 q 559 858 555 860 q 570 857 564 856 q 583 855 575 859 q 592 853 590 852 q 601 852 594 854 q 614 842 608 850 q 629 829 620 833 q 645 822 637 826 q 661 815 652 818 q 671 801 665 807 q 681 789 677 795 q 690 778 685 784 q 705 754 694 772 q 728 736 716 736 q 738 713 732 724 l 747 694 q 759 668 754 682 q 766 652 764 654 q 770 648 769 651 q 772 640 772 644 q 776 623 772 635 q 788 590 780 610 q 800 547 796 570 q 808 516 804 524 q 812 503 811 509 q 812 495 814 498 q 811 487 811 492 l 819 450 l 819 434 l 818 403 q 816 387 818 396 q 811 365 814 378 q 805 329 808 351 q 788 294 802 307 q 777 262 785 275 q 765 232 768 250 q 751 222 755 229 q 739 209 746 214 q 732 179 739 195 q 713 155 719 161 q 699 138 707 148 q 670 103 692 127 q 682 91 673 90 q 689 71 681 76 q 719 27 712 52 q 730 13 726 20 q 740 -1 735 5 q 755 -11 745 -8 q 758 -22 753 -19 q 766 -33 764 -26 q 774 -47 769 -39 q 785 -64 780 -56 q 812 -84 808 -75 q 841 -94 826 -85 q 875 -84 856 -103 q 904 -52 898 -65 q 913 -20 910 -39 q 922 1 924 -5 q 924 7 920 7 q 911 24 921 16 q 897 37 901 31 q 887 46 894 43 q 869 31 879 42 q 859 12 859 19 q 854 1 860 4 q 825 -1 845 -9 q 816 50 810 22 q 842 90 822 77 q 878 103 863 103 q 892 99 888 98 q 905 96 897 100 q 918 88 914 91 q 926 83 921 85 q 940 79 932 80 q 967 61 960 77 m 674 502 l 675 519 q 670 543 675 530 q 664 566 665 556 q 661 582 663 576 q 656 590 658 587 q 649 609 654 593 q 647 640 644 625 q 636 654 635 652 q 635 662 637 655 q 630 677 632 669 q 621 701 628 685 q 603 728 613 716 q 586 755 593 741 q 570 769 576 761 q 558 780 563 777 q 551 787 553 783 q 540 796 548 796 q 529 803 532 796 q 518 798 522 800 q 505 795 514 795 q 486 801 496 802 q 465 804 475 800 q 448 808 456 808 l 438 808 q 421 803 429 804 q 408 800 414 802 q 399 795 401 798 q 391 790 396 792 q 381 788 387 788 q 368 785 376 788 q 353 776 361 781 q 335 773 345 770 q 321 762 328 766 q 308 752 315 758 q 296 739 301 746 q 283 728 292 731 q 273 706 281 715 q 259 688 264 697 q 251 670 254 680 q 245 652 248 661 q 239 635 243 643 q 235 616 236 627 q 229 598 228 608 q 224 570 229 589 q 221 537 218 551 l 212 522 q 208 491 213 507 q 201 454 203 475 q 205 403 199 433 q 213 364 212 373 q 217 349 214 355 q 219 338 220 342 q 222 319 218 334 q 235 286 227 305 q 247 258 244 266 q 249 245 250 251 q 250 236 248 240 q 257 227 252 232 q 264 216 262 222 q 270 203 267 210 q 275 191 273 197 q 283 181 283 183 q 283 176 282 179 q 289 170 285 174 q 296 164 293 167 q 320 133 307 140 q 334 123 334 126 q 347 115 346 114 q 358 109 349 115 q 373 99 368 103 q 382 93 378 95 q 389 92 385 91 q 399 91 393 92 q 411 88 404 90 q 425 84 418 87 q 476 88 464 80 q 484 90 480 90 q 493 92 487 90 q 505 98 499 95 q 524 111 510 102 q 551 144 553 129 q 539 169 548 160 q 520 186 530 178 q 505 200 510 195 q 495 205 500 205 q 487 221 494 213 q 472 241 480 229 q 433 308 437 286 q 433 319 435 316 q 433 323 431 323 q 450 337 435 332 q 474 341 464 342 q 490 336 484 340 q 503 332 496 331 q 513 317 507 324 q 524 304 518 311 q 544 265 530 281 q 567 231 557 250 q 592 204 590 214 q 597 191 594 194 q 628 199 620 187 q 639 220 636 212 q 644 233 642 228 q 650 250 647 239 q 659 271 654 260 q 668 303 670 294 q 670 321 666 312 q 675 335 674 330 q 674 345 675 340 q 677 361 673 350 q 680 380 681 372 q 680 396 680 389 q 685 415 681 403 l 681 439 q 677 473 680 460 q 674 502 675 487 z "},"R":{"ha":844,"x_min":4,"x_max":971,"o":"m 117 770 l 122 807 q 120 816 122 811 q 119 836 118 821 q 124 873 121 850 q 126 918 127 895 q 71 917 99 916 q 18 914 43 918 q 9 928 14 921 q 4 945 5 935 q 14 955 11 948 q 26 960 16 962 q 35 966 31 963 q 50 971 39 970 q 69 977 61 972 q 91 978 77 981 q 123 979 104 975 q 145 983 141 982 q 151 989 149 983 q 158 985 156 989 q 170 983 160 982 q 187 991 179 983 q 199 989 193 987 q 212 992 205 991 q 224 992 218 993 q 241 996 231 991 q 261 998 252 1000 q 275 1002 270 996 q 295 1000 282 1000 q 315 1005 308 1000 q 342 1002 336 1000 q 365 1002 349 1005 q 415 998 381 998 q 467 994 449 997 q 494 988 484 990 q 510 986 505 986 q 525 981 515 986 q 539 969 534 975 q 550 960 544 963 q 564 955 556 958 q 579 949 571 952 q 595 937 587 945 q 617 926 604 929 q 640 907 629 911 q 662 886 644 897 q 669 870 663 876 q 677 859 674 864 q 682 849 681 853 q 686 837 682 845 q 695 820 690 829 q 706 794 700 811 q 722 762 712 777 q 723 732 719 746 q 727 713 727 718 q 733 694 727 709 q 734 667 739 678 q 727 649 728 655 q 726 635 726 643 q 725 617 727 628 q 724 604 723 606 q 724 597 726 601 q 712 582 712 586 q 710 571 712 578 q 703 559 708 564 q 697 538 697 555 q 690 531 692 536 q 686 522 689 526 q 682 512 684 517 q 677 503 681 507 q 665 492 673 498 q 655 479 658 487 q 648 474 650 480 q 637 471 646 468 q 627 459 631 465 q 615 450 623 453 q 604 446 608 448 q 589 441 600 444 q 571 433 579 438 q 559 428 563 433 q 549 426 555 423 q 530 414 543 416 q 510 401 517 412 q 526 372 513 385 q 553 349 540 359 q 580 300 555 338 q 608 248 605 263 q 614 227 612 232 q 623 207 617 221 q 633 177 628 193 q 644 147 639 161 q 652 128 650 133 q 657 117 654 123 q 662 106 661 111 q 668 85 663 102 q 681 37 673 69 q 693 -5 689 4 q 700 -22 697 -15 q 706 -39 703 -30 q 713 -55 709 -47 q 718 -68 716 -62 q 724 -81 719 -73 q 735 -98 730 -88 q 744 -112 741 -103 q 754 -127 747 -121 q 768 -133 768 -132 q 773 -136 769 -134 q 817 -138 784 -141 q 856 -127 850 -134 q 874 -116 861 -121 q 890 -106 887 -111 l 901 -92 q 908 -72 905 -76 q 913 -60 911 -68 q 914 -41 916 -53 q 913 -19 913 -30 q 909 -10 916 -14 q 902 0 903 -7 q 898 9 901 7 q 890 16 894 12 q 876 25 887 20 q 852 20 865 30 q 829 -7 838 9 l 798 -5 q 785 14 788 1 q 776 37 783 26 q 784 54 776 46 l 796 66 q 803 77 800 71 q 825 83 822 83 q 833 87 827 84 q 855 98 840 90 q 882 100 871 106 q 906 91 892 94 q 909 83 909 88 q 913 76 910 79 q 926 66 922 71 q 939 60 930 61 q 957 32 948 46 q 963 -5 966 18 q 970 -49 971 -31 q 970 -71 968 -66 q 966 -85 971 -76 l 956 -106 q 935 -138 943 -130 q 922 -153 928 -145 q 908 -169 917 -160 q 890 -178 899 -178 q 873 -184 882 -178 q 842 -190 865 -190 q 814 -186 819 -190 q 758 -187 789 -206 q 731 -184 746 -180 q 675 -155 697 -161 q 673 -146 673 -152 q 674 -133 674 -140 q 658 -132 663 -133 q 648 -115 658 -129 q 635 -93 639 -100 q 629 -84 631 -85 q 614 -73 617 -79 q 608 -64 610 -66 q 598 -49 605 -62 q 568 11 583 -19 l 562 26 q 551 53 557 37 q 517 149 517 134 q 506 160 511 155 q 494 186 502 182 q 491 202 496 197 q 488 218 486 208 q 470 256 479 225 q 461 292 461 288 q 460 303 461 297 q 456 315 460 309 q 452 331 452 320 q 428 354 441 343 q 404 380 415 365 q 343 410 372 384 q 334 410 338 411 q 323 411 330 410 q 311 416 317 412 q 296 418 305 420 q 287 414 288 416 q 278 402 286 412 q 275 378 270 392 q 280 350 281 363 q 277 319 279 336 q 275 297 275 302 l 281 212 q 277 193 281 205 l 278 165 q 277 138 277 153 l 277 113 q 275 101 274 103 q 275 88 277 99 q 274 68 273 77 q 274 41 275 58 q 269 4 273 24 q 274 -35 264 -16 q 305 -41 296 -42 l 320 -37 q 342 -40 336 -41 q 359 -42 349 -39 q 363 -52 362 -46 q 365 -62 363 -57 q 369 -71 370 -64 q 368 -84 368 -77 q 326 -90 351 -96 q 319 -95 319 -88 q 313 -102 319 -102 q 306 -101 309 -98 q 294 -105 302 -104 q 277 -103 286 -106 q 239 -115 254 -94 q 218 -110 232 -110 q 199 -118 205 -110 q 188 -113 194 -111 q 175 -118 182 -115 q 153 -115 164 -110 q 128 -123 142 -121 q 109 -130 114 -125 q 95 -134 104 -134 l 91 -133 q 75 -137 83 -133 q 41 -123 57 -146 q 44 -109 43 -115 q 47 -96 45 -102 q 58 -92 53 -91 q 79 -84 69 -94 q 103 -77 81 -83 q 125 -70 125 -72 q 136 -66 125 -68 q 153 -54 148 -65 q 151 -37 155 -43 q 145 -22 148 -31 q 144 17 148 -3 q 141 48 140 37 q 144 64 142 60 q 145 73 145 69 l 142 95 q 142 105 141 100 q 141 134 144 110 l 138 159 q 142 178 142 171 l 140 205 q 139 219 138 212 q 140 233 140 227 q 136 252 134 251 q 136 259 137 254 l 132 286 q 132 326 129 305 q 134 361 134 346 l 134 393 q 133 420 134 410 l 130 442 q 131 479 129 457 q 132 507 133 502 q 130 519 130 513 l 130 548 l 118 606 l 119 631 q 122 665 122 647 l 122 684 q 120 691 122 688 q 117 703 118 694 q 118 727 115 712 q 121 750 121 742 q 117 770 121 758 m 415 944 l 320 941 q 270 925 296 921 q 258 914 267 918 q 245 897 250 910 q 249 867 240 883 q 258 839 258 850 q 263 819 259 827 l 264 780 q 264 734 266 757 q 263 694 263 712 q 264 662 263 675 q 267 636 266 648 q 266 612 267 624 q 268 583 264 600 q 270 557 271 566 q 271 538 269 549 q 273 514 273 528 q 278 494 273 500 q 277 481 279 488 q 282 476 275 475 q 290 471 283 469 q 323 470 296 473 q 370 477 351 467 q 453 477 415 456 q 486 488 468 486 q 501 504 492 499 q 518 515 510 509 q 524 527 521 524 q 525 540 528 530 q 552 572 543 547 q 558 578 553 578 q 563 585 563 578 q 564 591 566 585 q 568 609 562 597 q 574 642 574 621 q 585 672 586 652 q 591 709 583 692 q 581 739 583 722 q 581 754 582 745 q 581 769 581 764 q 581 782 582 774 q 576 795 579 789 q 575 810 572 802 q 559 850 563 826 q 547 861 548 861 q 539 867 545 860 q 529 882 533 875 q 518 892 525 890 q 505 905 511 902 q 494 911 498 907 q 488 916 491 914 q 480 920 484 917 q 444 940 461 941 q 415 944 426 939 z "},"S":{"ha":559,"x_min":9,"x_max":534,"o":"m 290 1076 l 335 1086 q 352 1079 343 1082 q 369 1072 361 1076 q 391 1053 377 1054 q 420 1034 410 1053 q 439 1010 430 1020 q 480 1012 465 998 l 499 1034 q 529 1025 514 1047 q 534 1000 537 1015 q 524 972 528 985 q 517 951 521 959 q 506 931 514 943 q 498 911 498 920 q 463 854 465 887 q 446 829 449 838 q 425 823 434 827 q 404 823 415 819 q 399 842 401 834 q 397 863 396 849 q 410 893 397 876 q 416 928 422 910 q 401 950 410 947 q 389 968 392 954 q 354 997 369 978 q 326 1012 335 996 q 296 1002 308 1013 l 277 985 q 262 975 270 979 q 249 932 248 952 q 248 900 250 913 q 248 875 245 887 q 254 854 251 863 q 256 831 256 845 q 258 802 255 817 q 265 777 262 788 q 270 758 269 766 q 279 732 271 749 q 289 703 286 716 q 297 680 292 690 q 313 652 308 667 q 327 624 319 637 q 344 601 335 610 q 357 579 353 591 q 378 571 369 571 q 382 541 378 557 q 393 525 387 533 q 403 508 399 517 q 411 490 407 499 q 420 471 415 480 q 431 454 425 463 q 441 437 437 445 q 450 423 450 426 q 454 412 449 420 q 472 370 460 404 q 498 321 484 335 q 497 301 495 311 q 499 281 499 292 q 502 249 499 270 q 500 211 505 228 q 497 189 496 194 q 492 176 498 184 q 483 159 487 167 q 475 144 479 151 q 469 134 472 138 q 465 123 467 129 q 463 115 464 118 q 450 106 450 107 q 433 91 450 103 l 425 79 q 404 53 412 57 q 389 46 389 49 q 385 47 388 43 q 376 37 378 37 q 372 36 374 38 q 368 31 370 34 q 361 24 366 27 q 349 18 357 20 q 336 14 342 16 q 327 11 331 12 l 311 5 q 274 -14 283 -4 q 267 -9 270 -12 q 255 -7 264 -7 q 244 -16 245 -8 q 227 -14 236 -11 q 209 -18 217 -18 l 190 -15 q 163 -14 170 -18 q 141 -5 156 -11 q 119 2 126 0 q 110 18 111 4 q 87 24 99 18 q 73 34 76 30 q 62 46 71 38 q 52 60 54 54 q 48 74 49 65 q 45 92 47 83 q 37 112 37 104 q 27 122 38 119 q 26 134 28 130 q 23 148 23 138 q 16 159 23 157 q 9 170 9 160 q 12 187 9 179 q 16 237 23 220 q 41 273 30 256 q 65 305 53 289 q 102 326 88 307 q 119 327 111 319 q 136 334 127 335 q 149 336 144 332 q 175 335 153 339 q 211 330 197 335 q 225 321 225 326 q 254 302 248 311 q 266 282 259 293 q 271 277 269 282 q 277 267 274 271 q 289 199 293 248 q 284 176 289 187 q 278 152 279 164 q 243 129 275 125 q 229 139 235 129 q 213 151 222 149 q 207 176 210 164 q 199 203 203 189 q 174 269 187 264 q 152 269 167 271 q 131 260 137 267 q 121 253 125 252 q 113 250 118 254 q 101 238 107 245 q 88 227 95 231 q 99 137 66 161 q 103 119 99 123 q 106 106 104 109 q 107 91 107 104 q 123 79 115 84 q 134 62 130 73 q 159 54 151 62 q 178 39 167 46 q 196 41 189 43 q 214 34 203 38 q 294 64 258 38 q 305 71 300 71 q 328 94 311 72 q 346 109 343 104 q 365 133 349 114 q 378 165 381 152 q 378 195 376 179 q 376 220 376 212 q 374 236 377 228 q 368 252 370 244 q 360 275 366 260 q 340 311 354 290 q 323 362 326 331 q 306 386 315 376 q 290 410 297 396 q 272 431 281 420 q 259 460 263 442 q 239 488 247 472 q 222 516 231 505 q 213 532 213 528 q 202 549 213 540 q 191 589 191 557 q 182 600 184 593 q 160 627 174 616 q 146 681 140 646 q 139 692 144 689 q 132 702 134 694 q 130 718 130 709 q 127 735 129 727 q 123 751 125 743 q 122 765 121 758 l 121 785 q 115 803 121 787 l 113 826 l 118 846 l 115 872 q 121 924 115 913 q 128 944 126 935 q 131 962 130 954 q 138 979 132 971 q 149 990 149 987 q 153 1000 148 993 q 163 1012 157 1008 q 173 1021 168 1016 q 180 1030 178 1025 q 188 1038 183 1035 q 196 1041 193 1040 q 216 1049 199 1042 q 244 1066 232 1057 q 265 1078 256 1076 q 278 1078 274 1080 q 290 1076 282 1076 z "},"T":{"ha":741,"x_min":15,"x_max":723,"o":"m 716 861 l 711 846 q 714 830 711 838 q 715 812 718 822 q 705 792 713 802 q 689 772 697 783 q 680 774 684 770 q 671 776 677 777 q 656 792 666 784 q 646 819 647 800 q 637 852 644 838 q 627 873 629 867 q 572 879 618 872 q 551 876 559 875 q 540 878 543 878 q 513 871 526 878 q 490 868 499 864 q 469 871 480 872 q 454 871 457 871 q 449 871 452 872 q 445 837 439 859 q 449 810 450 815 q 452 789 448 804 q 454 762 457 774 q 453 743 450 750 q 453 729 456 735 q 450 716 450 723 l 454 694 q 455 675 456 684 q 458 653 454 666 q 461 635 463 640 q 460 608 460 631 q 467 530 460 585 l 463 510 l 472 415 l 469 384 l 472 355 l 479 326 l 481 304 q 479 289 481 297 q 476 270 477 281 q 477 245 475 259 q 479 220 479 231 q 477 205 479 210 q 477 189 476 199 q 477 172 479 178 q 475 161 475 167 l 479 117 l 479 81 q 481 58 479 72 q 498 45 494 43 q 510 47 503 47 l 522 37 q 543 34 528 38 q 572 3 582 23 q 556 -24 567 -12 q 543 -24 549 -27 q 532 -20 537 -20 q 501 -30 518 -31 q 470 -31 484 -28 q 448 -34 456 -33 q 429 -36 439 -35 q 408 -35 418 -37 q 387 -36 399 -34 q 363 -43 374 -38 q 338 -47 351 -47 q 313 -43 324 -46 q 289 -41 302 -41 q 262 -47 275 -42 q 243 -50 248 -52 q 233 -43 237 -49 q 222 -35 228 -38 q 228 -4 225 -14 q 252 4 239 3 q 275 8 266 5 q 290 14 283 11 q 305 19 297 16 q 321 23 313 22 q 337 31 330 24 q 345 39 345 38 q 353 53 346 41 q 359 71 361 65 q 357 85 357 77 l 359 102 q 357 141 357 118 q 355 170 357 164 q 351 182 353 176 q 351 193 349 189 q 354 205 354 198 q 342 290 342 232 q 339 387 342 349 l 342 407 l 339 427 q 336 456 342 446 q 327 522 349 487 q 332 536 334 529 q 334 559 331 544 q 334 583 336 575 q 330 600 331 591 q 329 613 328 608 q 330 625 330 618 l 324 640 l 327 658 q 328 680 327 678 q 321 716 321 693 l 321 765 l 320 823 q 321 833 320 826 q 321 844 323 841 q 316 850 320 848 q 315 860 312 853 q 302 858 305 863 q 290 853 298 853 l 227 856 l 208 860 l 155 859 q 140 848 146 854 q 122 844 134 842 q 104 832 115 837 q 91 821 94 827 q 85 791 94 800 q 73 774 76 783 q 68 756 69 766 q 57 748 68 746 q 36 751 46 750 q 27 762 26 751 q 20 768 20 766 q 24 785 20 770 q 24 819 28 800 q 25 844 27 836 q 23 860 23 853 l 27 891 q 24 903 27 898 q 27 910 20 907 q 20 930 19 918 q 15 952 22 941 q 19 991 26 968 q 71 1001 34 1010 q 83 970 79 987 q 92 933 87 952 q 126 924 106 924 l 148 928 q 185 927 168 924 q 216 932 202 930 q 245 932 229 933 q 269 929 262 930 q 282 930 275 928 q 297 931 294 929 q 304 935 300 933 l 330 933 l 355 935 q 420 939 363 935 q 463 941 442 937 q 511 941 486 943 q 560 939 537 939 q 576 941 575 943 q 583 940 578 940 q 607 948 600 948 q 619 951 614 948 q 633 958 624 954 q 647 968 642 963 l 647 977 l 655 998 q 659 1008 654 1001 q 663 1019 663 1015 q 671 1038 663 1023 q 688 1055 678 1054 q 705 1046 699 1055 q 720 1031 711 1038 q 721 1007 722 1016 q 720 985 720 998 l 723 970 q 720 954 718 958 q 723 944 722 951 q 718 935 716 941 q 716 914 719 929 q 713 882 713 899 l 716 861 z "},"U":{"ha":803,"x_min":23,"x_max":804,"o":"m 618 624 q 629 681 614 658 q 626 694 627 688 q 621 719 625 700 q 621 761 617 738 q 627 811 624 784 q 623 865 631 838 q 627 874 629 869 q 625 888 624 879 q 621 903 625 897 q 623 937 617 909 q 623 962 623 949 q 619 983 623 974 q 611 996 616 991 q 604 1006 606 1000 q 570 1008 586 1006 q 538 1012 555 1010 q 532 1027 536 1023 q 528 1039 528 1031 q 536 1055 529 1047 q 552 1065 543 1062 q 597 1061 562 1069 q 632 1054 616 1054 q 655 1051 648 1054 q 663 1056 661 1053 q 670 1059 665 1059 q 698 1053 684 1053 q 741 1057 712 1053 q 795 1057 770 1061 q 804 1006 819 1025 q 760 1006 789 993 q 749 1001 751 1005 q 735 997 746 997 q 730 986 728 991 q 724 978 732 981 q 722 966 726 972 q 718 956 719 960 q 718 948 716 951 q 720 939 720 945 q 715 927 719 933 q 711 913 711 921 q 715 882 715 903 q 715 864 718 871 l 708 829 q 711 800 708 818 q 704 772 715 781 q 704 758 707 765 q 699 745 701 751 q 701 703 704 719 q 703 662 697 688 q 701 647 701 656 q 699 630 701 637 q 695 606 696 623 q 688 581 694 590 q 695 559 696 575 q 688 536 694 543 q 687 515 686 525 q 686 496 688 505 q 678 483 684 487 q 671 471 673 479 q 673 452 670 464 q 674 430 677 441 l 670 415 q 664 394 667 404 q 659 374 661 384 q 648 353 656 363 q 638 329 640 342 q 637 311 636 316 q 637 302 639 307 q 631 294 635 298 q 629 283 627 289 q 612 258 612 270 q 609 240 612 247 q 590 221 606 233 q 585 199 591 213 q 537 178 556 176 q 531 171 533 176 q 525 163 529 165 q 496 148 503 153 q 479 138 488 142 q 460 134 471 134 q 439 141 450 134 q 431 138 435 140 q 424 134 427 136 q 416 134 420 133 q 407 134 411 134 l 384 129 q 358 136 374 129 q 326 138 342 142 q 300 142 311 134 q 287 152 289 149 q 274 163 285 155 q 254 172 263 171 q 240 176 244 172 q 234 193 236 179 q 227 211 232 208 q 213 218 222 214 q 201 237 203 222 q 174 297 194 273 q 173 307 175 302 q 169 315 171 311 q 167 325 167 320 q 164 334 167 330 l 156 349 q 140 388 137 381 q 141 404 142 395 l 133 450 q 125 461 133 458 q 124 490 123 480 q 122 518 125 500 l 118 533 q 117 553 117 543 q 114 572 118 563 q 108 593 110 582 q 107 619 106 604 q 102 650 109 635 q 106 665 102 661 q 99 707 98 686 q 102 753 100 727 l 104 772 q 98 791 103 777 q 99 819 96 804 q 102 852 102 833 q 98 894 102 872 q 102 935 94 916 l 102 1004 q 95 1011 100 1009 q 91 1021 90 1013 q 75 1022 84 1024 q 62 1031 65 1020 q 43 1028 54 1027 q 23 1048 28 1032 q 30 1078 18 1063 q 72 1073 62 1078 q 104 1079 85 1081 q 134 1088 122 1077 q 144 1086 141 1090 q 151 1085 146 1081 q 206 1091 180 1085 q 260 1093 232 1097 q 266 1084 262 1088 q 275 1071 270 1081 q 279 1057 281 1061 q 267 1042 278 1054 q 242 1040 252 1040 q 225 1027 232 1039 q 227 996 228 1012 q 231 967 227 979 q 236 947 236 955 l 236 917 l 241 890 l 239 869 l 241 854 l 239 838 l 244 812 q 243 789 241 795 q 245 779 245 783 l 245 751 q 251 734 251 735 l 251 707 l 255 684 q 254 676 256 680 q 253 668 252 673 q 255 659 254 663 q 258 647 256 655 q 259 629 260 639 q 262 602 258 617 q 267 564 267 587 q 269 532 266 541 q 271 514 271 522 l 281 473 q 275 452 281 465 q 283 411 270 438 q 290 362 281 377 l 285 342 q 294 322 290 332 q 304 308 297 312 q 315 276 304 289 q 328 255 326 263 q 336 248 334 252 q 344 241 339 244 q 352 235 349 239 q 360 227 355 231 q 369 224 365 224 q 385 217 373 224 q 406 211 396 210 q 426 205 416 212 q 446 209 437 209 q 479 218 463 208 q 508 237 506 231 q 524 247 510 244 q 528 256 525 252 q 530 269 532 260 q 547 282 545 273 q 557 302 549 292 q 562 327 555 320 q 566 349 568 334 q 585 369 576 349 q 590 390 591 382 q 589 404 589 397 l 597 425 q 597 464 594 456 q 600 479 600 472 q 601 494 600 486 q 604 506 602 502 q 606 514 606 510 q 606 522 606 518 q 604 533 606 526 q 609 565 608 549 q 615 592 610 581 q 619 610 620 604 q 618 624 618 616 z "},"V":{"ha":736,"x_min":-19,"x_max":760,"o":"m 690 1051 l 742 1048 q 752 1036 745 1042 q 760 1013 760 1029 q 732 979 760 996 q 715 984 722 985 q 696 985 709 983 l 674 974 q 668 960 671 966 q 667 943 665 954 q 659 930 661 937 q 655 914 658 924 q 646 906 647 911 q 637 875 643 878 q 612 784 631 804 l 612 760 q 606 751 606 757 q 602 742 606 745 l 602 704 q 593 679 593 693 q 589 654 593 665 q 578 638 585 644 q 570 625 572 632 q 564 593 571 609 q 551 560 556 578 q 540 526 545 543 q 534 503 534 510 q 528 490 533 496 q 527 469 532 476 q 525 446 522 461 q 511 430 519 444 q 500 361 505 396 q 480 301 495 327 q 480 274 487 283 q 471 258 473 264 q 467 239 473 244 q 463 220 461 233 q 457 212 458 217 q 449 208 456 208 q 442 175 449 193 q 437 140 435 157 q 429 126 431 133 l 420 111 q 408 92 408 99 q 400 77 407 84 q 393 71 393 71 q 389 67 392 71 q 371 60 385 64 q 340 71 357 57 q 315 98 317 88 q 301 119 312 109 q 294 161 305 137 q 283 198 282 184 q 279 208 282 205 q 264 248 263 224 q 250 294 254 269 q 240 332 247 320 q 231 349 233 345 q 225 354 229 353 q 210 423 220 389 q 197 461 199 457 q 192 474 195 465 q 186 495 189 483 q 179 516 183 507 q 175 530 175 525 q 167 537 175 536 q 169 545 171 540 q 167 555 167 549 q 151 617 167 604 q 138 662 151 650 q 133 694 140 684 q 123 722 126 705 q 115 749 121 739 q 107 767 110 760 q 103 783 104 774 q 100 800 102 792 q 95 816 98 808 q 91 828 92 823 q 90 838 90 833 q 91 846 91 842 q 87 862 85 857 q 88 872 88 867 q 85 889 88 884 q 76 906 81 894 q 56 909 65 907 q 40 908 47 910 q 27 901 33 906 q 13 894 22 895 q -3 904 4 892 q -19 925 -11 916 q -9 960 -19 929 q 23 965 8 960 q 52 967 38 970 q 67 975 60 970 q 83 972 75 979 q 121 993 96 989 q 163 1009 145 997 q 206 1011 179 998 q 245 1019 233 1024 q 262 1010 258 1015 q 264 993 267 1005 q 260 968 270 971 q 217 922 232 956 q 232 878 208 906 q 235 867 233 871 q 236 854 237 863 q 245 835 243 848 q 255 817 247 822 q 256 802 252 810 q 264 781 259 793 q 277 757 269 768 q 278 734 274 746 q 288 706 282 723 q 300 657 293 689 q 311 616 307 625 q 319 592 315 606 q 326 560 323 578 q 335 528 330 543 l 339 511 q 344 488 342 503 q 349 465 346 472 q 354 454 351 457 q 358 445 357 450 q 359 431 359 439 q 360 410 358 422 q 368 382 362 399 q 376 349 373 366 q 378 314 378 332 q 391 283 378 296 l 391 277 q 397 254 391 254 q 407 264 404 252 q 407 288 410 277 q 415 323 418 307 q 420 334 418 330 q 425 344 423 338 q 426 357 427 350 q 427 372 425 365 q 435 386 435 382 q 439 393 435 389 q 446 401 442 396 q 451 412 449 407 q 452 425 453 418 q 452 441 450 431 q 458 464 453 452 q 458 490 463 476 q 465 499 465 491 q 471 510 465 507 q 476 531 472 522 q 480 555 480 540 l 492 570 q 498 621 488 598 q 508 648 507 643 q 516 664 509 652 q 523 682 524 675 q 525 695 522 688 q 530 718 528 703 q 534 747 532 734 q 556 798 537 761 l 556 815 q 576 878 576 846 q 590 911 586 888 q 604 944 594 935 q 606 953 606 951 q 609 963 606 955 q 608 987 612 971 q 595 1000 597 998 q 585 1004 594 1002 q 575 1008 575 1005 q 568 1014 575 1012 q 557 1011 560 1016 q 548 1008 555 1006 q 534 1072 525 1028 q 543 1074 538 1069 q 552 1078 548 1078 q 562 1076 556 1078 q 575 1069 567 1073 q 592 1064 583 1066 q 608 1060 601 1062 q 620 1055 616 1058 q 634 1050 624 1053 q 660 1050 644 1048 q 690 1051 675 1051 z "},"W":{"ha":1023,"x_min":16,"x_max":1076,"o":"m 662 534 l 671 495 q 677 465 671 483 q 681 437 682 448 q 689 377 680 426 q 695 353 697 359 q 694 340 693 347 l 703 308 l 700 292 q 704 277 701 283 q 709 263 707 270 q 717 269 716 262 q 721 280 718 277 q 725 286 724 283 q 729 300 726 289 q 734 315 732 312 q 736 327 735 317 q 741 339 736 336 q 745 358 745 342 q 753 376 747 365 q 757 396 758 388 q 757 410 755 404 l 764 423 q 770 443 768 433 q 774 460 772 453 q 777 471 777 467 q 777 486 776 475 q 784 507 779 498 q 790 522 789 517 q 793 531 791 528 q 794 538 796 534 q 795 554 792 543 q 802 582 799 566 q 807 610 804 598 q 810 627 810 621 q 817 636 811 632 q 819 674 815 650 l 825 701 q 827 715 825 705 q 833 746 830 724 q 842 779 837 768 l 842 799 q 852 827 848 811 l 857 849 q 858 860 859 854 q 859 871 857 865 q 866 888 861 878 q 868 913 871 898 q 875 921 873 916 q 879 929 876 926 l 882 952 q 881 964 884 962 q 880 977 878 967 q 886 990 880 986 q 887 1005 892 994 q 869 1010 879 1013 q 850 1008 860 1008 q 838 1008 841 1009 q 832 1006 836 1008 q 825 1003 829 1005 q 817 1002 821 1001 q 803 1020 814 1009 q 793 1045 792 1031 q 803 1059 795 1059 q 823 1062 811 1059 q 842 1068 834 1065 q 859 1072 849 1072 l 875 1065 q 892 1065 888 1067 q 898 1062 895 1062 l 925 1065 q 955 1065 947 1062 q 971 1072 963 1069 l 986 1067 l 1001 1072 q 1010 1069 1005 1072 q 1019 1067 1015 1066 q 1028 1074 1023 1069 q 1040 1080 1034 1078 q 1053 1076 1053 1074 q 1057 1077 1054 1077 q 1066 1066 1062 1074 q 1076 1051 1070 1058 q 1070 1034 1074 1043 q 1063 1017 1066 1024 q 1036 1012 1046 1005 q 1017 1019 1025 1019 q 1006 1014 1010 1012 q 997 1013 1002 1016 q 983 1005 991 1010 q 966 997 974 1000 q 964 989 962 993 q 963 979 966 986 q 957 973 960 972 q 951 967 954 974 q 948 916 955 940 q 920 845 929 854 q 917 790 924 810 q 910 760 910 770 q 907 739 910 749 q 900 719 905 730 q 898 697 895 708 l 888 677 q 872 575 895 643 q 866 560 871 568 q 863 546 861 552 q 864 533 865 540 q 858 515 863 526 q 857 491 853 503 q 840 444 840 463 q 835 414 840 426 q 826 372 830 403 q 816 353 817 365 q 808 330 815 340 q 791 260 803 285 q 774 212 774 222 l 774 193 q 766 178 770 186 q 758 160 761 171 q 756 134 754 149 q 755 107 758 118 q 749 91 753 96 q 743 79 746 85 q 741 68 741 73 q 739 58 741 62 q 734 49 736 53 q 730 39 732 45 q 728 26 728 34 q 724 11 728 18 q 711 -1 712 1 q 706 -5 709 -3 q 696 -8 703 -7 q 685 -15 689 -9 q 675 -11 680 -12 q 667 -7 671 -9 q 656 -5 662 -5 q 646 -1 650 -4 q 636 8 642 1 q 624 16 631 15 q 619 57 620 37 q 608 95 618 77 q 608 114 608 104 q 604 138 609 123 q 598 161 598 152 q 594 181 598 170 q 587 195 590 193 q 583 203 585 198 q 583 216 582 208 q 579 236 583 224 q 574 261 575 248 q 570 286 572 274 q 566 298 567 297 q 564 301 564 300 l 564 321 q 551 370 553 355 q 545 399 548 385 q 538 419 538 415 q 537 427 538 423 l 533 442 q 530 471 530 457 q 519 498 529 484 q 515 536 522 519 q 508 555 509 552 q 508 564 507 559 q 505 578 509 568 q 505 599 502 589 q 500 623 507 609 q 498 648 495 636 q 477 684 487 677 q 469 663 471 674 q 465 642 468 652 q 458 624 457 628 q 456 616 458 620 q 451 608 454 612 q 446 599 448 604 q 444 589 444 594 q 443 578 445 583 q 440 569 441 574 q 437 554 439 564 q 428 527 434 544 q 420 498 422 510 q 418 483 418 487 q 403 439 418 461 q 396 420 399 425 q 396 404 393 415 q 390 397 391 401 q 385 382 389 392 q 382 368 381 372 q 382 359 384 363 q 375 350 380 354 q 368 340 370 346 q 364 310 368 321 q 365 283 361 298 q 361 276 362 281 q 359 265 361 271 q 355 255 357 259 q 351 246 353 251 q 351 237 350 241 q 351 224 353 232 q 345 205 350 217 q 345 182 339 193 q 335 154 338 171 q 327 123 332 137 q 314 119 321 119 q 298 116 307 118 q 290 111 290 114 q 279 108 290 107 q 262 117 269 109 q 252 127 256 125 q 241 134 247 130 q 227 170 235 161 q 227 212 233 187 q 220 248 220 237 l 214 263 q 216 278 214 271 q 212 302 217 285 q 209 333 208 319 q 208 356 210 347 q 203 371 206 365 q 199 385 201 377 q 196 398 197 392 q 193 414 195 404 q 193 426 191 425 q 194 430 194 427 l 187 454 q 186 465 187 458 q 184 479 184 471 q 182 498 183 488 q 173 520 174 513 q 165 534 172 528 q 166 545 164 541 q 167 554 168 548 q 165 569 165 560 q 159 589 164 578 q 156 606 153 600 q 151 616 156 614 q 145 625 146 618 q 145 659 149 639 q 141 684 141 680 q 140 694 141 689 q 136 702 138 699 q 132 713 134 705 q 130 732 130 720 q 123 750 130 743 q 118 802 130 773 q 100 838 106 831 l 100 849 q 103 857 100 854 q 41 888 76 891 q 28 898 37 897 q 16 906 20 899 q 16 924 14 914 q 22 943 19 933 q 50 949 28 947 q 77 955 71 951 q 90 959 83 959 l 141 966 q 164 978 152 966 q 178 983 172 983 q 193 985 183 982 q 212 985 203 989 q 229 983 220 982 q 243 987 237 983 q 256 993 250 990 q 285 991 277 994 q 305 990 293 989 q 315 964 315 975 q 309 946 315 954 q 300 932 302 939 q 229 886 255 920 q 235 860 229 871 q 240 839 240 849 q 242 821 240 829 q 247 805 244 812 q 252 790 250 798 q 252 777 254 783 q 254 763 251 770 q 261 749 256 755 q 263 727 266 742 q 273 697 271 715 q 278 663 275 680 q 283 631 281 646 q 289 601 286 616 q 292 593 292 597 q 296 578 292 589 q 299 561 300 568 q 300 544 298 553 q 307 526 302 534 q 312 488 312 517 l 312 442 q 319 420 313 433 q 327 407 324 407 q 340 431 335 407 q 348 460 346 454 q 350 471 350 467 q 351 481 350 476 q 358 498 353 487 q 363 515 363 510 q 368 524 362 521 l 370 547 q 381 574 378 559 q 390 605 384 589 q 396 627 396 621 q 400 637 396 633 q 404 648 404 642 q 410 669 403 655 q 416 697 416 682 q 433 743 422 704 l 438 758 q 437 766 438 762 q 438 774 437 770 q 444 787 439 777 q 450 807 448 796 q 458 827 453 818 q 461 863 454 846 q 461 891 468 879 q 471 914 469 902 q 502 939 476 939 q 538 935 528 940 l 555 926 q 570 911 568 911 q 576 901 571 911 q 582 880 581 891 q 588 854 583 869 q 593 830 593 838 q 602 794 601 806 q 605 774 602 783 q 612 745 608 765 q 621 712 620 723 q 629 694 623 701 q 647 625 629 665 q 648 583 643 602 q 662 534 662 541 z "},"X":{"ha":844,"x_min":-5,"x_max":865,"o":"m 484 414 q 500 358 483 395 q 502 343 498 349 q 508 332 506 338 q 510 320 510 326 q 513 308 510 315 q 522 292 515 301 q 532 274 528 283 q 540 258 537 264 q 561 227 543 252 q 583 187 579 201 q 608 141 594 152 q 619 113 610 123 q 629 83 628 102 q 650 69 642 71 q 660 46 651 54 q 673 23 669 38 q 705 -7 694 11 q 718 -9 713 -7 q 729 -16 722 -12 q 747 -18 736 -19 q 760 -14 758 -16 q 769 -8 762 -12 q 777 -3 770 -3 q 787 0 784 -4 q 793 14 787 9 q 798 26 800 18 q 804 33 804 31 q 808 41 803 35 q 806 58 808 49 q 806 73 804 66 q 807 83 807 79 q 803 95 807 88 q 782 105 787 103 q 765 103 777 107 q 751 95 751 94 q 743 81 750 96 q 697 73 727 46 q 728 155 688 121 q 749 171 739 163 q 768 174 760 168 q 787 177 776 180 q 800 170 798 174 q 810 163 802 167 q 825 159 818 159 q 835 147 831 153 q 849 140 838 141 q 850 125 846 129 q 865 99 868 117 q 863 60 863 81 q 864 23 864 39 q 859 -2 864 7 q 850 -16 854 -11 q 839 -30 846 -20 q 830 -47 831 -39 q 824 -60 829 -54 q 813 -71 819 -66 q 800 -83 807 -75 q 754 -90 774 -80 q 723 -88 738 -83 q 705 -80 709 -79 q 693 -77 701 -81 q 682 -72 685 -72 q 671 -68 678 -72 q 662 -62 665 -64 q 656 -58 659 -60 q 649 -58 654 -57 q 635 -55 644 -60 q 627 -48 627 -50 q 619 -41 627 -46 q 609 -30 612 -35 q 602 -22 606 -24 q 574 -1 587 -22 q 562 4 567 -1 q 547 16 557 9 q 537 27 537 23 q 524 48 534 41 q 513 62 513 56 q 507 68 514 68 q 498 94 507 77 q 488 101 492 98 q 479 108 483 104 q 472 116 476 111 q 461 119 468 121 q 457 130 458 125 q 453 140 456 134 q 446 151 450 146 q 437 163 441 156 q 431 179 434 171 q 426 193 429 187 l 403 233 q 397 242 400 237 q 389 250 395 247 q 385 263 388 256 q 380 277 382 270 q 370 292 369 290 q 366 304 370 294 q 357 317 361 313 q 343 324 354 321 q 313 308 315 317 q 301 277 311 298 q 285 238 292 256 q 275 218 278 220 q 268 209 273 217 q 258 195 263 201 q 254 179 254 190 q 242 165 244 175 q 234 142 240 155 q 218 115 228 129 q 202 83 209 100 q 214 71 208 71 q 227 73 221 71 q 237 77 233 75 q 250 81 240 79 q 285 75 259 83 q 280 45 289 54 q 266 35 271 35 q 254 31 260 34 q 243 22 248 27 q 233 14 239 18 q 210 16 222 22 q 184 18 198 9 q 175 15 179 18 q 164 10 171 12 q 151 9 157 8 q 136 9 145 11 q 119 2 127 7 q 102 -3 110 -3 q 88 -1 94 -3 q 75 -1 83 0 q 58 -7 68 -3 q 31 -7 47 -11 q 8 11 15 -4 q 12 31 5 27 q 23 46 19 35 q 46 52 35 46 q 69 61 57 58 l 100 69 q 109 76 106 72 q 117 83 111 80 q 124 96 118 95 q 131 107 130 98 q 136 117 132 117 q 145 121 141 118 q 159 157 145 133 q 172 187 174 180 q 178 192 176 187 q 182 200 179 197 q 190 210 184 203 q 195 221 195 216 q 202 237 195 227 q 214 260 209 248 q 228 278 218 271 q 245 324 233 305 q 263 357 256 343 q 264 371 270 370 q 262 378 259 372 q 277 390 273 381 q 289 406 281 399 q 300 424 297 419 q 304 435 304 429 q 302 450 305 442 q 300 469 298 457 q 279 486 281 483 q 272 511 281 503 q 264 537 263 519 q 251 549 256 543 q 240 563 245 556 l 239 581 q 222 619 231 600 q 198 650 214 639 l 198 659 q 201 671 198 665 q 186 712 193 692 q 167 747 180 732 q 155 779 164 766 q 150 812 156 796 q 138 833 144 827 q 134 861 133 846 q 133 891 136 876 q 117 928 122 907 q 114 954 113 948 q 95 964 110 960 q 75 974 80 967 l 34 968 l 19 966 q 7 966 12 964 q -5 970 1 968 q -3 1016 -16 981 q 6 1024 0 1023 q 15 1031 12 1025 q 62 1030 41 1025 q 93 1037 83 1035 q 111 1046 103 1039 q 129 1043 125 1043 q 140 1045 133 1043 q 153 1051 148 1047 q 185 1062 159 1055 q 224 1067 212 1069 q 248 1074 237 1066 q 294 1074 264 1069 q 342 1074 323 1080 q 347 1027 354 1043 q 320 1024 335 1019 q 300 1013 312 1013 q 281 1002 288 1013 q 273 951 274 971 q 293 911 273 930 q 293 886 294 897 q 298 869 292 876 q 318 810 302 841 q 340 761 334 779 q 351 736 346 743 q 359 722 357 728 q 369 703 362 715 q 377 686 376 692 l 382 671 q 386 656 385 663 q 392 638 387 650 q 402 611 397 627 q 422 585 407 595 q 441 624 441 591 q 465 640 458 627 q 476 671 472 652 q 509 726 499 688 q 517 736 517 732 q 524 742 518 739 q 534 763 528 754 q 543 787 540 772 q 553 794 551 788 q 557 806 555 800 q 565 815 564 808 q 572 822 566 822 q 587 855 575 838 q 596 876 598 872 q 600 886 594 879 q 605 892 597 891 q 614 895 613 892 q 619 903 616 901 q 620 917 623 906 q 630 926 623 920 q 640 940 637 933 q 649 954 643 947 q 654 967 655 960 q 659 979 654 974 q 654 990 665 985 l 618 990 q 587 1010 610 1001 q 583 1032 586 1024 q 582 1051 581 1040 q 598 1059 586 1059 q 617 1066 610 1059 q 670 1052 644 1054 q 704 1046 696 1050 q 822 1040 746 1051 q 831 1027 825 1032 q 838 1016 837 1023 q 835 1005 838 1009 q 829 996 831 1001 q 798 979 818 972 q 781 981 789 981 l 746 975 q 740 966 741 972 q 736 954 739 959 q 727 941 730 949 q 720 924 724 932 q 703 909 715 917 q 684 873 684 898 q 671 860 678 867 q 658 845 665 853 q 645 822 650 826 q 637 812 640 818 q 631 802 633 807 q 623 795 629 796 q 618 781 624 788 q 608 762 612 774 q 598 745 604 749 q 589 736 593 741 q 584 730 586 732 q 579 726 582 727 q 572 704 579 713 q 564 681 564 694 q 551 670 555 678 q 541 650 548 662 q 530 637 533 637 q 524 631 528 636 q 518 616 521 625 q 511 597 515 606 q 498 579 506 589 q 490 559 491 570 q 470 531 483 556 q 454 503 457 506 q 460 468 454 481 q 471 439 467 454 q 484 414 475 423 z "},"Y":{"ha":784,"x_min":-7,"x_max":848,"o":"m 467 526 l 467 518 q 461 510 467 515 q 460 488 461 491 q 457 469 458 484 q 458 429 456 453 q 460 390 461 406 q 457 366 458 374 q 456 351 456 358 l 456 324 l 452 293 l 453 273 l 453 258 q 451 238 453 248 q 450 213 449 228 q 450 180 450 198 l 446 165 q 448 140 448 145 q 446 129 448 134 l 448 95 q 450 54 448 68 q 456 12 453 39 q 486 0 469 0 l 509 -7 l 522 -7 q 541 -14 532 -7 q 546 -33 551 -20 q 530 -57 541 -46 q 519 -58 522 -60 q 509 -56 515 -56 q 467 -63 494 -65 q 419 -61 439 -61 l 376 -64 q 355 -62 365 -64 q 332 -61 345 -60 q 311 -66 319 -62 q 289 -69 302 -71 q 266 -64 275 -68 q 242 -61 256 -61 q 223 -65 228 -61 q 212 -67 218 -69 q 202 -60 206 -65 q 194 -52 198 -54 q 201 -20 194 -37 q 216 -13 212 -14 q 231 -10 221 -12 q 248 -6 241 -8 q 264 -2 255 -4 q 279 1 273 0 q 294 8 285 3 q 302 15 302 14 q 309 26 302 16 l 307 62 q 311 77 311 71 l 311 118 q 311 146 313 138 q 308 159 308 153 q 312 180 308 164 q 307 264 304 203 q 309 362 309 324 l 313 384 q 312 391 313 385 q 313 409 311 396 q 311 431 316 422 q 312 484 324 460 q 305 499 308 491 q 312 515 312 505 q 309 538 309 526 q 301 555 308 549 q 286 575 297 570 q 283 583 283 579 q 277 592 283 587 q 270 604 271 597 q 258 618 269 612 q 244 650 255 636 q 233 684 233 663 q 221 703 231 690 q 208 722 212 715 q 202 736 205 728 q 194 751 199 745 q 178 782 182 776 q 174 807 175 788 q 165 819 167 812 q 160 831 163 825 q 146 845 153 840 q 136 863 140 850 q 132 880 132 875 q 126 913 123 895 q 99 961 100 951 q 88 975 98 971 q 77 993 80 989 q 76 1002 75 997 q 56 1015 62 1009 q 39 1020 49 1021 q 14 1024 30 1019 q -7 1040 -3 1029 q 6 1061 -4 1058 q 23 1066 16 1065 q 34 1073 30 1067 q 54 1071 45 1069 q 71 1074 62 1073 q 92 1076 80 1076 q 113 1085 104 1076 q 133 1080 122 1085 q 150 1082 140 1084 q 165 1086 160 1080 l 180 1084 q 197 1091 187 1090 q 214 1097 206 1092 q 236 1084 233 1092 q 239 1050 243 1058 q 231 1044 236 1042 q 222 1039 227 1046 l 221 1016 q 231 991 222 1002 q 240 966 239 981 q 252 943 250 951 q 259 927 254 935 q 265 918 264 920 q 269 911 266 916 q 273 900 271 907 q 281 890 274 892 q 286 864 279 882 q 295 846 296 849 q 297 834 294 844 q 311 818 300 825 q 326 785 308 795 q 332 764 323 779 q 349 731 339 742 q 358 696 349 716 q 372 666 368 677 q 384 648 376 655 q 412 659 410 643 q 426 692 418 688 q 434 703 430 692 q 445 716 438 713 q 454 741 446 727 q 464 766 461 754 q 485 804 472 793 q 508 841 498 815 q 523 874 518 867 q 532 885 528 882 q 538 894 536 888 q 543 909 541 909 q 547 914 545 910 q 551 924 549 918 q 561 939 552 929 q 574 962 570 949 l 581 982 q 591 1009 590 1004 q 594 1023 591 1015 q 600 1035 597 1031 q 606 1044 604 1039 q 605 1065 609 1062 q 599 1077 601 1067 q 591 1088 597 1086 q 579 1093 586 1090 q 570 1099 572 1095 q 556 1106 567 1104 q 545 1123 545 1108 q 534 1138 534 1126 q 559 1160 538 1149 l 586 1146 q 646 1141 629 1146 q 678 1135 662 1135 q 703 1132 694 1135 q 720 1134 712 1128 q 739 1119 723 1127 q 776 1115 755 1122 q 808 1107 796 1108 q 830 1099 819 1107 q 848 1086 841 1090 q 840 1061 842 1070 q 817 1053 837 1053 q 793 1051 811 1055 q 769 1048 774 1047 q 749 1038 754 1046 q 732 1023 743 1029 q 720 1000 728 1013 q 704 972 712 986 q 687 945 696 958 q 673 925 678 933 q 669 903 675 914 q 659 882 662 891 q 656 867 656 873 q 652 853 655 860 q 646 840 646 845 q 636 830 646 834 q 621 819 627 826 q 614 787 617 804 q 597 762 612 769 q 593 745 597 751 q 588 733 590 739 q 585 721 586 727 q 583 711 585 715 q 576 705 581 707 q 567 699 571 703 q 556 684 559 685 q 552 682 553 684 q 548 670 551 671 q 543 658 543 670 l 538 637 q 529 618 538 624 q 517 606 519 613 q 507 589 518 593 q 490 574 496 585 q 480 559 486 566 q 467 526 467 540 z "},"Z":{"ha":726,"x_min":24,"x_max":715,"o":"m 448 968 l 463 972 q 472 972 467 974 q 492 975 477 971 q 519 976 506 978 q 543 981 533 974 q 562 990 552 989 q 576 997 571 991 q 600 994 597 991 q 609 998 602 996 q 627 998 620 993 q 646 998 635 1002 q 685 1009 674 1012 q 702 1003 696 1006 q 715 997 708 1000 q 712 983 715 986 q 712 968 709 979 q 701 949 704 964 q 684 945 693 944 q 663 913 680 922 l 663 894 q 651 873 652 887 q 639 853 650 859 q 623 814 635 833 q 609 787 612 796 q 602 772 601 776 q 599 762 604 768 q 594 750 594 757 q 587 738 594 743 q 589 728 587 731 q 587 719 590 726 q 570 697 574 704 q 559 686 566 690 q 541 644 555 669 q 526 617 528 620 q 524 600 526 606 q 522 579 521 593 q 513 564 510 567 q 514 555 517 560 q 511 547 510 553 q 511 536 511 541 q 549 534 533 532 q 578 528 566 536 q 598 517 590 519 q 646 500 625 521 q 639 458 647 481 q 629 456 635 454 q 618 456 624 457 q 608 454 613 456 q 595 453 604 452 q 575 460 586 454 q 553 467 564 465 q 529 464 541 468 q 472 475 509 457 q 451 448 453 456 q 444 439 449 441 q 436 428 439 437 q 428 416 433 419 q 420 407 423 412 q 418 395 418 401 q 416 384 419 389 q 407 369 407 373 l 401 350 q 396 326 401 336 q 384 313 391 315 q 372 290 381 298 q 362 263 362 282 q 335 197 336 218 q 313 165 334 176 q 302 139 311 148 q 285 121 293 130 q 277 100 283 107 q 270 79 270 94 q 281 70 273 72 q 304 64 290 68 q 323 61 317 60 q 338 60 328 62 q 368 62 347 57 q 399 73 388 66 q 439 71 411 68 q 490 77 467 75 q 540 96 514 79 q 551 123 540 109 q 562 152 562 138 q 583 174 571 164 q 618 109 620 159 q 623 80 617 94 q 620 73 620 77 q 617 65 620 68 q 619 37 620 54 q 621 3 618 19 q 627 -25 624 -12 q 617 -49 629 -38 q 607 -50 613 -56 q 598 -50 601 -45 q 582 -54 589 -57 q 564 -52 575 -50 q 554 -41 557 -47 q 544 -31 551 -34 q 540 -3 544 -15 q 535 15 538 14 q 532 20 532 16 q 503 21 521 19 q 475 20 486 23 q 456 13 465 18 q 435 6 446 8 q 403 6 423 4 q 374 5 382 8 q 361 1 365 3 q 354 -3 358 -1 l 332 -1 q 313 -5 323 -1 q 294 -4 304 -9 q 281 -9 289 -8 q 269 -15 274 -11 q 184 -39 208 -18 q 153 -45 163 -39 q 136 -52 144 -52 q 123 -45 129 -53 q 107 -39 117 -38 q 100 -29 106 -33 q 91 -20 94 -26 q 89 -4 91 -5 q 87 2 87 -3 q 90 14 87 7 q 95 29 92 20 q 100 45 98 38 q 104 59 102 53 q 111 71 107 65 q 118 83 114 76 q 125 95 121 90 q 132 107 129 100 q 134 124 134 114 q 137 142 134 134 q 143 155 140 149 q 151 170 146 160 q 161 190 155 179 q 174 214 165 206 q 184 244 178 222 q 199 274 190 266 q 208 301 201 289 q 222 327 216 313 q 233 358 229 340 q 250 385 237 376 q 286 465 259 418 q 304 494 300 484 q 315 510 308 503 q 255 528 271 518 q 236 527 245 530 q 212 526 227 524 q 179 542 197 528 q 165 572 161 556 q 181 589 170 587 q 203 601 193 591 q 222 598 217 598 q 234 596 228 598 q 244 591 240 594 q 339 568 258 582 q 345 576 342 572 q 353 589 347 579 q 362 607 358 598 q 373 627 366 616 q 381 654 380 639 q 394 669 391 658 q 401 688 397 681 q 410 699 406 696 q 416 709 414 703 q 420 724 419 715 q 421 740 420 732 q 429 748 422 747 q 439 753 437 749 q 443 770 438 762 q 456 803 448 777 q 475 836 465 829 q 487 846 484 844 q 500 876 488 859 q 513 911 513 892 q 501 911 509 916 q 492 910 494 907 l 385 907 q 330 898 342 907 q 319 901 323 898 q 306 905 315 903 q 287 900 297 906 q 256 901 277 894 q 219 901 235 907 q 195 893 203 895 q 174 888 186 891 q 154 884 163 886 q 135 878 145 882 q 123 869 125 875 q 114 861 121 863 q 105 823 113 837 q 98 793 98 808 q 87 769 90 783 q 75 746 84 755 q 35 741 57 745 q 24 784 18 753 q 33 819 33 804 q 36 859 31 837 q 38 911 41 882 q 39 962 35 941 q 43 1001 42 982 q 83 1004 62 1005 q 111 966 110 987 q 144 960 122 960 q 171 955 165 960 q 186 957 180 954 q 198 962 191 960 l 227 962 q 315 966 288 970 q 359 970 343 962 q 389 964 381 964 l 422 970 l 448 968 z "},"[":{"ha":396,"x_min":79,"x_max":382,"o":"m 176 1024 l 263 1036 q 283 1036 278 1036 q 296 1042 289 1035 q 322 1038 311 1035 q 349 1036 334 1040 q 353 1030 353 1034 q 355 1019 353 1027 q 358 1006 357 1010 q 345 989 359 1002 q 316 975 331 977 q 298 975 301 972 q 289 978 294 978 l 270 975 q 240 985 245 983 q 233 980 235 986 q 225 974 232 974 q 203 968 214 970 q 187 956 191 967 l 199 879 q 200 858 198 863 q 202 849 202 853 l 199 823 l 212 753 q 213 743 212 747 q 216 734 214 739 q 216 724 217 728 q 217 713 216 719 q 222 701 218 708 q 225 686 225 694 l 224 661 q 225 644 224 652 q 228 625 227 635 q 231 605 229 614 q 235 589 233 595 q 235 577 236 582 q 235 567 235 572 l 243 534 l 243 511 q 245 499 243 506 q 251 484 248 492 q 253 460 254 475 q 253 433 252 445 q 254 412 254 420 l 260 372 l 258 345 q 262 320 259 334 q 258 293 266 307 l 263 278 q 261 271 263 274 q 260 261 259 267 q 266 247 262 255 q 269 214 271 231 q 264 151 259 190 q 270 96 269 111 l 273 75 q 264 51 270 61 q 263 19 259 41 q 279 6 274 11 q 290 5 283 1 q 302 9 296 8 q 327 11 315 7 q 347 14 339 15 q 360 11 354 14 q 374 7 366 8 q 382 -15 378 -4 q 377 -37 385 -26 q 354 -37 361 -39 q 340 -37 347 -35 q 327 -42 332 -38 q 316 -49 321 -46 q 296 -50 305 -46 q 279 -54 286 -54 q 268 -52 273 -54 q 257 -52 263 -50 q 244 -56 251 -53 q 231 -61 237 -58 q 184 -66 203 -54 q 161 -49 165 -56 q 144 -17 149 -26 q 138 -3 138 -8 q 134 16 137 3 q 134 31 132 30 q 134 37 136 33 q 127 47 132 42 q 121 58 123 52 q 127 67 121 65 q 134 77 134 69 q 132 99 130 88 q 131 121 133 110 q 132 149 129 132 q 134 184 134 167 l 129 252 q 132 269 129 260 q 132 286 134 277 q 127 298 126 294 q 126 320 129 302 q 123 339 123 338 l 126 369 l 123 415 l 126 437 q 121 457 121 453 q 121 467 122 461 q 117 478 119 472 q 114 491 115 484 q 115 503 114 498 q 114 513 115 507 q 110 524 113 518 q 104 537 107 530 l 107 563 l 102 581 l 102 605 q 99 619 102 610 q 98 634 96 628 q 98 647 99 640 q 94 661 96 654 q 94 685 92 669 q 92 705 95 701 q 87 718 90 709 q 86 737 85 727 q 85 758 87 747 q 86 777 84 768 q 81 788 88 785 q 87 814 87 799 q 79 838 87 829 q 79 866 80 848 q 81 896 79 884 q 85 914 83 907 q 88 928 87 921 l 85 944 q 92 971 87 959 q 98 996 96 983 q 110 1008 106 1000 l 136 1012 q 152 1018 140 1012 q 176 1024 164 1024 z "},"\\":{"ha":461,"x_min":53,"x_max":403,"o":"m 403 77 q 349 79 376 58 q 323 98 339 87 q 314 116 319 107 q 305 136 309 125 q 301 152 301 146 q 296 166 301 157 q 293 179 292 175 q 290 193 294 183 q 287 207 286 202 q 282 224 288 212 q 273 241 277 237 q 267 251 270 245 q 264 271 270 266 q 262 292 259 277 q 255 305 258 298 q 248 319 252 312 q 241 331 244 326 q 235 342 237 336 q 232 354 232 349 q 229 367 232 359 q 221 382 225 374 q 212 404 217 389 q 201 429 208 418 q 195 454 195 439 q 176 490 175 479 q 172 514 179 506 q 165 529 165 522 q 160 553 167 540 q 151 576 153 567 q 146 595 149 585 q 138 618 142 605 q 130 640 133 631 q 125 652 126 648 q 119 658 125 656 q 117 680 122 671 q 109 698 111 689 q 104 715 106 707 q 100 734 103 724 q 96 748 98 743 q 90 766 94 753 q 81 801 85 780 q 60 833 77 822 q 54 873 57 854 q 58 913 50 892 q 71 921 65 917 q 83 928 77 925 q 96 926 90 932 q 110 917 103 921 q 130 899 117 913 q 148 878 144 884 q 152 865 152 871 q 155 852 152 859 q 159 840 157 846 q 170 817 161 834 q 182 762 179 799 q 208 692 198 730 q 228 630 218 655 q 242 593 237 605 q 250 568 247 582 q 275 513 275 525 q 276 495 274 502 q 281 484 278 488 q 290 467 283 480 q 304 439 297 453 q 317 416 311 426 q 317 407 319 410 q 320 397 315 404 q 329 377 326 389 q 336 353 332 365 q 346 334 345 345 q 352 309 347 324 q 364 283 357 294 q 374 262 372 273 q 377 244 377 252 q 400 182 374 224 q 401 160 397 170 q 403 77 416 129 z "},"]":{"ha":419,"x_min":4,"x_max":334,"o":"m 229 986 q 250 989 243 985 q 267 991 256 994 q 277 981 274 987 q 288 970 281 974 q 293 945 289 958 q 298 920 297 932 q 302 901 300 909 q 306 884 304 892 q 314 865 308 876 q 315 848 320 854 q 308 833 309 842 q 313 778 316 789 q 315 764 311 766 q 319 745 319 762 q 317 696 319 727 q 323 640 315 666 q 330 608 331 613 q 331 593 328 602 q 332 578 334 583 q 330 568 330 574 l 334 553 l 331 534 q 327 481 327 507 q 331 461 331 465 l 330 427 l 332 407 l 320 336 q 323 298 320 317 q 320 256 327 278 q 326 245 321 248 q 331 231 331 241 q 323 210 331 220 q 317 191 315 199 q 319 176 319 183 l 315 155 l 319 130 q 315 104 319 117 q 317 77 311 91 q 315 57 312 61 q 308 36 317 52 q 303 7 298 20 q 305 -19 308 -5 l 298 -43 q 297 -50 298 -47 q 288 -58 288 -57 q 286 -61 289 -60 q 277 -68 277 -66 q 274 -73 277 -71 q 258 -83 260 -80 q 253 -89 256 -85 q 248 -99 250 -92 q 237 -112 247 -106 q 202 -117 228 -118 q 163 -113 176 -117 q 146 -111 151 -110 q 132 -109 142 -111 q 111 -110 122 -107 q 89 -112 100 -113 q 73 -109 77 -111 q 46 -114 68 -107 q 14 -121 24 -121 q 4 -73 -4 -96 q 28 -63 14 -65 q 52 -53 42 -61 q 65 -54 58 -56 q 85 -56 72 -53 q 110 -52 98 -58 q 134 -46 122 -46 l 156 -26 q 167 14 156 -8 q 170 140 170 80 q 174 233 170 199 q 181 278 178 267 q 186 300 184 289 l 182 321 q 182 351 180 336 q 183 380 183 365 q 179 403 179 400 l 183 418 q 182 439 180 434 q 182 453 184 444 q 184 471 180 463 q 184 488 189 479 q 182 503 180 496 q 180 519 183 509 q 176 556 176 529 q 172 593 176 583 q 172 624 168 602 q 177 659 180 643 q 176 680 174 674 q 176 692 178 685 l 171 718 q 170 745 174 727 l 170 774 q 165 805 165 795 q 168 826 165 815 q 171 852 170 837 q 171 885 172 867 q 170 921 170 903 q 151 924 163 925 q 133 920 140 924 q 101 926 126 926 q 69 933 76 926 q 65 968 61 958 q 79 974 72 970 q 96 976 85 978 q 112 976 106 974 q 127 980 118 978 q 160 979 136 982 q 229 986 218 975 z "},"^":{"ha":519,"x_min":20,"x_max":457,"o":"m 79 566 l 88 589 q 94 604 88 594 q 97 620 99 613 q 97 633 95 627 q 106 646 99 639 q 115 661 113 654 q 117 673 118 667 q 123 692 115 682 q 130 722 130 703 q 134 729 134 724 q 140 744 134 734 q 146 760 146 754 q 151 777 145 768 q 156 793 157 787 q 168 833 153 804 q 186 887 182 861 q 190 896 184 895 q 195 905 195 897 q 196 918 198 911 q 197 930 194 925 q 205 940 206 939 q 217 950 205 941 q 237 959 229 959 q 254 960 245 959 q 292 920 279 941 q 306 892 304 899 q 311 878 308 884 q 319 866 315 871 q 327 857 324 861 q 329 846 330 852 q 330 836 328 841 q 335 828 332 831 q 340 820 338 825 q 343 810 343 815 q 350 803 343 804 q 353 784 347 793 q 363 753 359 772 q 374 720 368 734 q 385 696 381 705 q 389 676 388 688 q 394 656 391 665 q 400 644 397 648 q 406 633 403 639 q 410 618 408 627 q 417 592 412 600 q 422 578 422 585 q 425 566 422 572 q 426 557 427 559 q 427 543 425 556 q 444 510 430 529 q 445 491 446 500 q 446 472 444 481 q 452 455 448 463 q 457 442 456 448 q 456 432 458 437 q 454 420 454 427 q 456 407 454 414 q 450 393 458 400 q 454 385 453 387 q 453 373 456 382 q 443 363 446 369 q 427 359 439 358 q 399 345 416 345 q 372 353 382 346 q 357 365 361 361 q 350 374 354 369 q 346 384 346 380 q 340 397 346 388 q 332 412 334 407 q 325 425 330 416 q 315 450 320 433 q 304 480 311 468 q 300 519 305 502 q 291 548 292 537 q 282 566 290 559 q 273 597 283 583 q 262 627 273 616 q 258 647 259 635 q 254 671 256 659 q 242 701 251 682 q 222 720 233 720 q 209 711 212 720 q 197 696 206 703 l 197 680 q 193 671 197 673 q 187 663 190 670 q 185 648 184 656 q 184 633 186 639 q 178 624 182 628 q 173 616 175 620 q 171 606 171 612 q 165 589 171 600 q 160 572 159 579 q 144 533 163 555 q 135 490 144 505 q 121 462 126 475 q 118 435 117 449 q 103 395 107 418 q 92 354 99 373 q 79 347 84 351 q 66 340 75 343 q 42 348 46 339 q 27 359 38 357 q 26 369 31 365 q 20 380 22 373 q 29 408 24 403 q 35 416 34 412 q 37 425 37 420 q 41 444 37 430 q 47 465 46 457 q 50 477 47 472 q 54 486 52 483 q 60 503 56 490 q 65 524 65 515 q 71 548 64 536 q 79 566 79 560 z "},"_":{"ha":644,"x_min":47,"x_max":598,"o":"m 331 58 q 391 49 358 49 q 445 50 423 49 q 476 54 467 52 q 494 56 486 57 q 511 53 503 56 q 526 54 518 50 q 549 54 534 57 q 576 54 563 52 q 589 41 582 47 q 598 24 595 34 q 589 1 598 1 q 574 -9 581 0 l 538 -16 l 522 -12 q 513 -13 517 -11 q 502 -13 509 -15 q 488 -5 495 -11 q 470 3 480 1 q 448 -1 460 4 q 423 0 437 -7 q 392 -7 412 -8 q 357 -14 372 -7 q 328 -9 345 -9 l 285 -9 q 244 -3 256 -9 q 210 -6 229 -9 q 171 -4 190 -3 q 141 -6 152 -5 q 115 1 130 -7 q 90 7 100 8 q 72 9 80 7 q 54 19 57 19 q 47 22 50 19 q 56 64 47 56 q 67 65 61 66 q 80 65 73 64 q 92 69 87 66 q 103 73 98 72 q 115 69 109 73 q 127 64 121 65 q 138 63 133 62 q 149 64 142 64 l 183 58 l 210 61 q 238 57 224 61 q 262 52 252 53 q 279 51 273 50 q 302 52 285 52 q 331 58 319 52 z "},"`":{"ha":864,"x_min":320,"x_max":540,"o":"m 377 1025 l 355 1050 q 346 1053 349 1048 q 335 1059 343 1057 q 321 1066 327 1061 q 321 1077 324 1073 q 321 1089 317 1081 q 326 1104 324 1097 q 365 1124 334 1128 q 374 1118 370 1119 q 402 1098 382 1118 q 435 1073 422 1078 q 477 1047 464 1050 q 492 1031 483 1038 q 509 1017 502 1024 q 522 1002 515 1009 q 538 989 529 994 q 540 949 547 975 q 486 939 506 926 q 469 945 477 943 q 446 972 461 967 q 431 995 439 989 q 409 1007 422 1001 q 391 1019 396 1013 q 377 1025 387 1025 z "},"a":{"ha":536,"x_min":26,"x_max":576,"o":"m 439 -26 l 381 -23 q 365 -14 376 -23 q 350 -5 354 -4 l 332 20 q 327 52 327 37 l 327 80 q 316 92 320 84 q 284 80 290 87 q 274 71 278 73 q 236 53 254 71 q 221 55 229 58 q 204 53 213 52 q 191 56 195 54 q 180 61 187 58 q 165 60 172 58 q 148 60 159 61 q 111 80 140 69 q 69 98 92 92 q 26 167 42 138 q 27 193 30 179 q 37 236 23 216 q 62 275 46 260 q 84 295 77 289 q 99 306 91 301 q 115 321 107 311 q 134 334 122 331 q 155 337 145 336 q 176 340 164 338 q 193 345 189 343 q 239 338 208 350 q 271 338 256 340 q 304 338 285 336 q 314 353 315 345 q 313 372 313 361 q 312 388 313 382 l 307 406 q 302 458 309 442 q 304 472 305 471 q 302 478 302 473 q 301 492 302 483 q 298 514 300 502 q 292 550 296 526 q 285 587 289 574 q 279 606 281 600 q 274 620 277 613 q 271 633 271 627 q 265 647 270 639 q 258 660 260 655 q 250 669 255 665 q 246 680 247 673 q 241 689 245 686 q 212 692 227 692 q 191 682 198 692 q 155 675 165 682 q 151 656 148 666 q 152 640 153 647 q 149 627 151 632 q 145 616 146 621 q 149 594 149 602 q 155 572 148 586 q 167 555 163 559 q 178 548 171 551 q 191 545 186 545 q 205 538 195 545 q 217 506 214 532 q 186 492 209 492 q 149 502 163 492 q 141 500 144 502 q 131 500 138 498 q 119 507 123 502 q 103 513 114 513 q 94 528 100 522 q 83 541 88 534 q 77 555 79 555 q 75 556 75 555 q 62 609 57 582 q 65 621 62 614 q 71 634 68 627 q 73 649 73 642 q 76 663 73 656 q 83 673 79 669 q 94 682 88 677 q 104 691 99 686 q 115 699 109 696 q 121 711 118 705 q 127 726 125 718 q 137 730 133 728 q 144 735 141 731 q 168 739 156 734 q 192 743 180 743 q 212 746 203 743 l 231 746 q 248 743 240 746 q 267 743 256 741 q 281 739 274 742 q 297 741 289 736 q 322 725 304 732 q 351 701 340 718 q 366 679 361 685 q 376 664 372 673 q 385 648 380 655 q 393 633 389 640 q 403 617 397 625 q 412 601 408 609 q 422 587 415 593 q 431 552 418 572 q 433 543 433 547 q 437 530 434 538 q 441 505 439 521 q 444 479 442 490 q 448 465 446 469 q 452 453 450 461 q 452 432 453 445 q 453 410 452 419 q 453 397 454 401 q 452 388 452 393 l 456 369 q 454 353 456 361 q 454 335 453 345 q 460 311 456 326 q 466 284 464 297 q 468 262 468 271 l 468 244 q 464 195 468 236 l 468 178 q 465 126 465 163 l 463 110 q 463 99 465 104 q 461 85 461 94 q 467 71 461 77 q 468 53 473 64 q 498 49 487 45 q 536 52 521 56 q 558 46 552 47 q 567 42 564 45 q 576 20 574 26 q 568 8 578 14 q 557 -4 559 3 q 494 -11 521 -11 q 439 -26 467 -11 m 202 275 l 187 281 q 141 256 164 263 q 133 239 134 250 q 128 213 132 228 q 126 194 125 198 q 134 175 134 179 q 139 161 134 171 q 145 146 144 152 q 162 133 156 141 q 177 122 168 125 q 193 122 186 119 q 205 119 199 125 q 220 120 210 121 q 240 121 231 119 q 259 128 248 129 q 278 133 270 127 q 300 156 297 151 q 315 167 304 161 q 319 225 319 201 q 303 240 311 235 q 293 259 296 245 q 282 265 288 263 q 274 273 277 267 q 267 272 267 273 q 256 275 266 271 q 202 275 247 279 z "},"b":{"ha":665,"x_min":-7,"x_max":614,"o":"m 206 1160 l 241 1164 q 279 1160 269 1166 q 283 1125 293 1141 q 250 1102 273 1109 q 224 1080 228 1095 q 222 1044 221 1065 q 222 1005 222 1024 l 221 940 l 225 917 q 224 870 227 890 q 231 833 221 850 q 228 806 228 818 q 239 787 228 793 q 232 762 232 770 q 235 749 232 754 q 240 736 239 743 q 242 685 237 709 q 250 635 247 661 l 248 585 l 254 547 q 256 506 256 528 l 251 487 q 254 460 254 468 q 262 442 255 452 q 274 440 273 439 q 283 444 275 441 q 300 456 297 456 q 309 458 304 456 q 319 464 313 460 q 331 472 324 468 q 345 481 338 476 q 363 487 353 487 l 414 481 q 429 484 418 481 q 445 484 439 486 q 461 479 450 481 q 476 478 472 477 q 484 477 480 479 q 490 473 487 476 q 497 468 492 471 q 507 465 502 465 q 515 464 511 465 q 524 456 522 456 q 528 454 525 456 q 536 450 530 452 q 546 443 541 449 q 552 437 551 437 q 557 433 553 437 q 563 423 560 429 q 576 399 572 404 q 581 389 579 395 q 583 380 583 384 q 587 366 582 377 q 595 346 591 355 q 600 328 598 336 q 608 300 602 319 q 612 271 613 282 q 612 249 612 259 q 614 230 613 239 q 614 214 616 221 q 612 205 613 208 q 609 197 610 202 q 608 187 608 191 q 606 180 608 183 q 602 174 604 176 q 566 123 587 136 q 563 102 567 113 q 555 96 559 99 q 545 92 552 92 q 544 79 547 83 q 540 68 541 75 q 511 43 519 57 q 490 39 496 46 q 468 34 484 31 q 460 24 461 31 q 448 12 458 16 q 423 3 438 7 q 399 -6 408 -1 q 388 -8 391 -11 q 380 -5 385 -5 q 371 -9 374 -5 q 358 -14 368 -12 q 347 -14 349 -15 l 327 -7 q 304 -7 316 -5 q 290 -5 293 -9 q 273 -7 279 -8 q 266 6 270 -1 q 252 12 262 14 q 241 5 241 5 q 239 -2 241 4 q 237 -12 236 -8 q 240 -24 239 -15 q 214 -33 220 -26 q 196 -42 208 -39 q 175 -43 184 -45 q 155 -42 165 -42 l 133 -45 q 111 -47 122 -46 q 90 -58 99 -49 q 54 -62 71 -58 q 24 -52 37 -66 q 30 -18 23 -34 q 52 -12 41 -15 q 68 1 62 -9 q 94 2 85 -3 q 111 12 103 7 q 110 75 117 39 q 101 125 103 110 q 96 154 99 140 q 94 176 94 168 q 94 198 95 184 q 94 231 94 212 l 94 267 l 99 332 q 98 362 102 343 q 92 430 95 381 l 91 454 q 89 481 88 467 q 90 510 90 495 l 92 525 l 84 591 q 83 653 80 625 q 79 694 85 681 q 81 739 81 701 q 81 764 85 751 q 76 803 76 776 q 77 823 79 815 q 75 839 75 830 q 77 858 75 848 q 73 879 79 868 q 77 913 83 895 q 71 943 71 930 q 73 963 71 956 q 78 981 76 970 q 73 1010 80 993 q 68 1041 66 1027 q 75 1069 71 1055 q 69 1095 79 1082 q 18 1093 37 1092 q -1 1111 5 1101 q -7 1143 -7 1120 q 31 1154 11 1153 q 68 1156 50 1154 q 101 1158 85 1157 q 139 1160 117 1158 q 186 1162 161 1162 l 206 1160 m 495 283 l 494 307 q 498 341 495 326 q 499 366 502 357 q 484 394 496 377 q 456 416 471 411 q 435 420 441 422 q 417 418 429 419 q 397 419 406 418 q 382 419 389 420 q 369 414 376 418 q 351 412 362 411 q 326 397 345 401 q 301 372 317 381 q 304 361 305 365 q 301 351 302 358 q 292 343 294 349 q 283 327 289 338 q 267 316 277 316 q 269 304 266 308 q 262 288 271 298 q 254 269 254 277 q 250 258 255 260 q 249 208 252 231 q 243 157 245 184 q 250 150 245 152 q 259 144 255 148 q 268 123 263 133 q 274 100 273 114 q 288 79 286 91 q 301 71 298 77 q 323 56 304 64 q 406 75 354 42 q 450 123 433 85 q 481 205 487 198 q 486 237 476 212 q 495 283 495 263 z "},"c":{"ha":514,"x_min":46,"x_max":477,"o":"m 311 183 l 346 190 l 392 205 l 414 222 q 422 220 416 222 q 437 220 427 218 q 456 214 448 222 q 462 199 465 205 q 461 184 458 193 q 430 155 450 164 q 421 148 427 149 q 408 142 415 146 q 390 130 400 138 q 362 118 380 122 q 330 106 345 114 q 322 108 327 110 q 313 106 317 106 l 293 106 l 273 100 q 234 102 247 106 q 208 105 221 99 q 196 113 195 111 q 195 117 197 115 q 181 127 184 121 q 175 137 178 133 q 156 143 165 142 q 144 157 146 144 q 119 167 126 160 q 106 190 109 174 q 90 213 103 206 q 75 245 77 232 q 61 267 72 258 q 50 319 62 283 q 49 377 37 354 q 46 395 49 384 q 54 424 53 408 q 56 450 54 439 q 60 465 58 461 q 71 496 66 477 q 80 526 75 514 q 87 545 85 537 q 97 558 92 548 q 111 580 102 568 q 123 604 121 591 q 134 610 130 605 q 141 621 137 616 q 151 627 148 623 q 165 637 155 632 q 182 648 176 642 q 199 660 189 655 q 212 667 210 665 q 217 670 214 670 l 232 674 q 240 673 236 674 q 283 692 258 670 q 315 688 301 690 q 338 700 328 686 q 347 692 345 697 q 355 685 349 688 q 385 679 374 688 q 406 658 396 670 q 414 669 410 662 q 426 687 418 675 q 445 703 434 699 q 463 703 456 708 q 474 691 469 697 q 475 682 479 685 q 475 673 472 680 l 477 656 q 474 640 476 654 q 471 621 472 627 q 471 612 469 616 q 467 584 472 608 q 465 532 463 560 q 467 496 468 503 q 464 481 465 490 q 460 468 463 472 q 452 460 453 463 q 449 454 452 457 l 431 444 q 403 454 411 438 q 391 487 395 471 q 392 555 400 514 l 392 564 q 382 585 392 572 q 374 599 373 597 q 373 604 374 601 q 349 613 359 608 q 327 624 338 618 q 315 623 320 621 q 303 622 309 624 q 296 616 297 620 q 290 610 294 612 l 273 606 q 253 590 254 598 q 245 575 252 582 q 239 570 244 570 q 232 564 233 570 q 223 551 225 557 q 217 535 221 544 q 212 523 213 526 q 210 513 210 519 q 207 503 209 506 q 203 494 205 500 q 200 482 202 488 q 198 471 198 476 q 194 463 198 467 q 186 447 190 458 q 184 417 183 435 q 180 385 184 399 q 180 368 176 372 q 186 358 183 363 q 197 281 178 320 q 209 271 201 274 q 213 247 206 254 q 229 222 228 231 q 249 210 240 217 q 266 198 258 203 q 292 190 286 197 q 311 183 298 183 z "},"d":{"ha":624,"x_min":45,"x_max":595,"o":"m 533 320 l 529 301 q 530 295 528 298 q 531 281 532 292 q 527 248 530 270 q 533 209 524 225 q 530 176 528 194 q 529 137 532 159 l 524 119 q 532 71 524 95 q 550 71 540 69 q 576 75 560 73 q 595 58 591 77 q 579 22 600 35 q 566 18 575 19 q 548 13 556 16 q 525 12 540 9 q 490 9 510 14 q 453 9 469 4 q 415 15 437 15 l 400 58 q 380 69 388 76 q 357 66 372 62 l 332 56 q 308 56 317 60 q 292 54 298 53 l 273 45 l 256 45 q 245 49 251 46 q 235 53 240 52 q 224 54 229 54 q 210 57 220 53 q 178 61 199 61 l 164 73 q 141 85 152 73 q 119 104 130 98 q 90 127 107 110 q 86 138 90 134 q 84 153 83 142 q 66 187 69 165 q 60 233 62 209 q 54 255 53 241 q 47 277 54 269 q 50 295 47 285 q 45 315 52 305 q 48 322 49 317 q 49 331 47 327 q 58 355 60 347 q 57 370 56 363 q 74 408 69 395 q 81 426 79 422 q 85 436 83 430 q 90 448 88 442 q 94 458 91 454 q 103 467 96 463 q 120 482 110 472 q 136 496 130 492 q 154 513 141 499 q 172 537 167 526 q 183 543 179 538 q 195 550 187 547 q 209 560 202 553 q 237 574 225 575 q 260 580 250 572 q 278 589 270 587 q 298 586 286 590 q 319 581 309 582 l 338 581 q 376 578 365 582 q 399 578 388 574 q 406 675 401 604 q 406 701 403 690 q 407 722 408 712 q 406 738 406 732 q 408 802 406 743 q 406 822 406 815 q 408 842 406 829 q 409 860 411 854 q 408 873 407 865 q 413 891 410 882 q 418 910 416 901 l 415 925 l 422 974 q 423 983 422 978 q 421 991 425 987 q 416 1004 418 996 q 418 1021 415 1013 q 425 1055 420 1028 q 411 1099 429 1081 q 395 1098 401 1101 q 379 1094 388 1095 q 369 1095 370 1093 q 355 1093 368 1097 q 317 1095 342 1089 q 302 1128 302 1105 q 315 1164 301 1150 q 340 1161 324 1161 q 361 1168 355 1161 q 393 1161 381 1161 l 410 1165 q 436 1167 420 1168 q 457 1168 452 1166 q 471 1171 463 1171 q 480 1170 479 1172 q 490 1173 481 1168 l 526 1169 l 534 1169 q 550 1158 544 1169 q 556 1142 556 1147 l 549 1051 q 546 1042 548 1046 q 544 1032 544 1038 l 547 993 l 541 971 l 544 956 l 541 935 q 544 913 544 924 l 537 852 l 540 833 l 533 758 q 537 656 533 707 l 533 629 l 537 605 l 532 578 q 532 571 530 574 q 533 563 533 568 l 533 525 q 530 515 533 519 q 530 490 524 507 q 533 469 536 472 q 529 464 530 467 q 534 433 538 449 q 529 399 530 416 l 529 384 q 530 351 528 368 q 533 320 533 335 m 399 359 l 396 406 l 393 426 q 397 466 393 446 q 399 507 401 486 q 368 527 382 528 q 342 519 353 526 q 323 522 332 513 q 302 530 315 532 q 294 523 297 528 q 285 515 290 518 q 273 511 279 513 q 260 507 267 510 q 248 490 255 498 q 236 473 241 481 q 234 462 237 467 q 236 452 231 457 q 214 412 218 448 q 217 401 214 406 q 205 378 208 392 q 202 358 203 365 q 199 347 201 351 q 197 338 197 342 l 193 297 q 191 284 193 290 q 193 274 190 278 q 197 245 194 255 q 199 227 201 235 q 205 213 198 220 q 210 199 213 206 q 214 189 214 195 q 216 174 213 183 q 247 146 222 153 q 253 137 250 144 q 260 129 256 130 q 266 121 263 122 q 275 117 269 121 q 292 113 282 113 q 310 114 301 114 q 323 113 319 114 q 342 113 328 111 q 372 129 355 115 q 396 153 389 142 q 398 178 392 164 q 400 258 404 191 q 399 359 396 324 z "},"e":{"ha":477,"x_min":38,"x_max":446,"o":"m 430 498 q 426 450 422 468 q 420 427 425 431 q 408 416 415 423 q 409 405 408 411 q 406 396 410 399 q 355 398 380 397 q 312 389 330 399 q 302 390 305 388 q 296 393 300 392 q 279 384 289 391 q 259 381 269 377 q 239 382 250 385 q 189 355 199 369 q 189 326 190 340 q 190 300 187 312 l 193 282 q 192 273 194 277 q 190 262 190 269 q 193 249 190 256 q 191 235 197 241 q 197 221 194 228 q 197 203 199 214 q 201 193 198 197 q 205 183 203 190 q 207 166 208 176 q 208 149 206 156 q 212 134 210 142 q 225 111 214 125 q 232 90 236 98 q 243 76 239 83 q 255 64 248 69 q 277 57 267 62 q 303 52 288 52 q 340 64 319 52 q 368 80 361 77 q 372 90 372 83 q 377 101 373 98 q 385 105 381 104 q 394 109 388 106 q 406 117 400 113 q 420 127 411 122 q 446 121 430 133 q 446 98 450 104 q 438 84 442 91 q 437 75 434 77 q 438 66 439 73 q 430 49 430 58 q 418 39 422 46 q 406 26 414 31 q 390 21 397 22 q 374 16 382 20 q 359 3 365 11 q 342 -11 354 -4 q 323 -9 335 -9 q 275 -20 300 -23 q 221 -14 250 -16 q 172 18 199 8 q 129 53 161 45 q 123 64 129 61 q 117 77 117 66 q 108 84 110 79 q 99 92 106 90 q 96 98 98 96 q 95 107 94 100 q 85 116 88 110 q 76 129 81 122 q 64 155 66 148 q 56 178 62 161 q 50 214 49 194 l 39 237 q 40 252 42 244 q 38 267 38 259 l 41 288 q 41 319 42 302 q 42 350 39 336 l 46 366 q 47 376 47 372 q 50 391 46 381 q 58 415 53 401 q 64 434 64 429 q 68 448 65 439 q 75 463 71 456 q 82 477 79 469 q 85 490 85 484 q 92 503 85 496 q 100 513 98 509 q 106 521 103 517 q 113 529 110 525 q 124 549 115 541 q 132 567 133 556 q 140 572 138 567 q 151 584 141 578 q 163 593 160 590 q 178 604 165 595 q 198 628 191 612 q 207 625 205 623 q 216 631 209 627 q 227 635 222 635 q 238 640 231 635 q 252 643 245 644 q 263 646 258 642 q 297 649 282 651 q 327 651 312 647 q 337 642 334 648 q 345 631 340 635 q 354 625 350 627 q 365 618 358 624 q 374 611 372 613 q 380 604 377 609 q 387 595 382 600 q 397 582 392 590 q 406 560 401 574 q 418 534 410 547 q 419 518 415 524 q 424 507 420 511 q 430 498 427 503 m 279 439 l 297 444 q 319 447 308 446 q 342 452 331 448 q 335 502 345 483 q 332 520 339 511 q 327 541 326 529 q 309 557 312 556 q 307 570 309 566 q 301 579 304 574 q 288 583 294 582 q 277 587 281 583 q 218 559 251 562 q 209 526 220 541 q 208 515 208 521 l 208 507 q 201 490 201 502 q 195 466 202 479 q 191 441 189 453 q 227 440 210 438 q 258 442 243 442 l 279 439 z "}}}
